<svg xmlns="http://www.w3.org/2000/svg" viewBox="0 0 180.44 180.44"><defs><style>.cls-1{fill:#e862e8;}.cls-2{fill:#461a68;}</style></defs><title>artefacts</title><g id="Layer_2" data-name="Layer 2"><g id="Data_Holder" data-name="Data Holder"><g id="Artefacts"><circle class="cls-1" cx="90.22" cy="90.22" r="90.22"/><path class="cls-2" d="M85.39,121.47H58.54c-8.83,0-17.67-.1-26.5,0-3.3.05-4.55-1.31-4.55-4.45q0-34.7,0-69.41c0-4.54,2.79-4.75,6.14-4.75q33.86,0,67.73,0,22.51,0,45,0c5.85,0,6.61.78,6.61,6.54q0,32.81,0,65.62c0,5.89-.52,6.38-6.58,6.38-16.13,0-32.25.06-48.38,0-3.07,0-4.85.23-4.89,4.16,0,4.09,1.78,4.67,5.08,4.45,2.23-.15,4.64-.42,6.67.26a5.68,5.68,0,0,1,3.33,3.77c.25,1.94-1.14,3.49-3.72,3.46-10.09-.1-20.2.11-30.28-.19-1.51,0-3-2.16-4.43-3.32,1.37-1.32,2.53-3.26,4.16-3.8,2-.68,4.43-.21,6.68-.22,5.23,0,5.24,0,5.08-5.44C85.66,123.74,85.53,122.92,85.39,121.47Zm59.8-62.91c1.18-8,1.18-8-6.81-8H55c-5.47,0-10.95-.11-16.41.1-1.17,0-3.26,1.25-3.29,2-.26,6.36-.15,12.73-.15,19.09a42.08,42.08,0,0,0,7.05-7.46c3.65-4.49,7-4.19,9.43.93,2,4.15,3.72,8.41,5.65,12.59C59,81.48,60.78,85.08,63,89.68c3.35-4.73,6.09-8.37,8.58-12.17,3.18-4.86,6.42-4.79,9.3.29,3,5.3,6,10.62,9.13,15.83,2.84,4.71,5.48,4.54,8-.34.19-.37.23-.81.41-1.19,3.63-7.51,7.2-15,11-22.47.6-1.17,2.36-2.62,3.39-2.48A5.69,5.69,0,0,1,116.47,70c1.08,2.2,1.48,4.74,2.14,7.15q2.93,10.77,5.84,21.56a11.3,11.3,0,0,0,2.89-5.11c3-10.84,5.73-21.73,8.81-32.54.54-1.91,1.9-4.43,3.46-4.94C141,55.68,143.17,57.6,145.19,58.56ZM75.92,84.27c-2.19,3.22-3.64,5.36-5.11,7.49s-2.94,4.4-4.57,6.48c-3,3.84-5.54,3.61-7.71-.72C56,92.42,53.59,87.26,51.08,82.15c-1.59-3.24-3.28-6.43-5.27-10.31-2.78,3.59-4.74,6.46-7,9A13.79,13.79,0,0,0,35,91.48a157.07,157.07,0,0,1,0,17.23c-.2,3.93.86,5.32,5.06,5.29,25.09-.19,50.18-.09,75.27-.1,1.5,0,3-.14,5.48-.26l-8.67-32c-.7,1.12-.94,1.45-1.12,1.81-2.8,5.42-5.53,10.87-8.41,16.25a8.18,8.18,0,0,1-2.83,3.45C94.52,105.92,87,103.24,84.1,98,81.7,93.69,79,89.5,75.92,84.27Zm53.64,29.63c4.48,0,8.38-.16,12.26.05,3,.16,3.78-1.1,3.75-3.92-.13-10.78,0-21.56-.13-32.34,0-1.81-1-3.65-1.75-5.39-.25-.58-1.31-1.31-1.77-1.18a2.74,2.74,0,0,0-1.39,1.78C136.93,86.26,133.37,99.64,129.57,113.9Z"/></g></g></g></svg>