<svg xmlns="http://www.w3.org/2000/svg" width="528.65" height="131.99" viewBox="0 0 528.65 131.99"><defs><style>.cls-1{fill:#563399;}.cls-2{font-size:40px;fill:#fff;font-family:MyriadPro-Regular, Myriad Pro;}.cls-3{letter-spacing:-0.01em;}.cls-4{letter-spacing:-0.08em;}.cls-5{letter-spacing:-0.07em;}.cls-6{letter-spacing:0.01em;}.cls-7{letter-spacing:0em;}.cls-8{letter-spacing:-0.08em;}.cls-9{letter-spacing:-0.01em;}.cls-10{letter-spacing:0.03em;}.cls-11{letter-spacing:-0.01em;}.cls-12{fill:none;stroke:#fff;stroke-miterlimit:10;stroke-width:3px;}.cls-13{fill:#e862e8;}.cls-14{fill:#461a68;}</style></defs><title>artefacts_nyil</title><g id="Layer_2" data-name="Layer 2"><g id="Data_Holder" data-name="Data Holder"><g id="artefacts_nyil"><path class="cls-1" d="M528.65,126.47c0,3.05-2.15,5.53-4.81,5.53H105.69a4.37,4.37,0,0,1-2.58-.86L2.24,70.55a6,6,0,0,1,0-9.34L103.12.85A4.37,4.37,0,0,1,105.69,0H523.84c2.66,0,4.81,2.47,4.81,5.53Z"/><text></text><text class="cls-2" transform="translate(250.95 43.54)"><tspan class="cls-3">D</tspan><tspan class="cls-4" x="26.08" y="0">A</tspan><tspan class="cls-5" x="47.48" y="0">T</tspan><tspan x="64.36" y="0">A HOLDERS</tspan><tspan x="33.78" y="70">A</tspan><tspan class="cls-6" x="58.26" y="70">R</tspan><tspan class="cls-7" x="80.14" y="70">TE</tspan><tspan class="cls-8" x="119.7" y="70">F</tspan><tspan class="cls-9" x="136.06" y="70">A</tspan><tspan class="cls-10" x="159.94" y="70">C</tspan><tspan class="cls-11" x="184.26" y="70">T</tspan><tspan x="203.9" y="70">S</tspan></text><line class="cls-12" x1="255.65" y1="65.41" x2="507.65" y2="65.41"/><g id="Artefacts"><circle class="cls-13" cx="173.82" cy="66.84" r="62.83"/><path class="cls-14" d="M170.46,88.61h-18.7c-6.15,0-12.3-.07-18.46,0-2.3,0-3.17-.91-3.17-3.1q0-24.17,0-48.34c0-3.16,1.95-3.31,4.28-3.31q23.58,0,47.16,0,15.67,0,31.35,0c4.08,0,4.6.54,4.61,4.55q0,22.85,0,45.7c0,4.1-.36,4.44-4.58,4.44-11.23,0-22.46,0-33.69,0-2.14,0-3.38.16-3.4,2.9s1.24,3.25,3.54,3.1a12.52,12.52,0,0,1,4.64.18,4,4,0,0,1,2.32,2.63c.17,1.35-.79,2.43-2.59,2.41-7-.07-14.06.07-21.09-.13-1,0-2.06-1.5-3.08-2.31,1-.92,1.76-2.27,2.89-2.65,1.41-.47,3.09-.15,4.65-.15,3.64,0,3.65,0,3.54-3.79C170.64,90.18,170.55,89.62,170.46,88.61ZM212.1,44.8c.82-5.57.82-5.57-4.74-5.57h-58c-3.81,0-7.62-.08-11.43.07-.82,0-2.27.87-2.29,1.39-.18,4.43-.11,8.86-.11,13.3a29.31,29.31,0,0,0,4.91-5.19c2.54-3.13,4.88-2.91,6.57.65,1.37,2.89,2.59,5.86,3.93,8.77,1.17,2.54,2.41,5.05,4,8.26,2.33-3.29,4.24-5.83,6-8.47,2.21-3.38,4.47-3.34,6.47.2,2.09,3.69,4.16,7.4,6.36,11,2,3.28,3.81,3.16,5.58-.24.13-.26.16-.57.29-.83,2.53-5.23,5-10.48,7.66-15.65.42-.81,1.65-1.82,2.36-1.72a4,4,0,0,1,2.55,2,27.65,27.65,0,0,1,1.49,5q2,7.5,4.06,15a7.87,7.87,0,0,0,2-3.56c2.05-7.55,4-15.13,6.13-22.66.38-1.33,1.33-3.08,2.41-3.44S210.69,44.13,212.1,44.8ZM163.86,62.7c-1.53,2.24-2.53,3.73-3.56,5.21s-2,3.07-3.18,4.51c-2.1,2.68-3.86,2.51-5.37-.5-1.77-3.55-3.44-7.15-5.19-10.71-1.11-2.26-2.28-4.48-3.67-7.18-1.93,2.5-3.3,4.5-4.9,6.28a9.6,9.6,0,0,0-2.61,7.4,109.38,109.38,0,0,1,0,12c-.14,2.74.6,3.7,3.53,3.68,17.47-.13,34.95-.06,52.42-.07,1,0,2.09-.1,3.81-.18l-6-22.27c-.49.78-.65,1-.78,1.26-1.95,3.77-3.85,7.57-5.86,11.32a5.7,5.7,0,0,1-2,2.4c-3.68,1.92-8.94.05-10.94-3.57C167.89,69.26,166,66.34,163.86,62.7Zm37.36,20.63c3.12,0,5.83-.11,8.54,0,2.11.11,2.63-.76,2.61-2.73-.09-7.51,0-15-.09-22.52a10.53,10.53,0,0,0-1.22-3.75c-.18-.4-.91-.91-1.23-.82a1.91,1.91,0,0,0-1,1.24C206.34,64.08,203.87,73.4,201.22,83.33Z"/></g></g></g></g></svg>