<svg xmlns="http://www.w3.org/2000/svg" width="180.44" height="180.44" viewBox="0 0 180.44 180.44"><defs><style>.cls-1{fill:#e862e8;}.cls-2{fill:none;stroke:#461a68;stroke-miterlimit:10;stroke-width:3.65px;}.cls-3{fill:#461a68;}</style></defs><title>Asset 69</title><g id="Layer_2" data-name="Layer 2"><g id="Data_Holder" data-name="Data Holder"><g id="Artefacts_uj"><circle class="cls-1" cx="90.22" cy="90.22" r="90.22"/><path class="cls-2" d="M77.18,15.42l21.69-.88a3.83,3.83,0,0,1,2.32.73,2.72,2.72,0,0,1,1.31,1.83l3.55,18.06a58,58,0,0,1,9.07,3.39q5.46-4.21,13.05-11.1a4.46,4.46,0,0,1,2.31-.91,3,3,0,0,1,2.26.73,123.59,123.59,0,0,1,10.89,9.25q7.26,6.7,7.35,8.92a4.21,4.21,0,0,1-.72,2.49l-10,13.91a53.45,53.45,0,0,1,4,8.88,140,140,0,0,1,18.29,2,3.43,3.43,0,0,1,3,3.41l.89,21.81a3.56,3.56,0,0,1-.78,2.38,3,3,0,0,1-2,1.25L145.77,105a51.69,51.69,0,0,1-3.28,8.94l11,13.41a3.17,3.17,0,0,1,.92,2.31,3.87,3.87,0,0,1-.84,2.5q-14.91,17.52-18.08,17.65a3.92,3.92,0,0,1-2.26-.73q-1.69-1.1-6.41-4.55t-7.38-5.22a59.85,59.85,0,0,1-9.45,4.49L107.9,161.7a2.9,2.9,0,0,1-1,2,3.49,3.49,0,0,1-2.25.91l-21.69.88a3.8,3.8,0,0,1-2.32-.73A2.73,2.73,0,0,1,79.29,163l-3.55-18.06a57.53,57.53,0,0,1-9.06-3.39q-5.47,4.22-13.06,11.1a4.47,4.47,0,0,1-2.31.91,3.42,3.42,0,0,1-2.38-.72,99.8,99.8,0,0,1-10.82-9.19q-7.21-6.75-7.3-9a4.28,4.28,0,0,1,.72-2.5l10-13.91a56.83,56.83,0,0,1-4.12-8.88,134.22,134.22,0,0,1-18.17-2,3.43,3.43,0,0,1-3-3.4l-.89-21.81a3.58,3.58,0,0,1,.79-2.38,3,3,0,0,1,2-1.26L36,75.11a51.3,51.3,0,0,1,3.28-8.94l-11-13.42a3.45,3.45,0,0,1-.92-2.31,3.9,3.9,0,0,1,.84-2.5Q43.14,30.43,46.31,30.3a4.36,4.36,0,0,1,2.26.73q1.93,1.33,6.53,4.67t7.25,5a80.45,80.45,0,0,1,9.46-4.37l2-17.94a3.43,3.43,0,0,1,1.15-2A3.5,3.5,0,0,1,77.18,15.42Z"/><path class="cls-3" d="M75.43,57.32A83.53,83.53,0,0,1,90.9,56a83.52,83.52,0,0,1,15.47,1.34A38.15,38.15,0,0,1,117.62,61q4.14,2.29,4.14,5v5q0,2.68-4.14,5a38.15,38.15,0,0,1-11.25,3.64A83.52,83.52,0,0,1,90.9,80.87a83.53,83.53,0,0,1-15.47-1.34,38.16,38.16,0,0,1-11.25-3.64Q60,73.6,60,70.92v-5q0-2.68,4.14-5A38.16,38.16,0,0,1,75.43,57.32ZM73.1,84.18a89.88,89.88,0,0,0,17.8,1.67,89.9,89.9,0,0,0,17.8-1.67q8.28-1.67,13.06-4.94v6.61q0,2.68-4.14,5a38.15,38.15,0,0,1-11.25,3.64A83.52,83.52,0,0,1,90.9,95.81a83.53,83.53,0,0,1-15.47-1.34,38.16,38.16,0,0,1-11.25-3.64Q60,88.53,60,85.85V79.24Q64.82,82.51,73.1,84.18Zm0,14.93a89.81,89.81,0,0,0,17.8,1.67,89.82,89.82,0,0,0,17.8-1.67q8.28-1.67,13.06-4.94v6.61q0,2.68-4.14,5a38.15,38.15,0,0,1-11.25,3.64,83.53,83.53,0,0,1-15.47,1.34,83.53,83.53,0,0,1-15.47-1.34,38.16,38.16,0,0,1-11.25-3.64q-4.14-2.29-4.14-5V94.17Q64.82,97.44,73.1,99.11Zm0,14.93a89.88,89.88,0,0,0,17.8,1.67A89.9,89.9,0,0,0,108.7,114q8.28-1.67,13.06-4.94v6.61q0,2.68-4.14,5a38.18,38.18,0,0,1-11.25,3.64,83.52,83.52,0,0,1-15.47,1.34,83.53,83.53,0,0,1-15.47-1.34,38.19,38.19,0,0,1-11.25-3.64q-4.14-2.3-4.14-5v-6.61Q64.82,112.37,73.1,114Z"/></g></g></g></svg>