<svg xmlns="http://www.w3.org/2000/svg" viewBox="0 0 305.67 265.65"><defs><style>.cls-1{fill:#fff;stroke:#000;stroke-miterlimit:10;stroke-width:2px;}</style></defs><title>Asset 14</title><g id="Layer_2" data-name="Layer 2"><g id="Layer_3" data-name="Layer 3"><path class="cls-1" d="M299.51,123.25c5.75-10.71,3.39-23.87-6.92-32.53a33.25,33.25,0,0,0-9.68-5.63,25.1,25.1,0,0,0,1.46-8.44c0-13-10-23.94-23.62-27.34C258.88,37,247.9,26.92,233.42,25c-6.6-8.8-18.58-14.06-31.36-12.67q-1.31.14-2.58.37-1-1-2.18-2c-10.72-9-26.69-10.34-39-4.14-11.91-7.65-28.7-7.46-40.46,1.26a29.53,29.53,0,0,0-7.51,8A36.38,36.38,0,0,0,100,13.37C87.1,12.26,75.23,17.83,68.9,26.85,55.36,29,45.13,38.29,42.72,49.64c-13,3.74-22.38,14.42-22.38,27a25.09,25.09,0,0,0,.26,3.63,33,33,0,0,0-3.51,2.27C7.33,89.79,3.68,101,6.6,111.15a25.52,25.52,0,0,0,.63,32.67c-5.81,10.73-3.47,23.93,6.88,32.62a33.05,33.05,0,0,0,8.5,5.16A25.2,25.2,0,0,0,20.35,192c0,13.34,10.53,24.53,24.74,27.6,2.58,11.49,13.16,20.74,26.94,22.63,6.59,8.87,18.61,14.18,31.45,12.79a37.34,37.34,0,0,0,3.71-.6q1,1.06,2.21,2.05c11,9.25,27.57,10.41,40,3.62,11.78,6.64,27.61,6.1,38.84-2.23a29.94,29.94,0,0,0,6.56-6.63,36.32,36.32,0,0,0,10.79,2.61c12.81,1.11,24.63-4.41,31-13.35,13.13-2.06,23.16-10.8,26-21.64,12.72-3.88,21.84-14.44,21.84-26.85a25,25,0,0,0-.66-5.72,33.26,33.26,0,0,0,5.26-3.19c9.89-7.33,13.51-18.7,10.4-29A25.44,25.44,0,0,0,299.51,123.25Z"/></g></g></svg>