<svg xmlns="http://www.w3.org/2000/svg" viewBox="0 0 180.44 180.44"><defs><style>.cls-1{fill:#42c6db;}.cls-2{fill:#461a68;}</style></defs><title>distributor</title><g id="Layer_2" data-name="Layer 2"><g id="Data_Holder" data-name="Data Holder"><g id="distributor"><circle class="cls-1" cx="90.22" cy="90.22" r="90.22"/><path class="cls-2" d="M115.14,73.65c7.61,3.63,15.63,6.22,22.19,10.87,11.69,8.28,18.23,20,18.22,34.8,0,4-1.26,5.73-5.47,5.58-6.88-.24-13.78.05-20.66-.11-3.05-.07-4,1-3.83,4,.28,5.67.13,5.69-5.48,5.69H30.56c-5.19,0-5.93-.49-5.6-5.53,1.1-16.39,9.75-31,25.77-38.8,4.64-2.25,9.8-3.42,14.58-5C63.1,82.35,60,79.37,58,75.79c-6-10.82-4-27.86,8-34.65,6.74-3.82,13.18-4.27,19.8.76,1.83-2.57,3.27-5.21,5.28-7.32,5.85-6.13,13.27-8.39,21-5.19,7.59,3.13,12.08,9.6,13.37,17.93C127.23,58.25,124,67.26,115.14,73.65Zm-40,55c13.2,0,26.39,0,39.59,0,3,0,4.35-.58,3.86-4.21-1.65-12.29-8.87-20.85-18.74-27-10.35-6.43-22.3-6.8-34-4.92a50.13,50.13,0,0,0-16.47,6.18c-9,5.15-14.61,13.14-16.89,23.5-1.42,6.46-1.75,6.41,4.75,6.41Q56.16,128.66,75.09,128.64Zm9.82-43.32c4.53,1.29,8.64,2,12.33,3.61,11.36,5.07,20.33,12.71,24.84,24.75,1.22,3.27,3.22,4.85,7.09,4.51,5.13-.44,10.32-.06,15.48-.14a34.41,34.41,0,0,0,4.37-.6C146.41,86.64,112.08,73.4,84.91,85.32ZM60.77,64.5c.85,2.18,1.75,6.36,3.95,9.69,5.76,8.75,16,8.2,21.61-.6A20.27,20.27,0,0,0,88.11,55c-3.51-9.54-12.87-12.83-20.49-7.22C62.93,51.27,61.19,56.74,60.77,64.5Zm44.68,5.89a47.76,47.76,0,0,0,5.4-2.07c10.68-5.6,11.44-22.11,3.19-30-4.63-4.45-9.94-5.08-15.09-1.94a12.6,12.6,0,0,0-5.2,15.42,33.92,33.92,0,0,1,2.11,9C96.37,67.61,98.54,69.91,105.45,70.39Z"/></g></g></g></svg>