<svg xmlns="http://www.w3.org/2000/svg" width="528.65" height="131.99" viewBox="0 0 528.65 131.99"><defs><style>.cls-1{fill:#2f48b2;}.cls-2{font-size:40px;fill:#fff;font-family:MyriadPro-Regular, Myriad Pro;}.cls-3{letter-spacing:-0.01em;}.cls-4{letter-spacing:-0.08em;}.cls-5{letter-spacing:-0.07em;}.cls-6{letter-spacing:0em;}.cls-7{fill:none;stroke:#fff;stroke-miterlimit:10;stroke-width:3px;}.cls-8{fill:#5bd31c;}.cls-9{fill:#461a68;}</style></defs><title>enviroment_nyil</title><g id="Layer_2" data-name="Layer 2"><g id="Data_Holder" data-name="Data Holder"><g id="enviroment_nyil"><path class="cls-1" d="M528.65,126.47c0,3.05-2.15,5.53-4.81,5.53H105.69a4.37,4.37,0,0,1-2.58-.86L2.24,70.55a6,6,0,0,1,0-9.34L103.12.85A4.37,4.37,0,0,1,105.69,0H523.84c2.66,0,4.81,2.47,4.81,5.53Z"/><text></text><text class="cls-2" transform="translate(250.95 43.54)"><tspan class="cls-3">D</tspan><tspan class="cls-4" x="26.08" y="0">A</tspan><tspan class="cls-5" x="47.48" y="0">T</tspan><tspan x="64.36" y="0">A HOLDERS</tspan><tspan x="16.14" y="70">ENVI</tspan><tspan class="cls-6" x="94.02" y="70">R</tspan><tspan x="115.66" y="70">OMENT</tspan></text><line class="cls-7" x1="255.65" y1="65.41" x2="507.65" y2="65.41"/><g id="Enviroment"><circle class="cls-8" cx="173.82" cy="66.47" r="62.5"/><path class="cls-9" d="M178.92,98.44c0,.29,0,1.21,0,2.12-.12,1.87.65,2.64,2.59,2.6s4.46-.45,4.39,2.38c-.06,2.62-2.49,2.42-4.43,2.41-3.6,0-7.2.06-10.8,0a5.32,5.32,0,0,1-2.77-.9,2,2,0,0,1,.64-3.62,6.3,6.3,0,0,1,1.36-.22c4.69-.48,4.69-.48,4.27-5-5-1.82-9.91-3.37-14.63-5.37-7.63-3.25-12.66-9.24-16.21-16.54A34.3,34.3,0,0,1,140,56.83c1.42-11.28,6.71-20.42,16.43-26.69.52-.34,1.4-.12,2.11-.16-.09,1.08.21,2.49-.36,3.18a57.86,57.86,0,0,1-4.57,4.25,30.84,30.84,0,0,0-9.53,18.85c-1.25,10.36,1.35,19.54,8.56,26.88,5.08,5.17,11.19,8.89,18.92,10a39.76,39.76,0,0,0,13-.55c3-.56,5.82-2.47,8.79-3.57,1.08-.4,3.17-.63,3.43-.18.91,1.64-.24,3.07-1.75,3.67C189.88,94.48,184.69,96.31,178.92,98.44Z"/><path class="cls-9" d="M147.84,60.72c-.38-17.34,13.64-28.09,27.18-28.9,16.76-1,30.42,13,30.46,28.74,0,15.11-12.64,28.5-27.65,29C161.23,90,147.4,77.09,147.84,60.72Zm28.87-24.24c-14.3-.67-25,11.38-24.68,24.07.31,14,9.34,24.32,24.46,24.55,14,.22,24.19-10,24.65-24.38C201.53,48.52,190.94,35.78,176.71,36.49Z"/></g></g></g></g></svg>