<svg xmlns="http://www.w3.org/2000/svg" viewBox="0 0 180.44 180.44"><defs><style>.cls-1{fill:#5bd31c;}.cls-2{fill:#461a68;}</style></defs><title>enviroment</title><g id="Layer_2" data-name="Layer 2"><g id="Data_Holder" data-name="Data Holder"><g id="Enviroment"><circle class="cls-1" cx="90.22" cy="90.22" r="90.22"/><path class="cls-2" d="M97.59,136.38c0,.42.07,1.75,0,3.06-.17,2.7.94,3.81,3.74,3.76s6.43-.65,6.34,3.44c-.09,3.78-3.59,3.49-6.39,3.48-5.2,0-10.4.08-15.59-.06a7.68,7.68,0,0,1-4-1.3,2.92,2.92,0,0,1,.93-5.23,9.09,9.09,0,0,1,2-.32c6.77-.69,6.77-.69,6.17-7.18-7.22-2.62-14.31-4.86-21.12-7.76-11-4.69-18.28-13.34-23.4-23.87a49.52,49.52,0,0,1-4.82-28.09c2-16.29,9.69-29.48,23.72-38.53.75-.49,2-.17,3-.23-.13,1.56.31,3.59-.51,4.59-1.88,2.3-4.46,4-6.6,6.13C53.4,55.77,48.6,64.59,47.29,75.47c-1.8,15,2,28.21,12.36,38.8C67,121.74,75.79,127.1,87,128.65a57.4,57.4,0,0,0,18.71-.79c4.39-.81,8.4-3.57,12.69-5.16,1.55-.57,4.58-.91,5-.25,1.32,2.37-.35,4.44-2.52,5.3C113.4,130.66,105.91,133.31,97.59,136.38Z"/><path class="cls-2" d="M52.72,81.93c-.55-25,19.69-40.55,39.23-41.72,24.2-1.45,43.91,18.81,44,41.49.06,21.81-18.25,41.14-39.91,41.79C72.05,124.21,52.08,105.56,52.72,81.93Zm41.67-35c-20.64-1-36,16.43-35.63,34.75.45,20.17,13.48,35.1,35.31,35.44,20.23.32,34.91-14.43,35.59-35.2C130.23,64.32,114.93,45.92,94.39,46.95Z"/></g></g></g></svg>