<svg xmlns="http://www.w3.org/2000/svg" width="180" height="180" viewBox="0 0 180 180"><defs><style>.cls-1{fill:#60d15d;}.cls-2{fill:#461a68;}</style></defs><title>Asset 67</title><g id="Layer_2" data-name="Layer 2"><g id="Data_Holder" data-name="Data Holder"><g id="socio_economic"><circle class="cls-1" cx="90" cy="90" r="90"/><path class="cls-2" d="M84.54,128.3H54.21c-10,0-20-.11-29.93.05-3.72.06-5.14-1.48-5.14-5q0-39.2,0-78.39c0-5.12,3.16-5.37,6.94-5.36q38.25,0,76.49,0,25.42,0,50.84,0c6.61,0,7.47.88,7.47,7.38q0,37.06,0,74.12c0,6.65-.59,7.2-7.43,7.21-18.21,0-36.43.06-54.64,0-3.47,0-5.48.26-5.52,4.7,0,4.62,2,5.28,5.73,5,2.52-.17,5.24-.47,7.53.29a6.42,6.42,0,0,1,3.76,4.26c.28,2.2-1.29,3.94-4.2,3.91-11.4-.11-22.81.12-34.2-.22-1.7-.05-3.34-2.44-5-3.75,1.55-1.49,2.86-3.68,4.69-4.29,2.29-.76,5-.24,7.54-.25,5.91,0,5.92,0,5.74-6.14C84.84,130.86,84.7,129.94,84.54,128.3Zm67.54-71.06c1.34-9,1.34-9-7.69-9H50.27c-6.18,0-12.37-.13-18.54.12-1.32.05-3.68,1.41-3.71,2.25-.3,7.18-.17,14.38-.17,21.57a47.53,47.53,0,0,0,8-8.42c4.12-5.07,7.91-4.73,10.65,1.05,2.23,4.69,4.2,9.5,6.38,14.22,1.9,4.13,3.91,8.2,6.41,13.4,3.78-5.34,6.88-9.45,9.69-13.74,3.59-5.48,7.26-5.41,10.5.33,3.38,6,6.75,12,10.31,17.88,3.21,5.32,6.19,5.13,9.05-.38.22-.42.26-.92.46-1.34,4.1-8.48,8.13-17,12.42-25.38.68-1.32,2.67-3,3.83-2.8a6.43,6.43,0,0,1,4.14,3.23c1.22,2.49,1.68,5.36,2.42,8.08q3.31,12.17,6.59,24.35a12.77,12.77,0,0,0,3.27-5.77c3.33-12.24,6.47-24.54,9.95-36.75.61-2.15,2.15-5,3.91-5.58C147.34,54,149.8,56.16,152.08,57.24Zm-78.23,29c-2.48,3.63-4.11,6.05-5.77,8.46s-3.32,5-5.16,7.32c-3.4,4.34-6.26,4.08-8.7-.81-2.88-5.75-5.59-11.59-8.42-17.36-1.8-3.66-3.7-7.26-5.95-11.65-3.13,4.06-5.35,7.29-7.95,10.19a15.57,15.57,0,0,0-4.24,12,177.4,177.4,0,0,1,0,19.46c-.23,4.44,1,6,5.72,6,28.34-.22,56.68-.1,85-.12,1.7,0,3.39-.16,6.19-.3l-9.79-36.12c-.79,1.27-1.06,1.64-1.27,2-3.16,6.12-6.25,12.28-9.5,18.35-.79,1.47-1.82,3.18-3.19,3.9-6,3.12-14.5.09-17.75-5.8C80.38,96.92,77.38,92.18,73.85,86.28Zm60.59,33.47c5.06,0,9.46-.18,13.85.06,3.43.19,4.27-1.24,4.24-4.43-.14-12.18,0-24.36-.15-36.53,0-2-1.12-4.13-2-6.08-.28-.66-1.48-1.48-2-1.33a3.1,3.1,0,0,0-1.57,2C142.75,88.53,138.73,103.64,134.44,119.74Z"/></g></g></g></svg>