<svg xmlns="http://www.w3.org/2000/svg" width="528.65" height="131.99" viewBox="0 0 528.65 131.99"><defs><style>.cls-1{fill:#5e5852;}.cls-2{font-size:40px;fill:#fff;font-family:MyriadPro-Regular, Myriad Pro;}.cls-3{letter-spacing:-0.01em;}.cls-4{letter-spacing:-0.08em;}.cls-5{letter-spacing:-0.07em;}.cls-6{letter-spacing:0em;}.cls-7{letter-spacing:0em;}.cls-8{fill:none;stroke:#fff;stroke-miterlimit:10;stroke-width:3px;}.cls-9{fill:#e2bb17;}.cls-10{fill:#461a68;}</style></defs><title>strategies_nyil</title><g id="Layer_2" data-name="Layer 2"><g id="Data_Holder" data-name="Data Holder"><g id="strategies_nyil"><path class="cls-1" d="M528.65,126.47c0,3.05-2.15,5.53-4.81,5.53H105.69a4.37,4.37,0,0,1-2.58-.86L2.24,70.55a6,6,0,0,1,0-9.34L103.12.85A4.37,4.37,0,0,1,105.69,0H523.84c2.66,0,4.81,2.47,4.81,5.53Z"/><text></text><text class="cls-2" transform="translate(250.95 43.54)"><tspan class="cls-3">D</tspan><tspan class="cls-4" x="26.08" y="0">A</tspan><tspan class="cls-5" x="47.48" y="0">T</tspan><tspan x="64.36" y="0">A HOLDERS</tspan><tspan x="30.16" y="70">ST</tspan><tspan class="cls-6" x="69.76" y="70">R</tspan><tspan class="cls-4" x="91.48" y="70">A</tspan><tspan class="cls-7" x="112.88" y="70">TEGIES</tspan></text><line class="cls-8" x1="255.65" y1="65.41" x2="507.65" y2="65.41"/><g id="Strastegies"><circle class="cls-9" cx="173.25" cy="66.04" r="62.5"/><path class="cls-10" d="M171.39,41.8c2.81,1.59,5.08,3,7.46,4.21,12.74,6.53,22.27,16.2,27.91,29.37,1.39,3.24,2.85,5.65,6,7.68,4,2.61,5.78,7.22,2.92,13-1.94,3.94-8.26,6.13-13,4.52-3.89-1.32-7.48-7-6.23-11.15.77-2.55,3.1-4.62,4.67-7,.5-.75,1.3-1.8,1.11-2.45-2.36-7.72-6.39-14.61-12.7-19.56-5.93-4.65-12.64-8.31-19-12.37-.38-.24-1-.14-1.68-.22a15.93,15.93,0,0,1,1.05,3.78c0,.93-.45,2.41-1.09,2.68-.89.37-2.67.22-3.18-.41a137.2,137.2,0,0,1-8.76-12.18c-.41-.65.88-3.41,1.8-3.66,4.52-1.24,9.17-2,13.79-2.86,2-.36,3.94.08,4.27,2.32C177,40,175.26,41,173,41.14A9.43,9.43,0,0,0,171.39,41.8Zm35.12,53.29c2.63,0,5-1.89,4.56-4.1s-1.71-4.11-4.52-4.06a4.32,4.32,0,0,0-4.38,4.13A4,4,0,0,0,206.52,95.09Z"/><path class="cls-10" d="M172.19,80.09a19,19,0,0,1-1.87,2.42,21.87,21.87,0,0,1-2.84,2.13c-2.09,1.47-1.92,2.86.07,4.27a23,23,0,0,1,3.33,2.52c1,1.07,2.18,2.6.38,3.78a4.58,4.58,0,0,1-3.77.47,26.07,26.07,0,0,1-5.21-3.7,2.91,2.91,0,0,0-4.28.08,22.28,22.28,0,0,1-5,3.51c-1.06.48-2.59-.06-3.91-.14.17-1.37-.08-3,.61-4a35.13,35.13,0,0,1,4.6-4.65c-1.57-1.51-3.42-2.84-4.59-4.61-.73-1.1-.43-2.89-.59-4.37,1.35-.05,2.84-.48,4-.06a9.39,9.39,0,0,1,3.61,2.66c2.46,2.76,4.65,2.26,7-.09a19.86,19.86,0,0,1,3.5-2.85A3.12,3.12,0,0,1,172.19,80.09Z"/><path class="cls-10" d="M140.87,41.07c2.08,1.66,4,2.77,5.28,4.38.81,1,.68,2.76,1,4.18-1.43.1-3.05.66-4.26.18a14.25,14.25,0,0,1-4.36-3.24c-2.08-2-3.84-1.75-5.77.17-1.21,1.21-2.45,2.63-4,3.2a4.93,4.93,0,0,1-4.06-.67c-.51-.38.08-2.47.47-3.69.19-.6,1-1,1.62-1.48,4-3.16,3.91-3.07,0-6.6-1.41-1.28-4.58-2.41-2-5.16a3.7,3.7,0,0,1,3.4-.65,24,24,0,0,1,5.15,3.78c1.55,1.39,2.85,1.53,4.49.14s3.53-2.44,5.16-3.81,3-1.06,3.77.44a3.92,3.92,0,0,1-.31,3.53A57.26,57.26,0,0,1,140.87,41.07Z"/><path class="cls-10" d="M206.82,46c-2.11-1.68-4-2.71-5.17-4.27-.89-1.17-.88-3-1.27-4.55,1.58,0,3.3-.38,4.71.12a11.93,11.93,0,0,1,3.78,2.9c1.74,1.67,3.35,2.07,5.27.23a16.2,16.2,0,0,1,4.34-3.29c1.15-.51,2.73-.06,4.12,0-.18,1.49.09,3.29-.66,4.39-1.21,1.77-3.11,3.07-4.72,4.57,1.61,1.5,3.47,2.81,4.73,4.56a4.73,4.73,0,0,1,.46,4c-.58,1.35-2.08,1.52-3.49.4s-3.23-2.09-4.66-3.34c-1.91-1.66-3.57-1.51-5.43.05-1.45,1.22-3.13,2.16-4.62,3.33s-3.17.8-3.71-.65a4.72,4.72,0,0,1,1-3.86A42.38,42.38,0,0,1,206.82,46Z"/></g></g></g></g></svg>