<svg xmlns="http://www.w3.org/2000/svg" viewBox="0 0 48.6 48.6"><defs><style>.cls-1{fill:#ebba55;}.cls-2{fill:#fff;stroke:#540268;stroke-miterlimit:10;}</style></defs><title>technological</title><g id="Layer_2" data-name="Layer 2"><g id="Home"><g id="Technological"><circle class="cls-1" cx="24.3" cy="24.3" r="24.3"/><path class="cls-2" d="M38.78,14.48A3.82,3.82,0,0,1,40,17.57a7.21,7.21,0,0,1-2.25,4.57,7.59,7.59,0,0,1-3.73,2,6.62,6.62,0,0,1-4.22-.32,1.08,1.08,0,0,0-1.48.21L14.17,39.16a3,3,0,0,1-2.29,1A3.36,3.36,0,0,1,8.54,36.8a3,3,0,0,1,1-2.29q14.55-13.64,15.12-14.2a1.38,1.38,0,0,0,.21-1.55Q23,14.55,26.54,10.89a6.79,6.79,0,0,1,4.57-2.25,3.82,3.82,0,0,1,3.09,1.27l-4,3.94.7,3.94,3.87.7Z"/></g></g></g></svg>