<!-- Generator: Adobe Illustrator 21.1.0, SVG Export Plug-In  -->
<svg version="1.1"
	 xmlns="http://www.w3.org/2000/svg" xmlns:xlink="http://www.w3.org/1999/xlink" xmlns:a="http://ns.adobe.com/AdobeSVGViewerExtensions/3.0/"
	 x="0px" y="0px" width="528px" height="97px" viewBox="0 0 528 97" style="enable-background:new 0 0 528 97;"
	 xml:space="preserve">
<style type="text/css">
	.st0{fill:#FDE9CC;}
	.st1{fill:#540268;}
</style>
<defs>
</defs>
<g>
	<path class="st0" d="M388,0c-82.7,33.3-165.3,33.3-248,0L0,97h528L388,0z"/>
	<g>
		<g>
			<path class="st1" d="M211,76.9c-3.2-0.5-4.7-0.8-7.9-1.4c-0.5,2.4-0.7,3.5-1.1,5.9c3.6,0.7,5.4,1,9,1.6c-0.2,1.2-0.3,1.8-0.5,3
				c-5.2-0.9-7.8-1.4-13-2.4c1.7-8,2.5-12,4.1-20c4.7,1,7.1,1.4,11.8,2.2c-0.2,1.2-0.3,1.8-0.5,3c-3.3-0.6-4.9-0.9-8.2-1.5
				c-0.4,2.1-0.6,3.1-1,5.2c3.1,0.6,4.7,0.9,7.8,1.4C211.3,75.1,211.2,75.7,211,76.9z"/>
			<path class="st1" d="M213.8,86.6c1.3-8.1,1.9-12.1,3.2-20.2c1.7,0.3,2.5,0.4,4.2,0.6c1.6,3.8,2.4,5.6,4.2,9.4
				c1.1,2.4,2.1,4.9,2.8,7.2c0,0,0,0,0.1,0c0.1-2.7,0.3-5.4,0.6-8.5c0.3-2.8,0.5-4.2,0.8-7.1c1.4,0.2,2.1,0.2,3.5,0.4
				c-0.9,8.1-1.3,12.2-2.2,20.3c-1.6-0.2-2.5-0.3-4.1-0.5c-1.8-3.8-2.7-5.7-4.5-9.6c-1-2.4-2.1-5.1-2.8-7.5c0,0-0.1,0-0.1,0
				c-0.2,2.6-0.6,5.3-1.1,8.6c-0.4,2.9-0.6,4.3-1.1,7.2C216,86.9,215.3,86.8,213.8,86.6z"/>
			<path class="st1" d="M240.4,83.9c-0.9,2.2-1.4,3.4-2.3,5.6c-1.6-0.1-2.5-0.2-4.1-0.4c3.6-7.8,5.3-11.8,8.6-19.7
				c1.9,0.1,2.9,0.2,4.8,0.3c2.1,8.3,3.3,12.5,5.8,20.7c-1.7-0.1-2.6-0.1-4.3-0.2c-0.7-2.4-1-3.5-1.6-5.9
				C244.5,84.2,243.1,84.1,240.4,83.9z M246.7,81.5c-0.5-2-0.8-3.1-1.3-5.1c-0.3-1.3-0.6-2.7-0.8-3.9c0,0,0,0-0.1,0
				c-0.4,1.2-0.8,2.6-1.3,3.7c-0.8,2-1.2,2.9-2,4.9C243.4,81.3,244.5,81.4,246.7,81.5z"/>
			<path class="st1" d="M256.8,70.5c1.2-0.2,3.4-0.3,5.5-0.3c2.8,0,4.5,0.5,5.9,1.4c1.2,0.8,2.2,2.1,2.2,3.8c0,1.9-1.2,3.6-3.5,4.4
				c0,0,0,0,0,0.1c2.2,0.6,4.3,2.2,4.3,5c0,1.8-0.8,3.2-2.1,4.2c-1.5,1.2-4.1,1.9-8.1,1.8c-2.2,0-3.9-0.2-4.9-0.4
				C256.4,82.5,256.5,78.5,256.8,70.5z M260.3,78.6c0.8,0,1.2,0,2,0c2.7,0,4.2-1.2,4.2-2.9c0-1.9-1.5-2.8-3.9-2.8
				c-1.1,0-1.8,0-2.2,0.1C260.4,75.3,260.4,76.4,260.3,78.6z M260.1,88c0.5,0.1,1.2,0.1,2.1,0.1c2.5,0,4.8-0.9,4.8-3.4
				c0-2.4-2.1-3.3-4.8-3.4c-0.8,0-1.2,0-1.9,0C260.2,84,260.2,85.4,260.1,88z"/>
			<path class="st1" d="M274.4,70.4c1.5,0,2.2,0,3.7-0.1c0.2,6.9,0.3,10.4,0.5,17.3c3.6-0.1,5.3-0.2,8.9-0.4
				c0.1,1.2,0.1,1.9,0.2,3.1c-5.2,0.3-7.8,0.4-12.9,0.5C274.6,82.6,274.5,78.5,274.4,70.4z"/>
			<path class="st1" d="M302,80.1c-3.2,0.3-4.8,0.5-8,0.7c0.2,2.4,0.3,3.6,0.5,6c3.6-0.3,5.5-0.4,9.1-0.8c0.1,1.2,0.2,1.8,0.3,3
				c-5.2,0.5-7.9,0.8-13.1,1.1c-0.5-8.1-0.8-12.2-1.3-20.4c4.8-0.3,7.2-0.5,11.9-1c0.1,1.2,0.2,1.8,0.3,3c-3.3,0.3-4.9,0.5-8.2,0.7
				c0.2,2.1,0.2,3.2,0.4,5.3c3.2-0.2,4.7-0.4,7.9-0.7C301.8,78.3,301.8,78.9,302,80.1z"/>
			<path class="st1" d="M305,68.6c1.4-0.4,3.4-0.8,5.6-1.1c2.9-0.4,5-0.2,6.5,0.7c1.3,0.8,2.1,2.1,2.4,3.8c0.4,2.6-1.1,4.7-3,5.6
				c0,0,0,0.1,0,0.1c1.6,0.3,2.7,1.6,3.5,3.5c1.1,2.4,2,4.7,2.6,5.4c-1.6,0.3-2.4,0.4-4.1,0.6c-0.4-0.6-1.2-2.1-2.1-4.6
				c-1-2.5-2.1-3.2-4.3-3c-0.8,0.1-1.2,0.2-1.9,0.2c0.4,3.3,0.6,5,1,8.3c-1.6,0.2-2.4,0.3-3.9,0.5C306.4,80.6,305.9,76.6,305,68.6z
				 M309.9,77.1c0.9-0.1,1.4-0.2,2.3-0.3c2.6-0.3,4-1.9,3.7-3.9c-0.3-2.2-2.1-3-4.5-2.7c-1.2,0.2-1.9,0.3-2.3,0.5
				C309.4,73.3,309.5,74.5,309.9,77.1z"/>
			<path class="st1" d="M324.8,82c1.4,0.5,3.4,0.7,5.4,0.4c2.5-0.5,3.7-1.8,3.4-3.5c-0.3-1.5-1.5-2.2-4.4-2.6
				c-3.7-0.6-6.2-2-6.6-4.9c-0.5-3.3,1.8-6.2,6.2-7.1c2.2-0.4,3.9-0.3,5.1,0.1c-0.1,1.2-0.2,1.9-0.3,3.1c-0.8-0.2-2.3-0.5-4.2-0.2
				c-2.4,0.4-3.2,1.9-3,3c0.3,1.5,1.6,2.1,4.6,2.6c3.8,0.6,6,2,6.6,4.9c0.7,3.2-1.4,6.6-6.9,7.6c-2.3,0.4-4.7,0.2-6-0.2
				C324.6,83.9,324.7,83.3,324.8,82z"/>
		</g>
	</g>
</g>
</svg>
