<!-- Generator: Adobe Illustrator 21.1.0, SVG Export Plug-In  -->
<svg version="1.1"
	 xmlns="http://www.w3.org/2000/svg" xmlns:xlink="http://www.w3.org/1999/xlink" xmlns:a="http://ns.adobe.com/AdobeSVGViewerExtensions/3.0/"
	 x="0px" y="0px" width="528px" height="97px" viewBox="0 0 528 97" style="enable-background:new 0 0 528 97;"
	 xml:space="preserve">
<style type="text/css">
	.st0{fill:#FDE9CC;}
	.st1{fill:#540268;}
</style>
<defs>
</defs>
<g>
	<path class="st0" d="M388,0c-82.7,33.3-165.3,33.3-248,0L0,97h528L388,0z"/>
	<g>
		<g>
			<path class="st1" d="M223.1,80.5c-2.5-0.4-3.8-0.7-6.3-1.1c-0.4,1.9-0.5,2.8-0.9,4.7c2.8,0.6,4.3,0.8,7.1,1.3
				c-0.2,1-0.2,1.4-0.4,2.4c-4.1-0.7-6.2-1.1-10.3-1.9c1.3-6.3,2-9.5,3.3-15.8c3.7,0.8,5.6,1.1,9.3,1.8c-0.2,1-0.2,1.4-0.4,2.4
				c-2.6-0.4-3.9-0.7-6.5-1.2c-0.3,1.6-0.5,2.5-0.8,4.1c2.5,0.5,3.7,0.7,6.2,1.1C223.4,79,223.3,79.5,223.1,80.5z"/>
			<path class="st1" d="M225.4,88.1c1-6.4,1.5-9.6,2.5-16c1.3,0.2,2,0.3,3.4,0.5c1.3,3,1.9,4.5,3.3,7.4c0.9,1.9,1.6,3.9,2.2,5.7
				c0,0,0,0,0.1,0c0-2.2,0.2-4.3,0.5-6.7c0.3-2.2,0.4-3.4,0.7-5.6c1.1,0.1,1.6,0.2,2.7,0.3c-0.7,6.4-1,9.7-1.7,16.1
				c-1.3-0.1-1.9-0.2-3.2-0.4c-1.5-3-2.2-4.6-3.5-7.6c-0.8-1.9-1.7-4-2.2-6c0,0,0,0-0.1,0c-0.2,2.1-0.5,4.2-0.9,6.8
				c-0.3,2.3-0.5,3.4-0.8,5.7C227.2,88.4,226.6,88.3,225.4,88.1z"/>
			<path class="st1" d="M246.5,86c-0.7,1.8-1.1,2.7-1.9,4.4c-1.3-0.1-1.9-0.2-3.2-0.3c2.8-6.2,4.2-9.4,6.8-15.6
				c1.5,0.1,2.3,0.2,3.8,0.3c1.7,6.6,2.6,9.9,4.6,16.4c-1.4-0.1-2-0.1-3.4-0.2c-0.5-1.9-0.8-2.8-1.3-4.7
				C249.7,86.3,248.6,86.2,246.5,86z M251.5,84.1c-0.4-1.6-0.6-2.4-1.1-4.1c-0.3-1-0.4-2.1-0.6-3.1c0,0,0,0,0,0c-0.3,0.9-0.6,2-1,3
				c-0.6,1.6-0.9,2.3-1.6,3.9C248.9,84,249.8,84,251.5,84.1z"/>
			<path class="st1" d="M259.5,75.4c0.9-0.2,2.7-0.3,4.3-0.2c2.2,0,3.6,0.4,4.7,1.1c1,0.6,1.7,1.6,1.7,3c0,1.5-0.9,2.9-2.8,3.5
				c0,0,0,0,0,0c1.8,0.4,3.4,1.8,3.4,4c0,1.4-0.7,2.6-1.6,3.3c-1.2,1-3.3,1.5-6.4,1.5c-1.7,0-3.1-0.2-3.9-0.3
				C259.2,84.9,259.3,81.7,259.5,75.4z M262.3,81.8c0.6,0,0.9,0,1.6,0c2.1,0,3.3-0.9,3.3-2.3c0-1.5-1.2-2.2-3.1-2.2
				c-0.9,0-1.4,0-1.7,0.1C262.4,79.2,262.3,80.1,262.3,81.8z M262.1,89.3c0.4,0.1,0.9,0.1,1.7,0.1c2,0,3.8-0.7,3.8-2.7
				c0-1.9-1.7-2.6-3.8-2.7c-0.6,0-0.9,0-1.5,0C262.2,86.1,262.2,87.2,262.1,89.3z"/>
			<path class="st1" d="M273.4,75.2c1.2,0,1.8,0,3-0.1c0.2,5.5,0.3,8.2,0.4,13.7c2.8-0.1,4.2-0.1,7-0.3c0.1,1,0.1,1.5,0.1,2.5
				c-4.1,0.2-6.2,0.3-10.3,0.4C273.6,85,273.5,81.7,273.4,75.2z"/>
			<path class="st1" d="M295.3,82.9c-2.5,0.3-3.8,0.4-6.3,0.6c0.1,1.9,0.2,2.8,0.4,4.7c2.9-0.2,4.3-0.4,7.2-0.6
				c0.1,1,0.1,1.4,0.2,2.4c-4.2,0.4-6.2,0.6-10.4,0.9c-0.4-6.5-0.6-9.7-1.1-16.1c3.8-0.2,5.7-0.4,9.4-0.8c0.1,1,0.1,1.4,0.2,2.4
				c-2.6,0.3-3.9,0.4-6.5,0.6c0.1,1.7,0.2,2.5,0.3,4.2c2.5-0.2,3.8-0.3,6.3-0.6C295.2,81.5,295.2,82,295.3,82.9z"/>
			<path class="st1" d="M297.7,73.9c1.1-0.3,2.7-0.7,4.4-0.9c2.3-0.3,4-0.2,5.2,0.6c1,0.6,1.7,1.6,1.9,3c0.3,2.1-0.9,3.7-2.4,4.5
				c0,0,0,0,0,0.1c1.3,0.3,2.1,1.3,2.8,2.7c0.8,1.9,1.6,3.7,2,4.2c-1.3,0.2-1.9,0.3-3.2,0.5c-0.3-0.4-0.9-1.7-1.7-3.6
				c-0.8-2-1.7-2.6-3.4-2.4c-0.6,0.1-0.9,0.1-1.5,0.2c0.3,2.6,0.5,4,0.8,6.6c-1.2,0.2-1.9,0.2-3.1,0.4
				C298.8,83.4,298.5,80.2,297.7,73.9z M301.6,80.6c0.7-0.1,1.1-0.1,1.8-0.2c2-0.3,3.2-1.5,2.9-3.1c-0.3-1.8-1.6-2.4-3.6-2.1
				c-0.9,0.1-1.5,0.3-1.8,0.4C301.2,77.6,301.3,78.6,301.6,80.6z"/>
			<path class="st1" d="M313.4,84.5c1.1,0.4,2.7,0.6,4.3,0.3c2-0.4,2.9-1.5,2.7-2.8c-0.2-1.2-1.2-1.7-3.5-2.1
				c-2.9-0.4-4.9-1.6-5.3-3.9c-0.4-2.6,1.4-4.9,4.9-5.6c1.7-0.3,3.1-0.2,4,0c-0.1,1-0.1,1.5-0.2,2.5c-0.6-0.2-1.9-0.4-3.4-0.1
				c-1.9,0.4-2.5,1.5-2.4,2.4c0.2,1.2,1.3,1.7,3.6,2c3,0.5,4.8,1.6,5.2,3.9c0.5,2.5-1.1,5.2-5.5,6c-1.8,0.3-3.8,0.2-4.8-0.2
				C313.3,86,313.3,85.5,313.4,84.5z"/>
		</g>
	</g>
</g>
</svg>
