<!-- Generator: Adobe Illustrator 21.1.0, SVG Export Plug-In  -->
<svg version="1.1"
	 xmlns="http://www.w3.org/2000/svg" xmlns:xlink="http://www.w3.org/1999/xlink" xmlns:a="http://ns.adobe.com/AdobeSVGViewerExtensions/3.0/"
	 x="0px" y="0px" width="528px" height="97px" viewBox="0 0 528 97" style="enable-background:new 0 0 528 97;"
	 xml:space="preserve">
<style type="text/css">
	.st0{fill:#FDE9CC;}
	.st1{fill:#540268;}
</style>
<defs>
</defs>
<g>
	<path class="st0" d="M388,0c-82.7,33.3-165.3,33.3-248,0L0,97h528L388,0z"/>
	<g>
		<g>
			<path class="st1" d="M439.3,55.8c-1.1-0.4-2.7-0.5-4.2-0.2c-1.9,0.4-2.8,1.5-2.6,2.8c0.2,1.2,1.2,1.8,3.5,2.1
				c2.9,0.4,5,1.5,5.5,3.8c0.6,2.7-1.3,5.2-5,5.9c-1.8,0.4-3.2,0.2-4.2,0c0.1-1,0.2-1.5,0.3-2.5c0.7,0.2,1.9,0.4,3.5,0.1
				c1.9-0.4,2.6-1.6,2.4-2.5c-0.3-1.3-1.4-1.7-3.7-2c-3.1-0.5-4.8-1.7-5.2-4c-0.5-2.6,1.1-5.3,5.3-6.1c1.7-0.4,3.6-0.2,4.7,0.1
				C439.4,54.2,439.4,54.7,439.3,55.8z"/>
			<path class="st1" d="M412.7,66.1c-0.9-5.5,1.9-9.2,6.4-10c4.7-0.8,8.3,2.1,9.2,6.9c1,5-1.6,9.2-6.4,10.1
				C417,73.9,413.5,70.8,412.7,66.1z M425.1,63.6c-0.6-3.3-2.8-5.7-5.7-5.1c-2.9,0.5-4.1,3.5-3.5,6.9c0.5,3.1,2.6,5.7,5.7,5.2
				C424.6,70,425.7,67,425.1,63.6z"/>
			<path class="st1" d="M396.8,60.6c0.7-0.5,2.2-1.1,4.2-1.4c5.3-0.8,9,1.9,9.9,6.9c0.9,5.4-2.4,9.3-7.6,10.2
				c-2,0.3-3.6,0.1-4.2-0.1c0.1-1,0.2-1.5,0.3-2.5c0.9,0.2,2,0.3,3.4,0.1c3.4-0.5,5.6-3.1,4.9-7c-0.6-3.6-3.1-5.6-6.8-5
				c-1.2,0.2-2.5,0.6-3.2,1.1C397.3,62,397.2,61.5,396.8,60.6z"/>
			<path class="st1" d="M393.6,77.4c-1-6.6-1.5-9.9-2.4-16.5c1.2-0.2,1.8-0.3,3-0.5c1,6.6,1.5,9.9,2.5,16.5
				C395.4,77.1,394.8,77.2,393.6,77.4z"/>
			<path class="st1" d="M374,71.9c-0.7-5.5,2.3-9.1,6.9-9.7c4.7-0.6,8.2,2.5,8.9,7.3c0.7,5.1-2,9.1-6.8,9.8
				C377.9,79.9,374.5,76.6,374,71.9z M386.5,69.9c-0.5-3.4-2.6-5.8-5.5-5.4c-2.9,0.4-4.3,3.3-3.8,6.8c0.4,3.1,2.4,5.9,5.5,5.4
				C385.7,76.3,386.9,73.3,386.5,69.9z"/>
			<path class="st1" d="M365.6,72c-0.1-0.8-0.1-1.3-0.2-2.1c2.5-0.3,3.8-0.4,6.3-0.8c0.1,0.8,0.2,1.3,0.3,2.1
				C369.4,71.6,368.1,71.7,365.6,72z"/>
			<path class="st1" d="M353.6,73c2.5-0.3,3.8-0.4,6.3-0.7c-0.2-1.9-0.3-2.9-0.5-4.9c-2.8,0.3-4.2,0.5-7,0.7c-0.1-1-0.1-1.5-0.2-2.5
				c4-0.4,6-0.6,10.1-1.1c0.7,6.6,1.1,9.9,1.9,16.5c-4,0.4-5.9,0.7-9.9,1.1c-0.1-1-0.2-1.5-0.3-2.5c2.7-0.3,4.1-0.4,6.8-0.7
				c-0.2-1.7-0.3-2.6-0.5-4.3c-2.5,0.3-3.8,0.4-6.4,0.7C353.7,74.5,353.7,74,353.6,73z"/>
			<path class="st1" d="M337.5,67.6c0.7-0.4,2.2-0.9,4.2-1.1c5.3-0.5,8.8,2.5,9.3,7.5c0.5,5.5-3,9.1-8.2,9.6c-2,0.2-3.5-0.1-4.2-0.4
				c0.2-1,0.3-1.5,0.5-2.5c0.8,0.3,2,0.5,3.4,0.4c3.5-0.3,5.7-2.7,5.4-6.6c-0.3-3.6-2.7-5.8-6.4-5.4c-1.2,0.1-2.5,0.5-3.3,0.9
				C337.9,69,337.8,68.5,337.5,67.6z"/>
			<path class="st1" d="M321.2,76.8c-0.4-5.6,2.8-9,7.5-9.3c4.7-0.3,8,3,8.4,7.9c0.4,5.1-2.6,9-7.4,9.3
				C324.7,85,321.5,81.5,321.2,76.8z M333.8,75.7c-0.3-3.4-2.2-5.9-5.1-5.7c-3,0.2-4.4,3-4.2,6.5c0.2,3.1,2,6,5.1,5.8
				C332.7,82,334.1,79.1,333.8,75.7z"/>
			<path class="st1" d="M318.1,68.5c0.4,6.6,0.6,10,1,16.6c-1.4,0.1-2.1,0.1-3.5,0.2c-1.9-2.8-2.9-4.1-4.8-6.9
				c-1.2-1.8-2.3-3.7-3.1-5.4c0,0,0,0-0.1,0c0.3,2.2,0.5,4.4,0.6,6.9c0.1,2.3,0.2,3.5,0.3,5.8c-1.2,0.1-1.7,0.1-2.9,0.1
				c-0.3-6.7-0.4-10-0.7-16.6c1.3-0.1,1.9-0.1,3.2-0.1c1.9,2.8,2.8,4.3,4.8,7.1c1.2,1.8,2.4,3.8,3.4,5.6c0,0,0,0,0.1,0
				c-0.2-2.1-0.4-4.3-0.6-7.1c-0.1-2.4-0.2-3.6-0.3-5.9C316.4,68.6,317,68.6,318.1,68.5z"/>
			<path class="st1" d="M286.6,78.3c-0.1-5.6,3.2-8.8,7.8-9c4.7-0.1,7.8,3.3,8,8.2c0.2,5.1-2.9,8.9-7.7,9
				C289.8,86.6,286.8,83,286.6,78.3z M299.3,77.7c-0.1-3.4-1.9-6-4.9-5.9c-3,0.1-4.6,2.9-4.5,6.3c0.1,3.1,1.8,6.1,4.9,6
				C297.8,83.9,299.4,81.1,299.3,77.7z"/>
			<path class="st1" d="M269.7,76.8c0.1,2.1,0.2,4.7,0.2,7c0,0,0,0,0.1,0c0.6-2,1.2-4.3,2-6.4c1-2.9,1.4-4.3,2.4-7.2
				c0.9,0,1.4,0,2.4,0c0.9,2.8,1.4,4.3,2.3,7.1c0.7,2.1,1.3,4.4,1.8,6.4c0,0,0,0,0.1,0c0-2.2,0.1-4.8,0.2-7.1c0.1-2.7,0.2-4,0.3-6.7
				c1.1,0,1.7,0,2.9-0.1c-0.3,6.7-0.5,10-0.8,16.7c-1.6,0-2.5,0-4.1,0.1c-0.9-2.7-1.4-4-2.3-6.7c-0.6-1.9-1.2-3.9-1.6-5.8
				c0,0,0,0-0.1,0c-0.4,1.8-1,3.9-1.6,5.8c-0.9,2.7-1.4,4-2.3,6.7c-1.6,0-2.4,0-4.1,0c-0.4-6.7-0.6-10-1-16.7c1.2,0,1.8,0,3,0
				C269.5,72.7,269.6,74.1,269.7,76.8z"/>
			<path class="st1" d="M260.1,86.6c0.1-6.7,0.1-10,0.1-16.6c1.2,0,1.8,0,3.1,0c0,6.7-0.1,10-0.1,16.7
				C262,86.6,261.3,86.6,260.1,86.6z"/>
			<path class="st1" d="M244.7,70.2c0.7-0.4,2.3-0.7,4.3-0.6c5.3,0.1,8.5,3.5,8.4,8.5c-0.1,5.5-4,8.8-9.2,8.6
				c-2.1,0-3.5-0.5-4.1-0.8c0.3-1,0.4-1.4,0.7-2.4c0.8,0.4,1.9,0.7,3.3,0.7c3.5,0.1,6-2,6.1-6c0.1-3.7-2.1-6-5.8-6.1
				c-1.2,0-2.5,0.2-3.4,0.5C245,71.6,244.9,71.1,244.7,70.2z"/>
			<path class="st1" d="M236.4,86.1c-3.9-0.1-5.9-0.2-9.8-0.4c0-1,0.1-1.5,0.1-2.5c2.7,0.1,4,0.2,6.7,0.3c0.1-1.8,0.1-2.8,0.2-4.6
				c-2.5-0.1-3.7-0.2-6.2-0.3c0-1,0.1-1.5,0.1-2.5c2.5,0.1,3.7,0.2,6.2,0.3c0.1-2.8,0.2-4.2,0.3-7.1c1.2,0,1.8,0.1,3.1,0.1
				C236.8,76.1,236.6,79.4,236.4,86.1z"/>
			<path class="st1" d="M223.5,85.3c-1.2,0.1-2.9,0.2-4.7,0.1c-2.5-0.1-4.1-0.6-5.2-1.6c-0.9-0.8-1.3-2-1.3-3.4
				c0.1-2.1,1.7-3.5,3.3-4c0,0,0,0,0-0.1c-1.2-0.5-1.8-1.7-2.1-3.4c-0.4-2.1-0.7-4.1-1-4.7c1.3,0.1,1.9,0.1,3.1,0.2
				c0.2,0.5,0.5,1.9,0.9,4c0.4,2.2,1.1,2.9,2.9,3.1c0.6,0,0.9,0.1,1.6,0.1c0.1-2.7,0.2-4.1,0.4-6.8c1.2,0.1,1.8,0.1,3,0.2
				C224,75.5,223.9,78.7,223.5,85.3z M220.8,77.8c-0.7,0-1.1-0.1-1.8-0.1c-2.1-0.1-3.5,0.9-3.6,2.5c-0.1,1.8,1.2,2.7,3.2,2.9
				c1,0.1,1.6,0,1.9,0C220.7,80.9,220.7,79.9,220.8,77.8z"/>
			<path class="st1" d="M206.4,72.5c0.7-1.8,1.1-2.8,1.8-4.6c1.3,0.1,1.9,0.1,3.1,0.2c-2.6,6.5-3.9,9.7-6.6,16.2
				c-1.6-0.1-2.4-0.2-4-0.3c-1.7-6.8-2.5-10.2-4.1-17c1.3,0.1,2,0.2,3.3,0.3c0.5,1.9,0.7,2.9,1.1,4.8
				C203.2,72.3,204.3,72.4,206.4,72.5z M201.4,74.4c0.4,1.7,0.6,2.5,1,4.2c0.2,1,0.4,2.2,0.6,3.2c0,0,0,0,0.1,0c0.3-0.9,0.7-2.1,1-3
				c0.6-1.6,1-2.4,1.6-4C204,74.6,203.1,74.6,201.4,74.4z"/>
			<path class="st1" d="M179.6,72.3c-0.1,2.1-0.3,4.7-0.5,7c0,0,0,0,0.1,0c0.8-2,1.7-4.1,2.7-6.1c1.3-2.8,1.9-4.2,3.1-6.9
				c0.9,0.1,1.4,0.1,2.4,0.2c0.6,2.9,0.9,4.4,1.6,7.3c0.5,2.2,0.8,4.5,1.1,6.6c0,0,0,0,0.1,0c0.3-2.2,0.6-4.8,0.9-7
				c0.4-2.7,0.6-4,1-6.6c1.1,0.1,1.7,0.2,2.8,0.3c-1,6.6-1.5,9.9-2.6,16.5c-1.6-0.1-2.5-0.2-4.1-0.4c-0.6-2.7-1-4.1-1.6-6.9
				c-0.4-2-0.8-4-1-5.9c0,0,0,0-0.1,0c-0.6,1.8-1.4,3.7-2.2,5.6c-1.2,2.6-1.8,3.8-3,6.4c-1.6-0.2-2.4-0.2-4-0.4
				c0.3-6.7,0.5-10,0.8-16.7c1.2,0.1,1.8,0.2,3,0.3C179.8,68.2,179.8,69.5,179.6,72.3z"/>
			<path class="st1" d="M163.7,71.1c2.5,0.3,3.8,0.5,6.3,0.8c0.2-1.9,0.3-2.9,0.6-4.9c-2.8-0.3-4.2-0.5-7-0.8c0.1-1,0.2-1.5,0.3-2.5
				c4,0.5,6,0.7,10.1,1.2c-0.7,6.6-1.1,9.9-1.8,16.5c-4-0.4-5.9-0.7-9.9-1.2c0.1-1,0.2-1.5,0.3-2.5c2.7,0.3,4.1,0.5,6.8,0.8
				c0.2-1.7,0.3-2.6,0.5-4.3c-2.5-0.3-3.8-0.4-6.3-0.8C163.5,72.5,163.6,72,163.7,71.1z"/>
			<path class="st1" d="M158.3,62.9c0.8,6.8,1.2,10.2,2,17c-1.3-0.2-2-0.2-3.3-0.4c-0.3-3.1-0.4-4.6-0.6-7.7
				c-0.2-2.1-0.3-4.2-0.3-5.9c0,0,0,0,0,0c-0.5,1.7-1.2,3.6-2,5.6c-1.1,2.9-1.7,4.3-2.8,7.2c-1.3-0.2-1.9-0.3-3.2-0.4
				c-0.2-3.1-0.4-4.7-0.6-7.8c-0.1-2-0.2-3.9-0.2-5.7c0,0,0,0,0,0c-0.6,1.8-1.2,3.6-2,5.5c-1.1,2.9-1.7,4.3-2.8,7.2
				c-1.3-0.2-1.9-0.3-3.1-0.5c2.8-6.3,4.2-9.5,6.9-15.8c1.3,0.2,2,0.3,3.3,0.5c0.3,3.2,0.4,4.8,0.6,8c0.2,1.9,0.2,3.6,0.2,5.4
				c0,0,0,0,0,0c0.5-1.7,1.1-3.3,1.8-5.1c1.2-3,1.8-4.5,3-7.5C156.4,62.7,157,62.8,158.3,62.9z"/>
			<path class="st1" d="M123.6,66.3c0.9-5.5,4.8-8.1,9.4-7.3c4.7,0.8,7.1,4.7,6.4,9.6c-0.8,5.1-4.6,8.1-9.3,7.4
				C125.1,75.1,122.8,71,123.6,66.3z M136.1,68.1c0.5-3.3-0.8-6.3-3.7-6.7c-2.9-0.5-5,1.9-5.6,5.4c-0.5,3.1,0.6,6.3,3.6,6.8
				C133.5,74,135.6,71.5,136.1,68.1z"/>
			<path class="st1" d="M119.6,73.7c-1.2,0-2.9-0.2-4.7-0.5c-2.4-0.4-4-1.1-5-2.3c-0.8-0.9-1.1-2.2-0.8-3.5c0.4-2.1,2.1-3.3,3.8-3.5
				c0,0,0,0,0-0.1c-1.1-0.7-1.6-1.9-1.7-3.6c-0.1-2.1-0.2-4.1-0.4-4.8c1.2,0.2,1.9,0.4,3.1,0.6c0.2,0.5,0.3,1.9,0.4,4.1
				c0.1,2.2,0.7,3.1,2.5,3.4c0.6,0.1,0.9,0.2,1.5,0.3c0.5-2.7,0.7-4,1.2-6.7c1.2,0.2,1.8,0.3,3,0.5
				C121.3,63.9,120.7,67.2,119.6,73.7z M117.8,65.9c-0.7-0.1-1.1-0.2-1.8-0.3c-2.1-0.4-3.5,0.5-3.8,2.1c-0.3,1.8,0.8,2.9,2.8,3.2
				c1,0.2,1.6,0.2,1.9,0.2C117.3,69,117.5,67.9,117.8,65.9z"/>
			<path class="st1" d="M105.3,71.3c-1.2-0.2-1.8-0.4-3-0.6c0.6-3,0.9-4.5,1.5-7.5c0,0,0,0-0.1,0c-0.5,0.6-1.1,1.1-1.6,1.5
				c-2.2,2-3.3,2.9-5.5,4.9c-1.5-0.3-2.3-0.5-3.8-0.8c2.9-2.3,4.3-3.5,7.2-5.8c-1.7-4.2-2.5-6.4-4.2-10.6c1.4,0.3,2.1,0.4,3.5,0.7
				c1.3,3.4,1.9,5.1,3.2,8.4c0.7-0.6,1.1-0.9,1.8-1.5c0.4-2.3,0.7-3.4,1.1-5.7c1.2,0.2,1.8,0.3,3,0.6
				C107.2,61.5,106.6,64.7,105.3,71.3z"/>
		</g>
	</g>
</g>
</svg>
