<!-- Generator: Adobe Illustrator 21.1.0, SVG Export Plug-In  -->
<svg version="1.1"
	 xmlns="http://www.w3.org/2000/svg" xmlns:xlink="http://www.w3.org/1999/xlink" xmlns:a="http://ns.adobe.com/AdobeSVGViewerExtensions/3.0/"
	 x="0px" y="0px" width="203px" height="651.3px" viewBox="0 0 203 651.3" style="enable-background:new 0 0 203 651.3;"
	 xml:space="preserve">
<style type="text/css">
	.st0{fill:#FDE9CC;}
	.st1{fill:#540268;}
</style>
<defs>
</defs>
<g>
	<path class="st0" d="M203,446.7L0,651.3V0l203,202.7C161.9,284.4,161.4,365.8,203,446.7z"/>
	<g>
		<g>
			<path class="st1" d="M39.2,405.2c0.5,1.9,0.7,2.8,1.2,4.7c-1,0.3-1.5,0.4-2.5,0.7c-1.3-5-1.9-7.5-3-12.6c1-0.2,1.5-0.3,2.6-0.6
				c0.4,1.9,0.6,2.9,1.1,4.8c5.7-1.3,8.5-2,14.1-3.3c0.3,1.2,0.4,1.7,0.7,2.9C47.7,403.1,44.8,403.8,39.2,405.2z"/>
			<path class="st1" d="M42,384.9c0.4,2.5,0.7,3.7,1.2,6.1c2-0.4,3-0.6,4.9-1c-0.5-2.7-0.8-4-1.3-6.8c1-0.2,1.5-0.3,2.5-0.5
				c0.7,3.8,1.1,5.8,1.9,9.6c-6.7,1.4-10.1,2.1-16.8,3.5c-0.8-3.9-1.2-5.8-1.9-9.7c1-0.2,1.5-0.3,2.5-0.5c0.5,2.7,0.7,4,1.3,6.6
				c1.7-0.3,2.6-0.5,4.3-0.9c-0.5-2.5-0.7-3.7-1.2-6.2C40.5,385.2,41,385.1,42,384.9z"/>
			<path class="st1" d="M46.6,368.9c0.5,0.6,1.1,2.1,1.3,4c0.7,5.1-2,8.7-7.2,9.6c-5.6,1-9.6-2.3-10.4-7.4c-0.3-2-0.1-3.5,0.2-4.2
				c1,0.1,1.5,0.2,2.6,0.3c-0.2,0.8-0.4,2-0.2,3.4c0.5,3.4,3.1,5.5,7.1,4.8c3.7-0.6,5.7-3.1,5.2-6.6c-0.2-1.2-0.6-2.4-1.1-3.1
				C45.2,369.4,45.7,369.2,46.6,368.9z"/>
			<path class="st1" d="M46.8,366.4c-6.8,0.9-10.2,1.3-17,2.2c-0.2-1.4-0.3-2.1-0.4-3.5c2.7-2.1,4.1-3.1,6.8-5.1
				c1.8-1.3,3.7-2.4,5.4-3.4c0,0,0,0,0,0c-2.3,0.4-4.5,0.7-7.1,0.9c-2.4,0.2-3.6,0.3-5.9,0.6c-0.1-1.1-0.2-1.7-0.3-2.9
				c6.8-0.6,10.2-0.9,17.1-1.5c0.1,1.2,0.2,1.8,0.3,3c-2.8,2-4.2,3-7.1,5c-1.8,1.3-3.7,2.6-5.5,3.6c0,0,0,0,0,0.1
				c2.2-0.4,4.4-0.7,7.2-1c2.4-0.3,3.7-0.4,6.1-0.7C46.6,364.7,46.7,365.3,46.8,366.4z"/>
			<path class="st1" d="M35.7,336.2c5.7-0.2,9.1,3,9.4,7.4c0.3,4.5-3.2,7.7-8.2,8.1c-5.2,0.4-9.2-2.6-9.5-7.3
				C27.1,339.4,30.8,336.4,35.7,336.2z M36.5,348.6c3.5-0.2,6.1-2.1,6-4.9c-0.2-2.9-3-4.4-6.6-4.2c-3.2,0.1-6.2,1.8-6.1,4.9
				C30,347.4,33,348.8,36.5,348.6z"/>
			<path class="st1" d="M27.2,333.8c0-1.2,0-1.9-0.1-3.1c5.8-0.1,8.7-0.1,14.5-0.2c0-2.7,0-4,0-6.7c1,0,1.6,0,2.6,0
				c0,3.8,0,5.7,0.1,9.6C37.5,333.6,34.1,333.7,27.2,333.8z"/>
			<path class="st1" d="M36,307.8c5.7,0.3,8.8,3.8,8.7,8.2c-0.1,4.5-3.8,7.4-8.9,7.3c-5.3,0-9-3.3-8.8-8.1
				C27.1,310.2,31.1,307.5,36,307.8z M35.8,320.1c3.5,0.1,6.3-1.6,6.4-4.4c0.1-2.9-2.6-4.6-6.2-4.8c-3.2-0.1-6.4,1.3-6.4,4.4
				C29.4,318.4,32.3,320.1,35.8,320.1z"/>
			<path class="st1" d="M45.1,292.8c0.3,1.1,0.7,3.1,0.5,5.3c-0.2,2.7-1.1,4.7-2.8,6.1c-1.5,1.3-3.9,2.1-6.4,1.9
				c-5.4-0.3-8.7-4.4-8.2-10c0.2-2.1,0.8-3.7,1.2-4.4c1,0.4,1.5,0.6,2.4,0.9c-0.5,0.9-0.9,2-1.1,3.7c-0.3,3.6,1.7,6.3,5.7,6.5
				c3.9,0.3,6.3-1.8,6.6-5.2c0.1-1.1,0-1.9-0.2-2.3c-1.7-0.2-2.6-0.2-4.3-0.4c-0.1,1.2-0.2,1.7-0.3,2.9c-1-0.1-1.5-0.1-2.5-0.2
				c0.2-2.3,0.3-3.5,0.5-5.8C40,292.2,41.7,292.4,45.1,292.8z"/>
			<path class="st1" d="M29.6,284.9c6.8,0.8,10.2,1.2,17,2.1c-0.1,1.2-0.2,1.8-0.3,2.9c-6.8-0.8-10.2-1.1-17-1.9
				C29.3,286.7,29.4,286.1,29.6,284.9z"/>
			<path class="st1" d="M48.2,272c0.3,0.8,0.4,2.3,0.1,4.2c-0.8,5.1-4.5,7.7-9.7,7.1c-5.6-0.7-8.5-5-7.7-10.2c0.3-2,1-3.4,1.4-4
				c0.9,0.4,1.4,0.7,2.3,1.1c-0.5,0.7-1,1.8-1.2,3.2c-0.5,3.4,1.3,6.2,5.4,6.7c3.7,0.5,6.4-1.2,6.9-4.8c0.2-1.2,0.1-2.5-0.1-3.3
				C46.7,272.1,47.2,272,48.2,272z"/>
			<path class="st1" d="M45,265.4c1.8,0.9,2.7,1.4,4.5,2.3c-0.2,1.2-0.3,1.8-0.5,3c-6.4-3.2-9.6-4.9-15.9-8.3
				c0.3-1.6,0.4-2.3,0.8-3.9c7.2-0.8,10.7-1.2,17.9-1.8c-0.3,1.2-0.4,1.9-0.7,3.1c-2,0.2-3,0.3-5.1,0.5
				C45.6,262.3,45.4,263.3,45,265.4z M43.5,260.3c-1.8,0.2-2.6,0.3-4.4,0.5c-1.1,0.1-2.3,0.2-3.3,0.2c0,0,0,0,0,0
				c0.9,0.4,2.1,0.9,3,1.4c1.6,0.8,2.3,1.2,3.9,2.1C43.1,262.8,43.2,262,43.5,260.3z"/>
			<path class="st1" d="M35.5,250.7c0.3-1.2,0.4-1.8,0.7-3c5.7,1.3,8.5,2,14.1,3.3c0.6-2.6,0.9-3.9,1.6-6.5c1,0.3,1.5,0.4,2.5,0.7
				c-1,3.7-1.4,5.6-2.3,9.4C45.5,253,42.1,252.2,35.5,250.7z"/>
			<path class="st1" d="M64.3,389.9c-0.7-3.5-1.1-5.3-1.7-8.8c1-0.2,1.5-0.3,2.5-0.5c0.4,2.4,0.7,3.6,1.1,6c1.9-0.4,2.8-0.6,4.6-0.9
				c-0.4-2.2-0.7-3.3-1.1-5.5c1-0.2,1.5-0.3,2.5-0.5c0.4,2.2,0.6,3.3,1,5.4c2.9-0.6,4.3-0.9,7.1-1.4c0.2,1.1,0.3,1.6,0.5,2.6
				C74.4,387.8,71.1,388.5,64.3,389.9z"/>
			<path class="st1" d="M62.4,378.3c-0.4-1-0.8-2.5-1-4.2c-0.3-2.2-0.2-3.8,0.6-4.9c0.7-0.9,1.8-1.6,3.2-1.8
				c2.2-0.3,3.9,0.8,4.6,2.1c0,0,0,0,0.1,0c0.3-1.1,1.4-1.9,3-2.5c2-0.8,4-1.4,4.6-1.8c0.1,1.1,0.2,1.6,0.4,2.7
				c-0.5,0.3-1.8,0.8-3.9,1.6c-2.1,0.7-2.8,1.6-2.6,3.1c0.1,0.5,0.1,0.8,0.2,1.4c2.8-0.5,4.2-0.7,7-1.1c0.2,1,0.3,1.6,0.4,2.6
				C72.4,376.6,69,377.2,62.4,378.3z M69.4,374.4c-0.1-0.6-0.2-1-0.3-1.6c-0.3-1.8-1.6-2.8-3.2-2.6c-1.9,0.3-2.5,1.6-2.3,3.4
				c0.1,0.9,0.3,1.4,0.4,1.7C66.2,374.9,67.2,374.7,69.4,374.4z"/>
			<path class="st1" d="M72,360.8c2,0.3,3,0.4,5,0.7c0.1,1.1,0.2,1.6,0.3,2.7c-7-1-10.6-1.5-17.6-2.7c-0.2-1.4-0.2-2.2-0.4-3.6
				c6.6-2.7,9.9-4,16.6-6.5c0.1,1.1,0.2,1.7,0.3,2.9c-1.9,0.7-2.8,1.1-4.7,1.8C71.7,357.9,71.8,358.9,72,360.8z M69.2,356.8
				c-1.6,0.6-2.4,1-4.1,1.6c-1,0.4-2.1,0.8-3.1,1.1c0,0,0,0,0,0c1,0.1,2.2,0.2,3.3,0.4c1.7,0.3,2.6,0.4,4.3,0.7
				C69.4,359.1,69.3,358.3,69.2,356.8z"/>
			<path class="st1" d="M68,337.4c-2.2,0.2-4.9,0.4-7.2,0.5c0,0,0,0,0,0.1c2.1,0.4,4.4,0.9,6.6,1.5c3,0.7,4.5,1.1,7.5,1.8
				c0,0.8,0.1,1.2,0.1,2.1c-2.9,1-4.3,1.4-7.2,2.4c-2.1,0.7-4.4,1.4-6.5,2c0,0,0,0,0,0c2.2-0.1,5-0.2,7.3-0.3
				c2.8-0.1,4.1-0.1,6.9-0.2c0.1,1,0.1,1.5,0.2,2.5c-6.9,0.2-10.3,0.3-17.2,0.4c-0.1-1.5-0.2-2.2-0.3-3.7c2.7-1,4-1.5,6.8-2.4
				c2-0.7,4-1.2,5.9-1.7c0,0,0,0,0-0.1c-1.9-0.3-4-0.7-6-1.2c-2.8-0.7-4.2-1.1-7-1.8c-0.1-1.5-0.1-2.2-0.1-3.7
				c6.8-0.6,10.3-0.9,17.1-1.4c0,1,0,1.6,0.1,2.6C72.2,337.1,70.8,337.2,68,337.4z"/>
			<path class="st1" d="M67.2,323.3c0,2.3,0,3.4,0,5.6c2,0,3,0,5-0.1c0-2.5,0-3.7,0-6.2c1,0,1.5,0,2.6,0c0,3.5,0,5.3,0,8.8
				c-6.9,0.1-10.3,0.2-17.1,0.3c-0.1-3.6-0.1-5.4,0-9c1,0,1.5,0,2.6,0c0,2.4,0,3.7,0,6.1c1.8,0,2.7,0,4.4,0c0-2.3,0-3.4,0-5.7
				C65.7,323.3,66.2,323.3,67.2,323.3z"/>
			<path class="st1" d="M74.9,317.8c-6.9,1.2-10.3,1.9-17.2,3.3c0-1.2,0-1.8,0.1-3c3.1-0.5,4.7-0.8,7.8-1.2c2.1-0.3,4.3-0.6,6-0.8
				c0,0,0,0,0,0c-1.8-0.3-3.8-0.8-6-1.3c-3.1-0.8-4.6-1.2-7.7-2c0-1.2,0.1-1.8,0.1-3c3.2-0.5,4.8-0.7,8-1.1c2.1-0.3,4-0.5,5.8-0.6
				c0,0,0,0,0,0c-1.9-0.4-3.8-0.8-5.9-1.4c-3.1-0.8-4.6-1.2-7.6-2.1c0.1-1.1,0.1-1.7,0.2-2.9c6.7,2.2,10.1,3.2,16.8,5.2
				c-0.1,1.1-0.1,1.7-0.2,2.9c-3.3,0.4-4.9,0.7-8.1,1.1c-2,0.3-3.6,0.5-5.5,0.6c0,0,0,0,0,0c1.8,0.4,3.5,0.7,5.4,1.2
				c3.2,0.8,4.8,1.2,8,2C74.9,316.1,74.9,316.7,74.9,317.8z"/>
			<path class="st1" d="M68.4,287.5c5.7,0.7,8.6,4.1,8.2,8.1c-0.4,4.1-4.3,6.4-9.3,6c-5.2-0.4-8.7-3.7-8.3-8
				C59.5,289,63.6,286.9,68.4,287.5z M67.5,298.7c3.5,0.3,6.4-0.9,6.6-3.5c0.3-2.6-2.3-4.4-5.9-4.8c-3.2-0.4-6.4,0.7-6.7,3.5
				C61.2,296.6,64,298.4,67.5,298.7z"/>
			<path class="st1" d="M60.7,284c-0.1-1.1,0-2.7,0.2-4.3c0.3-2.2,1-3.6,2.1-4.5c0.9-0.7,2.2-1,3.6-0.7c2.2,0.4,3.4,1.9,3.8,3.4
				c0,0,0,0,0.1,0c0.6-1,1.9-1.4,3.6-1.5c2.2-0.1,4.2-0.2,4.9-0.3c-0.2,1.1-0.3,1.6-0.5,2.7c-0.5,0.1-2,0.3-4.1,0.3
				c-2.3,0.1-3.1,0.7-3.4,2.2c-0.1,0.5-0.1,0.8-0.2,1.4c2.8,0.4,4.2,0.6,7,1c-0.2,1-0.2,1.6-0.4,2.6C70.7,285.4,67.4,285,60.7,284z
				 M68.6,282.4c0.1-0.6,0.1-1,0.2-1.6c0.3-1.8-0.6-3.2-2.3-3.4c-1.9-0.3-2.9,0.7-3.2,2.5c-0.1,0.9-0.1,1.5-0.1,1.7
				C65.3,281.9,66.4,282,68.6,282.4z"/>
			<path class="st1" d="M62.5,271.1c0.2-1.1,0.3-1.7,0.5-2.8c3.1,0.6,4.6,0.9,7.7,1.5c0,0,0,0,0-0.1c-0.6-0.5-1.1-1-1.6-1.4
				c-2.1-2-3.1-3-5.1-5.1c0.3-1.4,0.4-2.1,0.7-3.4c2.4,2.7,3.6,4,6.1,6.7c4.3-1.4,6.4-2.1,10.8-3.3c-0.3,1.2-0.4,1.8-0.7,3.1
				c-3.4,1-5.1,1.5-8.5,2.6c0.6,0.7,0.9,1,1.5,1.7c2.4,0.4,3.6,0.7,5.9,1.1c-0.2,1-0.3,1.6-0.5,2.6
				C72.6,272.9,69.2,272.3,62.5,271.1z"/>
		</g>
	</g>
</g>
</svg>
