<!-- Generator: Adobe Illustrator 21.1.0, SVG Export Plug-In  -->
<svg version="1.1"
	 xmlns="http://www.w3.org/2000/svg" xmlns:xlink="http://www.w3.org/1999/xlink" xmlns:a="http://ns.adobe.com/AdobeSVGViewerExtensions/3.0/"
	 x="0px" y="0px" width="243px" height="651.3px" viewBox="0 0 243 651.3" style="enable-background:new 0 0 243 651.3;"
	 xml:space="preserve">
<style type="text/css">
	.st0{fill:#FDE9CC;}
	.st1{fill:#540268;}
</style>
<defs>
</defs>
<g>
	<path class="st0" d="M243,446.7L40,651.3V0l203,202.7C201.9,284.4,201.4,365.8,243,446.7z"/>
	<g>
		<g>
			<path class="st1" d="M79.3,405.6c0.4,1.7,0.6,2.6,1.1,4.3c-1,0.3-1.5,0.4-2.5,0.7c-1.2-4.6-1.7-6.8-2.7-11.4
				c1-0.2,1.5-0.3,2.6-0.6c0.4,1.7,0.6,2.6,1,4.3c5.7-1.3,8.5-2,14.1-3.3c0.2,1,0.4,1.6,0.6,2.6C87.8,403.5,84.9,404.2,79.3,405.6z"
				/>
			<path class="st1" d="M82.4,387c0.4,2.2,0.6,3.3,1.1,5.6c2-0.4,3-0.6,4.9-1c-0.5-2.5-0.7-3.7-1.2-6.1c1-0.2,1.5-0.3,2.5-0.5
				c0.7,3.5,1,5.2,1.7,8.7c-6.7,1.4-10.1,2.2-16.8,3.6c-0.8-3.5-1.1-5.3-1.8-8.9c1-0.2,1.5-0.3,2.5-0.5c0.5,2.4,0.7,3.6,1.2,6
				c1.7-0.4,2.6-0.5,4.3-0.9c-0.5-2.2-0.7-3.4-1.1-5.6C80.9,387.3,81.4,387.2,82.4,387z"/>
			<path class="st1" d="M87.1,372.3c0.5,0.6,1,1.9,1.3,3.6c0.7,4.6-2.1,8-7.2,8.9c-5.6,1-9.6-1.9-10.3-6.6c-0.3-1.8-0.1-3.2,0.2-3.8
				c1,0.1,1.5,0.2,2.6,0.3c-0.2,0.8-0.4,1.8-0.2,3.1c0.5,3.1,3,4.9,7.1,4.2c3.7-0.6,5.8-2.9,5.3-6.1c-0.2-1.1-0.6-2.2-1.1-2.8
				C85.7,372.8,86.2,372.6,87.1,372.3z"/>
			<path class="st1" d="M69.9,369.5c2.7-0.4,4.1-0.5,6.8-0.9c-0.3-2.5-0.5-3.8-0.8-6.4c-2.7,0.3-4.1,0.5-6.8,0.8
				c-0.1-1.1-0.2-1.7-0.3-2.8c6.8-0.7,10.2-1,17.1-1.7c0.1,1.1,0.2,1.6,0.3,2.7c-3,0.3-4.5,0.5-7.5,0.8c0.3,2.5,0.4,3.8,0.8,6.3
				c3-0.4,4.5-0.6,7.5-1c0.1,1.1,0.2,1.6,0.4,2.7c-6.8,0.9-10.2,1.4-17,2.3C70.2,371.2,70.1,370.6,69.9,369.5z"/>
			<path class="st1" d="M85.6,355.4c-6.8,0.6-10.2,0.9-17.1,1.6c-0.1-1.3-0.2-1.9-0.3-3.2c2.8-1.8,4.2-2.7,7-4.5
				c1.8-1.1,3.8-2.1,5.6-2.9c0,0,0,0,0,0c-2.3,0.3-4.5,0.5-7.1,0.7c-2.4,0.2-3.6,0.2-6,0.4c-0.1-1-0.1-1.6-0.2-2.6
				c6.8-0.4,10.3-0.6,17.1-1c0.1,1.1,0.1,1.7,0.2,2.8c-2.9,1.7-4.4,2.6-7.2,4.4c-1.8,1.1-3.8,2.3-5.7,3.2c0,0,0,0,0,0.1
				c2.2-0.3,4.4-0.5,7.3-0.8c2.4-0.2,3.7-0.3,6.1-0.5C85.5,353.9,85.5,354.4,85.6,355.4z"/>
			<path class="st1" d="M75.5,327.8c5.7,0,9,2.9,9.1,7c0.1,4.1-3.4,6.9-8.5,7.2c-5.3,0.3-9.1-2.5-9.2-6.9
				C66.8,330.5,70.6,327.8,75.5,327.8z M76,339c3.5-0.1,6.2-1.8,6.1-4.3c-0.1-2.6-2.9-4-6.5-4c-3.2,0-6.3,1.5-6.2,4.3
				C69.6,337.8,72.5,339.1,76,339z"/>
			<path class="st1" d="M67.1,325.4c0-1.1,0-1.7,0-2.8c5.8,0.1,8.7,0.1,14.5,0.1c0-2.4,0-3.6,0.1-6.1c1,0,1.6,0,2.6,0.1
				c-0.1,3.5-0.1,5.2-0.1,8.7C77.4,325.4,74,325.4,67.1,325.4z"/>
			<path class="st1" d="M76.4,301.9c5.7,0.4,8.8,3.6,8.6,7.7c-0.2,4.1-4,6.6-9,6.5c-5.3-0.2-8.9-3.2-8.7-7.6
				C67.5,303.9,71.5,301.6,76.4,301.9z M76,313.1c3.5,0.1,6.3-1.3,6.4-3.9c0.1-2.6-2.6-4.2-6.1-4.5c-3.2-0.2-6.4,1-6.5,3.8
				C69.6,311.4,72.5,313,76,313.1z"/>
			<path class="st1" d="M85.6,288.4c0.3,1,0.6,2.9,0.5,4.8c-0.2,2.5-1.1,4.3-2.8,5.5c-1.6,1.2-3.9,1.8-6.5,1.6
				c-5.4-0.4-8.6-4.2-8.1-9.3c0.2-1.9,0.8-3.3,1.2-4c1,0.4,1.5,0.5,2.4,0.9c-0.5,0.8-0.9,1.8-1.1,3.4c-0.3,3.3,1.6,5.7,5.6,6.1
				c3.9,0.3,6.3-1.5,6.7-4.6c0.1-1,0-1.7-0.1-2.1c-1.7-0.2-2.5-0.3-4.2-0.5c-0.1,1.1-0.2,1.6-0.3,2.6c-1-0.1-1.5-0.1-2.5-0.2
				c0.2-2.1,0.3-3.2,0.6-5.3C80.4,287.8,82.2,288,85.6,288.4z"/>
			<path class="st1" d="M70.1,280.9c6.8,0.9,10.2,1.4,17,2.3c-0.1,1.1-0.2,1.6-0.3,2.7c-6.8-0.8-10.2-1.3-17-2.1
				C69.8,282.6,69.9,282,70.1,280.9z"/>
			<path class="st1" d="M88.6,269.6c0.3,0.7,0.4,2.1,0.1,3.9c-0.8,4.6-4.5,6.9-9.7,6.2c-5.6-0.8-8.5-4.8-7.7-9.4
				c0.3-1.8,1-3.1,1.4-3.6c0.9,0.4,1.4,0.6,2.3,1c-0.5,0.7-0.9,1.6-1.2,2.9c-0.5,3.1,1.3,5.6,5.4,6.2c3.7,0.6,6.4-1,6.9-4.2
				c0.2-1.1,0.1-2.3-0.1-3C87.1,269.6,87.6,269.6,88.6,269.6z"/>
			<path class="st1" d="M85.3,263.4c1.8,0.9,2.7,1.3,4.5,2.2c-0.2,1.1-0.3,1.6-0.5,2.7c-6.4-3.1-9.6-4.7-16-7.9
				c0.3-1.4,0.4-2.1,0.7-3.5c7.1-0.6,10.7-0.8,17.8-1.2c-0.3,1.1-0.4,1.7-0.6,2.8c-2,0.1-3,0.2-5,0.3
				C85.9,260.6,85.7,261.6,85.3,263.4z M83.9,258.7c-1.7,0.1-2.6,0.2-4.4,0.3c-1.1,0.1-2.3,0.1-3.3,0.1c0,0,0,0,0,0
				c0.9,0.4,2.1,0.9,3,1.3c1.6,0.8,2.3,1.2,3.9,2C83.4,261,83.5,260.3,83.9,258.7z"/>
			<path class="st1" d="M75.7,249.8c0.3-1.1,0.4-1.7,0.6-2.8c5.7,1.3,8.5,2,14.1,3.3c0.6-2.4,0.9-3.6,1.5-5.9c1,0.3,1.5,0.4,2.5,0.7
				c-0.9,3.4-1.3,5.1-2.1,8.5C85.7,252.1,82.3,251.3,75.7,249.8z"/>
			<path class="st1" d="M103.2,384.2c-0.6-3.2-0.9-4.8-1.4-8c1-0.2,1.5-0.3,2.5-0.4c0.4,2.2,0.5,3.3,0.9,5.4
				c1.9-0.3,2.8-0.5,4.7-0.9c-0.4-2-0.5-3-0.9-5c1-0.2,1.5-0.3,2.5-0.4c0.3,2,0.5,3,0.9,5c2.9-0.5,4.3-0.8,7.2-1.3
				c0.2,1,0.3,1.4,0.4,2.4C113.3,382.2,109.9,382.9,103.2,384.2z"/>
			<path class="st1" d="M101.6,373.6c-0.3-0.9-0.7-2.3-0.9-3.8c-0.3-2-0.1-3.4,0.8-4.5c0.7-0.9,1.8-1.4,3.3-1.6
				c2.2-0.3,3.8,0.7,4.6,1.9c0,0,0,0,0.1,0c0.3-1,1.4-1.8,3-2.3c2.1-0.7,4-1.3,4.6-1.6c0.1,1,0.2,1.5,0.3,2.5
				c-0.5,0.3-1.8,0.8-3.9,1.4c-2.2,0.7-2.8,1.4-2.6,2.8c0.1,0.5,0.1,0.7,0.2,1.2c2.8-0.4,4.2-0.6,7-1c0.1,1,0.2,1.4,0.4,2.4
				C111.6,372.1,108.3,372.6,101.6,373.6z M108.7,370c-0.1-0.6-0.1-0.9-0.2-1.5c-0.2-1.7-1.5-2.6-3.2-2.4c-1.9,0.2-2.6,1.4-2.3,3.1
				c0.1,0.8,0.3,1.3,0.4,1.5C105.5,370.5,106.6,370.3,108.7,370z"/>
			<path class="st1" d="M111.6,357.6c2,0.3,3,0.4,5,0.6c0.1,1,0.2,1.5,0.3,2.5c-7-0.9-10.5-1.4-17.5-2.4c-0.1-1.3-0.2-2-0.3-3.3
				c6.7-2.5,10-3.7,16.7-5.9c0.1,1,0.1,1.6,0.2,2.6c-1.9,0.7-2.8,1-4.7,1.6C111.4,355,111.4,355.9,111.6,357.6z M108.9,354
				c-1.6,0.6-2.5,0.9-4.1,1.5c-1,0.4-2.2,0.7-3.1,1c0,0,0,0,0,0c1,0.1,2.2,0.2,3.3,0.3c1.7,0.3,2.6,0.4,4.3,0.6
				C109.1,356.1,109,355.4,108.9,354z"/>
			<path class="st1" d="M108,336.3c-2.2,0.2-4.9,0.4-7.2,0.4c0,0,0,0,0,0.1c2.1,0.4,4.4,0.9,6.6,1.4c3,0.7,4.5,1,7.5,1.6
				c0,0.7,0.1,1.1,0.1,1.9c-2.9,0.9-4.3,1.3-7.2,2.2c-2.2,0.7-4.5,1.3-6.6,1.8c0,0,0,0,0,0c2.2-0.1,5-0.2,7.3-0.2
				c2.8-0.1,4.1-0.1,6.9-0.2c0.1,0.9,0.1,1.4,0.2,2.3c-6.9,0.2-10.3,0.2-17.2,0.3c-0.1-1.3-0.1-2-0.2-3.4c2.7-0.9,4.1-1.3,6.8-2.2
				c2-0.6,4-1.1,5.9-1.6c0,0,0,0,0-0.1c-1.9-0.3-4-0.6-6-1.1c-2.8-0.6-4.2-1-6.9-1.6c-0.1-1.3-0.1-2-0.1-3.3
				c6.8-0.5,10.3-0.8,17.1-1.3c0,0.9,0,1.4,0.1,2.4C112.2,336,110.8,336.1,108,336.3z"/>
			<path class="st1" d="M107.2,323.5c0,2.1,0,3.1,0,5.1c2,0,3,0,5,0c0-2.3,0-3.4,0-5.6c1,0,1.5,0,2.6,0c0,3.2,0,4.8,0,8
				c-6.9,0.1-10.3,0.2-17.1,0.3c-0.1-3.3-0.1-4.9,0-8.2c1,0,1.5,0,2.6,0c0,2.2,0,3.3,0,5.6c1.8,0,2.7,0,4.4,0c0-2.1,0-3.1,0-5.2
				C105.6,323.5,106.2,323.5,107.2,323.5z"/>
			<path class="st1" d="M114.9,318.5c-6.9,1.1-10.3,1.7-17.2,3c0-1.1,0-1.6,0-2.7c3.1-0.5,4.7-0.7,7.8-1.1c2.1-0.3,4.3-0.6,6-0.7
				c0,0,0,0,0,0c-1.8-0.3-3.8-0.7-6-1.2c-3.1-0.7-4.6-1.1-7.7-1.8c0-1.1,0.1-1.6,0.1-2.7c3.2-0.4,4.8-0.6,7.9-1c2-0.2,4-0.4,5.8-0.5
				c0,0,0,0,0,0c-1.9-0.3-3.8-0.8-5.9-1.3c-3.1-0.7-4.6-1.1-7.7-1.9c0.1-1,0.1-1.6,0.2-2.6c6.7,2,10.1,2.9,16.9,4.8
				c-0.1,1-0.1,1.6-0.1,2.6c-3.2,0.4-4.9,0.6-8.1,1c-2,0.3-3.6,0.4-5.5,0.5c0,0,0,0,0,0c1.8,0.3,3.5,0.7,5.4,1.1
				c3.2,0.8,4.8,1.1,8,1.8C114.9,317,114.9,317.5,114.9,318.5z"/>
			<path class="st1" d="M108,290.9c5.7,0.7,8.6,3.7,8.3,7.4c-0.3,3.7-4.2,5.8-9.2,5.5c-5.3-0.4-8.8-3.4-8.4-7.3
				C99.1,292.3,103.2,290.4,108,290.9z M107.3,301.1c3.5,0.3,6.3-0.9,6.6-3.2c0.2-2.4-2.4-4-6-4.4c-3.2-0.3-6.4,0.6-6.6,3.2
				C101,299.2,103.8,300.8,107.3,301.1z"/>
			<path class="st1" d="M100.2,287.8c-0.1-1-0.1-2.4,0.1-3.9c0.3-2,0.9-3.3,2-4.1c0.9-0.6,2.1-0.9,3.6-0.7c2.2,0.3,3.5,1.8,3.9,3.1
				c0,0,0,0,0.1,0c0.6-0.9,1.9-1.3,3.5-1.4c2.2-0.1,4.2-0.1,4.9-0.3c-0.2,1-0.2,1.5-0.4,2.5c-0.5,0.1-2,0.2-4.1,0.3
				c-2.3,0.1-3.1,0.6-3.3,2c-0.1,0.5-0.1,0.7-0.2,1.2c2.8,0.4,4.2,0.6,7,0.9c-0.1,1-0.2,1.4-0.3,2.4
				C110.3,289,106.9,288.6,100.2,287.8z M108,286.2c0.1-0.6,0.1-0.9,0.2-1.5c0.2-1.7-0.7-2.9-2.4-3.1c-1.9-0.3-2.9,0.7-3.1,2.3
				c-0.1,0.8-0.1,1.3-0.1,1.6C104.8,285.8,105.9,286,108,286.2z"/>
			<path class="st1" d="M101.6,276c0.2-1,0.2-1.5,0.4-2.5c3.1,0.5,4.7,0.8,7.8,1.3c0,0,0,0,0-0.1c-0.6-0.4-1.1-0.9-1.7-1.3
				c-2.1-1.8-3.2-2.8-5.3-4.7c0.2-1.3,0.4-1.9,0.6-3.1c2.5,2.5,3.7,3.7,6.3,6.1c4.2-1.3,6.4-1.9,10.6-3.1c-0.2,1.1-0.3,1.7-0.5,2.8
				c-3.4,0.9-5.1,1.4-8.4,2.4c0.6,0.6,1,0.9,1.6,1.5c2.4,0.4,3.6,0.6,5.9,1c-0.2,1-0.2,1.4-0.4,2.4
				C111.8,277.6,108.4,277.1,101.6,276z"/>
		</g>
	</g>
</g>
</svg>
