<svg xmlns="http://www.w3.org/2000/svg" viewBox="0 0 48.67 48.67"><defs><style>.cls-1{fill:#52b6e2;}.cls-2{fill:#fff;stroke:#540268;stroke-miterlimit:10;}.cls-3,.cls-4{fill:#540268;}.cls-4{font-size:6.78px;font-family:MyriadPro-Regular, Myriad Pro;}</style></defs><title>Asset 7</title><g id="Layer_2" data-name="Layer 2"><g id="Home"><g id="Emberke"><circle class="cls-1" cx="24.33" cy="24.33" r="24.33"/><path class="cls-2" d="M29.63,42v-.17q0-3.38,0-6.76a.53.53,0,0,0-.31-.54.51.51,0,0,0-.72.33,2,2,0,0,0,0,.4q0,3.29,0,6.57c0,.16,0,.16-.16.16H22.08c-.16,0-.15,0-.17-.17s-.09-.58-.13-.86c0-.11,0-.22-.05-.33s0-.3-.05-.45-.07-.48-.11-.72l-.08-.54-.13-.78c0-.12,0-.24-.05-.36l-.16-1.15c0-.32-.09-.63-.14-.95s-.12-.74-.18-1.11c0-.15,0-.3-.06-.45s-.09-.51-.12-.76a6.24,6.24,0,0,1,0-.63.19.19,0,0,1,.07-.11l1-.83s.1,0,.14,0a2.13,2.13,0,0,0,.27.16.55.55,0,0,0,.55-.15l1.52-1.32,1.63-1.41,1.38-1.19a.14.14,0,0,1,.13,0c.44.24.9.46,1.32.74A7.66,7.66,0,0,1,30,29.78a9.22,9.22,0,0,1,.81,1,10.17,10.17,0,0,1,1,1.67,6.73,6.73,0,0,1,.31.85c.1.33.19.67.27,1s.07.41.1.61a14.3,14.3,0,0,1,.15,2.57c0,1.47,0,2.94,0,4.41,0,.15,0,.15-.15.15H29.63Z"/><path class="cls-2" d="M18.35,31.82l.73.58a1.78,1.78,0,0,0,.26.21c.17.09.17.23.14.39s-.06.28-.08.41c-.05.37-.1.73-.16,1.1s-.09.5-.13.75,0,.22,0,.33l-.16,1.15c0,.32-.09.64-.14,1L18.6,39c0,.31-.09.62-.14.93s-.12.73-.18,1.1c0,.15,0,.3-.06.45s-.06.36-.09.54H11.77c-.15,0-.16,0-.16-.15q0-3.39,0-6.78a.55.55,0,0,0-.41-.58.53.53,0,0,0-.61.31,1,1,0,0,0,0,.3q0,3.37,0,6.75V42H7.67c-.11,0-.14,0-.14-.14,0-1.69,0-3.37,0-5.06,0-.48,0-1,.09-1.44a7.91,7.91,0,0,1,.13-.93c.07-.34.17-.68.27-1s.15-.5.24-.74A8.08,8.08,0,0,1,9,31.3a8.45,8.45,0,0,1,1-1.3,9.09,9.09,0,0,1,1.12-1A10.12,10.12,0,0,1,12.58,28l.29-.14a.15.15,0,0,1,.12,0l.41.34,2.43,2.1,1.6,1.38a1.51,1.51,0,0,0,.35.24.47.47,0,0,0,.49-.09Z"/><path class="cls-2" d="M14.83,21.21H15a7,7,0,0,0,1.29-.14c.2,0,.39-.06.59-.11a7.25,7.25,0,0,0,.74-.21c.4-.14.8-.28,1.19-.46a11.67,11.67,0,0,0,1-.58c.23-.14.22-.14.45,0s.6.4.92.56a8.59,8.59,0,0,0,1,.41,7.42,7.42,0,0,0,.78.23c.15,0,.3,0,.45.06a6.39,6.39,0,0,0,1.31.08c.17,0,.35,0,.52,0s.12,0,.12.08c0,.36.05.72,0,1.08a4.16,4.16,0,0,1-.14.89,7.09,7.09,0,0,1-.35,1,5.2,5.2,0,0,1-2.53,2.56,7.54,7.54,0,0,1-.86.31,4.84,4.84,0,0,1-2,.17,5,5,0,0,1-1.22-.3,5.11,5.11,0,0,1-1.87-1.18,4.92,4.92,0,0,1-1-1.35c-.14-.29-.25-.6-.36-.9a3,3,0,0,1-.19-.93c0-.33,0-.67,0-1A1.27,1.27,0,0,1,14.83,21.21Z"/><path class="cls-2" d="M15.06,20.13a5.32,5.32,0,0,1,1.58-2.34,5.29,5.29,0,0,1,6.74-.13A5,5,0,0,1,25,20H24.7a8.18,8.18,0,0,1-.83,0c-.34,0-.68-.11-1-.18a4.44,4.44,0,0,1-1.14-.43c-.23-.12-.45-.26-.68-.39s-.1-.09,0-.18a6.44,6.44,0,0,0,.52-.58.45.45,0,0,0,0-.53.45.45,0,0,0-.45-.24.59.59,0,0,0-.38.16,8.07,8.07,0,0,1-.76.7,11.17,11.17,0,0,1-1,.7,6.8,6.8,0,0,1-1.32.63c-.35.12-.71.21-1.07.3a6.5,6.5,0,0,1-1.32.19Z"/><path class="cls-2" d="M14.07,27.38l.75-.24.63-.18a.42.42,0,0,1,.41.11l2,1.56,1.25.94c.07.05.07.1,0,.15l-1.12,1a.12.12,0,0,1-.19,0l-1.28-1.11-1.23-1-1.16-1-.12-.09Z"/><path class="cls-2" d="M26.12,27.39l-1.93,1.66L22.88,30.2l-.58.5c-.06.05-.1,0-.16,0l-.93-.81L21,29.74c-.1-.09-.1-.11,0-.19l.58-.43,1.57-1.18c.42-.31.84-.62,1.25-.94.1-.08.19,0,.28,0l.8.22Z"/><path class="cls-2" d="M19,28.08a6.27,6.27,0,0,0,2.2,0v0l-.4.31-.59.45a.15.15,0,0,1-.22,0l-.82-.62L19,28.12Z"/><path class="cls-3" d="M6.49,36.13c0-.08,0-.17,0-.25.05-.42.09-.83.15-1.25s.1-.62.16-.93.1-.31.14-.47.07-.24.11-.36.13-.41.21-.6c.16-.36.31-.73.5-1.08a7.72,7.72,0,0,1,.83-1.27A11.39,11.39,0,0,1,9.41,29a14.65,14.65,0,0,1,1.13-1,9.71,9.71,0,0,1,1.88-1.13c.45-.21.92-.4,1.39-.57s.72-.23,1.09-.33l.26,0c.07,0,.09,0,0-.11a5.77,5.77,0,0,1-.75-1.15,9.4,9.4,0,0,1-.36-.88,6.2,6.2,0,0,1-.27-1,8.77,8.77,0,0,1-.06-1.18,4.17,4.17,0,0,1,.06-.76c.06-.32.15-.63.23-.94a5.15,5.15,0,0,1,.48-1.15,5.57,5.57,0,0,1,.74-1.06,5.66,5.66,0,0,1,.86-.84,9.12,9.12,0,0,1,.93-.62,4.19,4.19,0,0,1,1-.45l.81-.23a2.47,2.47,0,0,1,.36-.05,7.18,7.18,0,0,1,1.58,0,6.54,6.54,0,0,1,1.13.24,6.31,6.31,0,0,1,1.25.54,6,6,0,0,1,1.71,1.4A6.42,6.42,0,0,1,25.8,19a7.31,7.31,0,0,1,.35.93c.08.25.14.52.2.78a6.5,6.5,0,0,1-.08,2.55A5.94,5.94,0,0,1,25.56,25c-.17.28-.37.54-.56.81-.06.09,0,.1,0,.13l.79.22c.21.06.42.12.62.2.37.14.75.28,1.11.46s.93.47,1.38.74a7.57,7.57,0,0,1,1.26.93c.17.16.35.31.52.47s.4.44.6.66a8.1,8.1,0,0,1,1,1.51A7.92,7.92,0,0,1,33,32.55c.14.42.27.83.38,1.26.07.26.1.53.15.79a10.59,10.59,0,0,1,.16,1.63c0,.29,0,.58,0,.87q0,2.9,0,5.79c0,.15,0,.15-.16.15H22.29c-.19,0-.23,0-.18.22a6.58,6.58,0,0,1,.1.72.46.46,0,0,1-.17.37l-.81.8c-.17.17-.34.35-.52.51a2.86,2.86,0,0,1-.44.35.38.38,0,0,1-.45,0l-.53-.47L18.07,44.4a.59.59,0,0,1-.19-.64,4.6,4.6,0,0,0,.09-.63s0-.07-.07-.08a.27.27,0,0,0-.11,0H6.49Q6.49,39.59,6.49,36.13ZM29.63,42h2.84c.15,0,.15,0,.15-.15,0-1.47,0-2.94,0-4.41a14.3,14.3,0,0,0-.15-2.57c0-.2-.06-.41-.1-.61s-.17-.67-.27-1a6.73,6.73,0,0,0-.31-.85,10.17,10.17,0,0,0-1-1.67,9.22,9.22,0,0,0-.81-1,7.66,7.66,0,0,0-1.41-1.16c-.42-.27-.88-.5-1.32-.74a.14.14,0,0,0-.13,0l-1.38,1.19-1.63,1.41-1.52,1.32a.55.55,0,0,1-.55.15,2.13,2.13,0,0,1-.27-.16s-.11,0-.14,0l-1,.83a.19.19,0,0,0-.07.11,6.24,6.24,0,0,0,0,.63c0,.25.08.51.12.76s0,.3.06.45c.06.37.12.74.18,1.11s.09.63.14.95l.16,1.15c0,.12,0,.24.05.36l.13.78.08.54c0,.24.08.48.11.72s0,.3.05.45,0,.22.05.33c0,.29.1.57.13.86s0,.17.17.17h6.33c.16,0,.16,0,.16-.16q0-3.29,0-6.57a2,2,0,0,1,0-.4.51.51,0,0,1,.72-.33.53.53,0,0,1,.31.54q0,3.38,0,6.76ZM18.35,31.82l-.07,0a.47.47,0,0,1-.49.09,1.51,1.51,0,0,1-.35-.24l-1.6-1.38-2.43-2.1L13,27.9a.15.15,0,0,0-.12,0l-.29.14a10.12,10.12,0,0,0-1.51.95,9.09,9.09,0,0,0-1.12,1,8.45,8.45,0,0,0-1,1.3,8.08,8.08,0,0,0-.68,1.38c-.09.24-.17.49-.24.74s-.2.67-.27,1a7.91,7.91,0,0,0-.13.93c0,.48-.09,1-.09,1.44,0,1.69,0,3.37,0,5.06,0,.1,0,.14.14.14h2.88v-.15q0-3.37,0-6.75a1,1,0,0,1,0-.3.53.53,0,0,1,.61-.31.55.55,0,0,1,.41.58q0,3.39,0,6.78c0,.15,0,.15.16.15h6.37c0-.19.06-.37.09-.54s0-.3.06-.45c.06-.37.12-.73.18-1.1s.09-.62.14-.93l.19-1.27c0-.32.09-.64.14-1l.16-1.15c0-.11,0-.22,0-.33s.09-.5.13-.75.1-.73.16-1.1c0-.14.05-.28.08-.41s0-.3-.14-.39a1.78,1.78,0,0,1-.26-.21ZM14.83,21.21a1.27,1.27,0,0,0,0,.2c0,.33,0,.67,0,1a3,3,0,0,0,.19.93c.11.3.22.61.36.9a4.92,4.92,0,0,0,1,1.35,5.11,5.11,0,0,0,1.87,1.18,5,5,0,0,0,1.22.3,4.84,4.84,0,0,0,2-.17,7.54,7.54,0,0,0,.86-.31,5.2,5.2,0,0,0,2.53-2.56,7.09,7.09,0,0,0,.35-1,4.16,4.16,0,0,0,.14-.89c0-.36,0-.72,0-1.08,0-.08-.06-.08-.12-.08s-.35,0-.52,0A6.39,6.39,0,0,1,23.39,21c-.15,0-.31,0-.45-.06a7.42,7.42,0,0,1-.78-.23,8.59,8.59,0,0,1-1-.41c-.32-.16-.62-.37-.92-.56s-.22-.14-.45,0a11.67,11.67,0,0,1-1,.58c-.38.18-.79.32-1.19.46a7.25,7.25,0,0,1-.74.21c-.19,0-.39.07-.59.11a7,7,0,0,1-1.29.14Zm.23-1.08h.16a6.5,6.5,0,0,0,1.32-.19c.36-.1.72-.18,1.07-.3A6.8,6.8,0,0,0,18.93,19a11.17,11.17,0,0,0,1-.7,8.07,8.07,0,0,0,.76-.7.59.59,0,0,1,.38-.16.45.45,0,0,1,.45.24.45.45,0,0,1,0,.53,6.44,6.44,0,0,1-.52.58c-.09.09-.09.11,0,.18s.45.27.68.39a4.44,4.44,0,0,0,1.14.43c.34.07.68.14,1,.18a8.18,8.18,0,0,0,.83,0H25a5,5,0,0,0-1.67-2.34,5.29,5.29,0,0,0-6.74.13A5.32,5.32,0,0,0,15.06,20.13Zm-1,7.26,0,0,.12.09,1.16,1,1.23,1,1.28,1.11a.12.12,0,0,0,.19,0l1.12-1c.07-.06.07-.1,0-.15l-1.25-.94-2-1.56a.42.42,0,0,0-.41-.11l-.63.18Zm12,0-.6-.19-.8-.22c-.09,0-.18-.06-.28,0-.41.32-.83.63-1.25.94l-1.57,1.18-.58.43c-.1.08-.11.1,0,.19l.18.15.93.81c.06,0,.1.06.16,0l.58-.5,1.31-1.15ZM19,28.08v0l.19.15.82.62a.15.15,0,0,0,.22,0l.59-.45.4-.31v0A6.27,6.27,0,0,1,19,28.08Z"/><rect class="cls-2" x="25.86" y="4.23" width="15.43" height="12.57" rx="3" ry="3"/><text class="cls-4" transform="translate(27.86 10.29)">€</text><text class="cls-4" transform="translate(35.48 14.74)">$</text></g></g></g></svg>