<svg xmlns="http://www.w3.org/2000/svg" viewBox="0 0 180.44 180.44"><defs><style>.cls-1{fill:#e2bb17;}.cls-2{fill:#461a68;}</style></defs><title>strategies</title><g id="Layer_2" data-name="Layer 2"><g id="Data_Holder" data-name="Data Holder"><g id="Strastegies"><circle class="cls-1" cx="90.22" cy="90.22" r="90.22"/><path class="cls-2" d="M87.53,55.22c4.05,2.3,7.34,4.32,10.76,6.07,18.4,9.43,32.14,23.38,40.29,42.4,2,4.68,4.11,8.15,8.6,11.09,5.76,3.77,8.34,10.42,4.21,18.82-2.8,5.68-11.92,8.84-18.78,6.52-5.62-1.9-10.8-10.11-9-16.1,1.11-3.68,4.48-6.67,6.74-10,.73-1.08,1.88-2.6,1.6-3.53-3.41-11.14-9.23-21.1-18.34-28.24-8.56-6.71-18.24-12-27.46-17.85-.55-.35-1.4-.2-2.43-.32.62,2.08,1.49,3.76,1.52,5.45,0,1.34-.64,3.48-1.58,3.87-1.29.53-3.86.32-4.59-.59A198.05,198.05,0,0,1,66.43,55.19c-.59-.93,1.26-4.92,2.6-5.29,6.52-1.79,13.24-2.9,19.91-4.12,2.86-.53,5.69.11,6.16,3.35.51,3.48-2,4.88-5.2,5.14A13.61,13.61,0,0,0,87.53,55.22Zm50.7,76.92c3.8,0,7.17-2.72,6.59-5.92s-2.47-5.93-6.52-5.85a6.24,6.24,0,0,0-6.32,6C131.93,129.67,134.57,132.12,138.24,132.14Z"/><path class="cls-2" d="M88.68,110.5A27.41,27.41,0,0,1,86,114a31.57,31.57,0,0,1-4.09,3.07c-3,2.12-2.77,4.13.09,6.16a33.19,33.19,0,0,1,4.81,3.64c1.51,1.55,3.14,3.75.55,5.45a6.61,6.61,0,0,1-5.44.68c-2.75-1.27-5.13-3.39-7.52-5.34-2.19-1.78-4-1.72-6.18.11A32.16,32.16,0,0,1,61,132.85c-1.54.7-3.74-.08-5.65-.2.25-2-.12-4.38.89-5.83,1.77-2.55,4.38-4.51,6.64-6.72-2.26-2.19-4.94-4.1-6.63-6.66-1.05-1.59-.62-4.17-.85-6.31,1.95-.08,4.09-.7,5.8-.09a13.56,13.56,0,0,1,5.21,3.84c3.54,4,6.71,3.26,10.1-.13a28.67,28.67,0,0,1,5.05-4.11C84.74,104.69,88.5,106.49,88.68,110.5Z"/><path class="cls-2" d="M43.47,54.17c3,2.4,5.76,4,7.62,6.32,1.17,1.45,1,4,1.41,6-2.07.14-4.41.95-6.15.25a20.56,20.56,0,0,1-6.3-4.67c-3-2.94-5.55-2.53-8.33.24C30,64.08,28.21,66.14,26,67a7.12,7.12,0,0,1-5.86-1c-.73-.54.12-3.57.68-5.33.28-.87,1.5-1.47,2.33-2.13,5.75-4.56,5.64-4.42,0-9.53-2-1.85-6.61-3.47-2.84-7.45a5.34,5.34,0,0,1,4.9-.94,34.61,34.61,0,0,1,7.44,5.45c2.24,2,4.12,2.21,6.48.21s5.09-3.52,7.45-5.51,4.32-1.53,5.45.64a5.66,5.66,0,0,1-.44,5.09C49.35,49.25,46.42,51.48,43.47,54.17Z"/><path class="cls-2" d="M138.67,61.24c-3-2.42-5.76-3.92-7.47-6.17-1.28-1.68-1.27-4.35-1.83-6.58,2.28,0,4.76-.55,6.79.17s3.8,2.6,5.46,4.19c2.52,2.41,4.83,3,7.61.34a23.39,23.39,0,0,1,6.26-4.74c1.67-.73,3.94-.09,5.94-.06-.27,2.15.14,4.75-1,6.34-1.75,2.55-4.49,4.43-6.81,6.59,2.32,2.16,5,4.06,6.83,6.58a6.83,6.83,0,0,1,.66,5.72c-.83,2-3,2.2-5,.57s-4.66-3-6.73-4.81c-2.76-2.39-5.15-2.18-7.84.07-2.1,1.75-4.51,3.12-6.67,4.8s-4.58,1.16-5.35-.94c-.56-1.52.32-4.21,1.49-5.58C133.09,65.34,135.86,63.56,138.67,61.24Z"/></g></g></g></svg>