<svg xmlns="http://www.w3.org/2000/svg" viewBox="0 0 629.39 629.26"><defs><style>.cls-1,.cls-6{fill:#fff;}.cls-2{fill:#a5b1c0;}.cls-3{fill:#b0d1b9;}.cls-4{fill:#e79c92;}.cls-5{fill:#e7c792;}.cls-6{font-size:38.32px;}.cls-6,.cls-7{font-family:MyriadPro-Regular, Myriad Pro;}.cls-7{font-size:12px;}.cls-8{letter-spacing:-0.01em;}.cls-9{letter-spacing:-0.08em;}.cls-10{letter-spacing:-0.07em;}.cls-11{letter-spacing:-0.03em;}.cls-12{letter-spacing:0em;}.cls-13{letter-spacing:0em;}.cls-14{letter-spacing:0em;}</style></defs><title>Asset 12</title><g id="Layer_2" data-name="Layer 2"><g id="Layer_4_copy" data-name="Layer 4 copy"><path class="cls-1" d="M314.69.07C141,.07.19,140.88.19,314.57h314.5Z"/><path d="M314.65.11a319.6,319.6,0,0,0-61.28,6.22,312.44,312.44,0,0,0-58.89,18A314.65,314.65,0,0,0,24.75,194.48,314.1,314.1,0,0,0,1,314.57l-.83-.83,78.63-.05,78.63.08,157.25.16-.65.65.2-157.06Zm.07-.07,0,314.54v.08h-.08l-314.5,0H.09v-.09A314.41,314.41,0,0,1,314.72,0Z"/><path class="cls-1" d="M.19,314.57c0,173.69,140.81,314.5,314.5,314.5V314.57Z"/><path d="M.22,314.61a319.6,319.6,0,0,0,6.22,61.28,312.44,312.44,0,0,0,18,58.89A314.65,314.65,0,0,0,194.59,604.51a314.1,314.1,0,0,0,120.1,23.73l-.83.83-.05-78.63.08-78.63L314,314.57l.65.65L157.63,315Zm-.07-.07,314.54,0h.08v.08l0,314.5v.09h-.09A314.41,314.41,0,0,1,.15,314.54Z"/><path class="cls-1" d="M314.69.07v314.5h314.5C629.19,140.88,488.38.07,314.69.07Z"/><path d="M314.72.11l.42,157.4.2,157.06-.65-.65,157.25-.16,78.63-.08,78.63.06-.83.83A313.89,313.89,0,0,0,489.13,53.5,317.79,317.79,0,0,0,434.9,24.36,312.45,312.45,0,0,0,376,6.33,319.6,319.6,0,0,0,314.72.11ZM314.65,0A314.44,314.44,0,0,1,629.28,314.57v.09h-.09l-314.5,0h-.08v-.08Z"/><path class="cls-1" d="M314.69,567.18v61.89c173.69,0,314.5-140.81,314.5-314.5H314.69V567.18"/><path d="M314.74,567.18l.18,61.89-.23-.23a313.9,313.9,0,0,0,313.6-314.27l.9.9-314.5-.31.58-.58-.16,126.3-.37,126.3h-.1l0-252.61v-.07h.07l314.5,0h.1v.1a314.46,314.46,0,0,1-314.6,314.56h-.06v-62Z"/><path class="cls-2" d="M314.69.07C141,.07.19,140.88.19,314.57h314.5Z"/><path class="cls-1" d="M314.62.14a321.39,321.39,0,0,0-61.2,6.42,312.12,312.12,0,0,0-58.77,18.19,321.46,321.46,0,0,0-54.1,29.18A312.86,312.86,0,0,0,1.85,314.57L.19,312.91c26.21,0,52.42-.16,78.62-.11l78.63.16,157.25.32-1.3,1.3.39-156.88Zm.14-.14.09,314.57v.16h-.16l-314.5,0H0v-.19A314.49,314.49,0,0,1,253.3,6l7.6-1.36,3.8-.68,1.9-.34c.64-.1,1.28-.17,1.91-.25l7.66-1L280,1.91c1.28-.16,2.55-.35,3.84-.42C289,1.12,294.11.67,299.25.36Z"/><path class="cls-3" d="M.19,314.57c0,173.69,140.81,314.5,314.5,314.5V314.57Z"/><path class="cls-1" d="M.26,314.64a321.39,321.39,0,0,0,6.42,61.2,312.12,312.12,0,0,0,18.19,58.77A321.46,321.46,0,0,0,54,488.72,312.86,312.86,0,0,0,314.69,627.41L313,629.07c0-26.21-.16-52.42-.11-78.63l.16-78.63.32-157.25,1.3,1.3-156.88-.39Zm-.14-.14,314.57-.09h.16v.16l0,314.5v.19h-.19A314.49,314.49,0,0,1,6.11,376l-1.36-7.6-.68-3.8-.34-1.9c-.1-.64-.17-1.28-.25-1.91l-1-7.66L2,349.25c-.16-1.28-.35-2.55-.42-3.84C1.23,340.28.79,335.15.48,330Z"/><path class="cls-4" d="M314.69.07v314.5h314.5C629.19,140.88,488.38.07,314.69.07Z"/><path class="cls-1" d="M314.76.14l.83,157.55.4,156.88-1.3-1.3L471.94,313l78.63-.16,78.63.12-1.66,1.66A313.25,313.25,0,0,0,488.84,53.93a321.61,321.61,0,0,0-54.1-29.18A312.11,312.11,0,0,0,376,6.55,321.39,321.39,0,0,0,314.76.14ZM314.62,0l15.51.36c5.14.31,10.27.76,15.4,1.13,1.29.07,2.56.26,3.84.42l3.83.49,7.66,1c.64.08,1.28.15,1.91.25l1.9.34,3.8.68L376.07,6a314.53,314.53,0,0,1,253.3,308.58v.19h-.19l-314.5,0h-.16v-.16Z"/><path class="cls-5" d="M314.69,567.18v61.89c173.69,0,314.5-140.81,314.5-314.5H314.69V567.18"/><path class="cls-1" d="M314.79,567.18l.37,61.89-.47-.47a318.29,318.29,0,0,0,120-24.4A312.93,312.93,0,0,0,627.4,314.57l1.79,1.79-314.5-.62,1.17-1.17-.13,63.15c-.06,21.05,0,42.1-.2,63.15l-.74,126.3h-.2l0-252.61v-.14h.15l314.5-.05h.2v.2a314.53,314.53,0,0,1-314.7,314.61h-.11v-62Z"/><rect class="cls-1" x="183.95" y="187.46" width="262.83" height="254.38"/><path d="M446.82,441.88l-262.87.22h-.25v-.25l-.15-254.38v-.4h.4L446.78,187h.5v.49Zm-.07-.07-.46-254.35.49.49-262.83-.09.4-.4-.15,254.38-.25-.25Z"/><text class="cls-6" transform="translate(78.49 470.21) rotate(55.16)">L</text><text class="cls-6" transform="matrix(0.63, 0.78, -0.78, 0.63, 90.2, 486.91)">E</text><text class="cls-6" transform="translate(103.74 503.69) rotate(46.2)">G</text><text class="cls-6" transform="matrix(0.76, 0.65, -0.65, 0.76, 123.09, 523.61)">A</text><text class="cls-6" transform="translate(142.93 540.48) rotate(36.22)">L</text><text class="cls-6" transform="matrix(0.96, -0.29, 0.29, 0.96, 395.61, 591.61)">T</text><text class="cls-6" transform="matrix(0.93, -0.36, 0.36, 0.93, 415.44, 585.48)">E</text><text class="cls-6" transform="translate(434.75 578.01) rotate(-25.6)">C</text><text class="cls-6" transform="translate(456.71 567.45) rotate(-30.73)">H</text><text class="cls-6" transform="matrix(0.81, -0.59, 0.59, 0.81, 480.07, 553.45)">N</text><text class="cls-6" transform="matrix(0.75, -0.67, 0.67, 0.75, 502.25, 537.14)">O</text><text class="cls-6" transform="matrix(0.69, -0.73, 0.73, 0.69, 523.26, 518.07)">L</text><text class="cls-6" transform="matrix(0.63, -0.78, 0.78, 0.63, 536.08, 504.77)">O</text><text class="cls-6" transform="translate(554.02 482.39) rotate(-56.5)">G</text><text class="cls-6" transform="translate(568.27 460.33) rotate(-60.17)">I</text><text class="cls-6" transform="matrix(0.45, -0.9, 0.9, 0.45, 573.67, 451.22)">C</text><text class="cls-6" transform="translate(584.49 429.3) rotate(-68.58)">A</text><text class="cls-6" transform="matrix(0.29, -0.96, 0.96, 0.29, 593.57, 405.65)">L</text><text class="cls-6" transform="translate(434.81 83.73) rotate(28.67)">E</text><text class="cls-6" transform="translate(450.99 92.4) rotate(33.48)">N</text><text class="cls-6" transform="matrix(0.78, 0.63, -0.63, 0.78, 471.52, 105.99)">A</text><text class="cls-6" transform="matrix(0.72, 0.69, -0.69, 0.72, 489.37, 120.37)">B</text><text class="cls-6" transform="translate(504.06 134.4) rotate(47.79)">L</text><text class="cls-6" transform="matrix(0.62, 0.79, -0.79, 0.62, 515.94, 147.45)">E</text><text class="cls-6" transform="translate(527.34 161.86) rotate(56.09)">R</text><text class="cls-6" transform="translate(538.56 178.57) rotate(60.39)">S</text><text class="cls-6" transform="translate(69.78 258.91) rotate(-75.72)">S</text><text class="cls-6" transform="translate(74.13 241.09) rotate(-70.74)">O</text><text class="cls-6" transform="translate(82.72 216.73) rotate(-65.4)">C</text><text class="cls-6" transform="translate(91.98 196.95) rotate(-61.96)">I</text><text class="cls-6" transform="matrix(0.53, -0.85, 0.85, 0.53, 95.81, 189.1)">O</text><text class="cls-6" transform="translate(110.04 166.78) rotate(-53.8)">-</text><text class="cls-6" transform="translate(116.68 157.52) rotate(-50.48)">E</text><text class="cls-6" transform="translate(128.29 143.31) rotate(-46.02)">C</text><text class="cls-6" transform="translate(142.68 128.17) rotate(-40.92)">O</text><text class="cls-6" transform="matrix(0.82, -0.58, 0.58, 0.82, 162.17, 111.28)">N</text><text class="cls-6" transform="translate(182.21 97) rotate(-29.69)">O</text><text class="cls-6" transform="translate(204.49 84.12) rotate(-23.43)">M</text><text class="cls-6" transform="translate(232.46 72.43) rotate(-19.03)">I</text><text class="cls-6" transform="translate(240.7 69.37) rotate(-15.58)">C</text><rect class="cls-1" x="202.26" y="216.56" width="96.5" height="39.03"/><path d="M202.26,216.56l48.14-.26,48.36-.14h.4v.4l.1,39v.5h-.5l-96.5-.24H202v-.26Zm0,0,.26,39-.26-.26,96.5-.24-.5.5.1-39,.4.4-48.14-.14Z"/><text class="cls-7" transform="translate(211.9 239.59)"><tspan class="cls-8">D</tspan><tspan class="cls-9" x="7.82" y="0">A</tspan><tspan class="cls-10" x="14.24" y="0">T</tspan><tspan x="19.31" y="0">A HOLDERS</tspan></text><rect class="cls-1" x="250.05" y="298.86" width="124.89" height="39.03"/><path d="M375,337.92l-31.05.27c-10.35.13-20.8.15-31.22.2l-62.65.26h-.76v-.77l-.13-39V298h.9l124.89.45h.45v.44Zm-.07-.07,0-39,.06.06-124.89,0,.1-.1v39l-.09-.09Z"/><text class="cls-7" transform="translate(264.55 321.89)"><tspan class="cls-8">D</tspan><tspan class="cls-9" x="7.82" y="0">A</tspan><tspan class="cls-10" x="14.24" y="0">T</tspan><tspan x="19.31" y="0">A DISTRIBU</tspan><tspan class="cls-11" x="75.53" y="0">T</tspan><tspan class="cls-12" x="81.17" y="0">OR</tspan></text><rect class="cls-1" x="203.55" y="380.35" width="217.89" height="39.03"/><path d="M421.48,419.42l-217.92.32h-.35v-.36l0-39V380h.4l54.47-.09H312.5l108.94.25h.25v.25Zm-.07-.07-.21-39,.25.25-108.94.25H258l-54.47-.09.4-.4,0,39-.35-.35Z"/><text class="cls-7" transform="translate(267.62 403.39)"><tspan class="cls-8">D</tspan><tspan class="cls-9" x="7.82" y="0">A</tspan><tspan class="cls-10" x="14.24" y="0">T</tspan><tspan x="19.31" y="0">A P</tspan><tspan class="cls-13" x="35.58" y="0">R</tspan><tspan class="cls-14" x="42.07" y="0">OCESSOR</tspan></text><rect class="cls-1" x="337.95" y="216.46" width="96.5" height="39.03"/><path d="M434.45,255.48l-48.14.26-48.36.14h-.4v-.4l-.1-39V216h.5l96.5.24h.26v.26Zm0,0-.26-39,.26.26-96.5.24.5-.5-.1,39-.4-.4,48.14.14Z"/><text class="cls-7" transform="translate(358.58 239.49)"><tspan class="cls-8">D</tspan><tspan class="cls-9" x="7.82" y="0">A</tspan><tspan class="cls-10" x="14.24" y="0">T</tspan><tspan x="19.31" y="0">A USER</tspan></text></g></g></svg>