<svg xmlns="http://www.w3.org/2000/svg" viewBox="0 0 180.44 180.44"><defs><style>.cls-1{fill:#999;}.cls-2{fill:#461a68;}</style></defs><title>attitude</title><g id="Layer_2" data-name="Layer 2"><g id="Data_Holder" data-name="Data Holder"><g id="Attitude"><circle class="cls-1" cx="90.22" cy="90.22" r="90.22"/><path class="cls-2" d="M90.22,118.41c-13,0-29.25-5.93-41.91-14-4.64-2.95-8.84-6.6-13.13-10.06-3.2-2.57-3-5.32-.19-8.22,8.69-8.85,19.42-14.38,30.71-19,8.19-3.33,16.84-5.47,25.62-5.12,14.73.58,28.24,5.76,40.64,13.57a112.47,112.47,0,0,1,13.18,10.07c3.36,2.89,2.11,6.35,0,9s-8.47,6.73-12.49,9S103.27,118.41,90.22,118.41ZM111.63,76l-1.17.85c3.26,9.35,4.29,18.59-.68,28A249.46,249.46,0,0,0,132,92.76c2.87-1.72,2.61-3.54,0-5.32-2.15-1.46-4.15-3.18-6.42-4.4C121,80.57,116.27,78.36,111.63,76ZM70.85,77.3c-1-.31-1.52-.67-1.79-.53-7.41,3.91-14.82,7.83-22.11,12-.29.17.1,2.8.87,3.41A76,76,0,0,0,72,105C65.74,95.35,64.94,86.35,70.85,77.3Z"/></g></g></g></svg>