<svg xmlns="http://www.w3.org/2000/svg" viewBox="0 0 48.6 48.6"><defs><style>.cls-1{fill:#34c995;}.cls-2{fill:#fff;}.cls-3{fill:#540268;}</style></defs><title>legal</title><g id="Layer_2" data-name="Layer 2"><g id="Home"><g id="legal"><circle class="cls-1" cx="24.3" cy="24.3" r="24.3"/><path class="cls-2" d="M10.77,21.15l4,6.16a.53.53,0,0,1,0,.09l0,0-7.7,0a1.64,1.64,0,0,1-.23,0C6.85,27,10.4,21.52,10.77,21.15Z"/><path class="cls-2" d="M32.34,34.3V35c-.38.11-16,.12-16.47,0V34.3Z"/><path class="cls-2" d="M14.42,29.09c-.81.82-1.51,1.79-2.74,2.09a3.53,3.53,0,0,1-3.12-.58A10.58,10.58,0,0,1,7,29c1.24-.12,2.46-.07,3.68-.08h3.69Z"/><path class="cls-2" d="M33.71,21.62h7.46c0,.08,0,.14,0,.16-.47.46-.91,1-1.42,1.37a3.57,3.57,0,0,1-4.36.09A16.57,16.57,0,0,1,34,22C33.91,21.88,33.85,21.79,33.71,21.62Z"/><path class="cls-3" d="M23.27,32.71c.1-.56.08-15.28,0-15.62-.35,0-10.79,2.84-11.28,3.09.06.12.11.24.18.35l4.3,6.67a3.94,3.94,0,0,1,.24.4,1.36,1.36,0,0,1-.26,1.6c-.7.71-1.41,1.43-2.13,2.12a5,5,0,0,1-6,.86,6.24,6.24,0,0,1-1.27-1c-.65-.61-1.27-1.26-1.9-1.89a1.43,1.43,0,0,1-.23-2c1.71-2.6,3.39-5.23,5.07-7.85a1.3,1.3,0,0,1,.8-.59l11.81-3.25c.88-.24.73-.09.75-1a6.49,6.49,0,0,1,0-.66.72.72,0,0,1,.75-.69.71.71,0,0,1,.72.71c0,.16,0,.31,0,.47s0,.28,0,.48c.19,0,.35,0,.51-.09l9.55-2.63c.77-.21,1.54-.42,2.3-.65a.69.69,0,0,1,.77.2,2.11,2.11,0,0,1,.23.3q2.58,4,5.15,8a1.38,1.38,0,0,1-.14,1.73c-.72.74-1.43,1.49-2.19,2.2a5,5,0,0,1-3.7,1.44,4.89,4.89,0,0,1-3.25-1.28c-.79-.72-1.54-1.47-2.28-2.24a1.43,1.43,0,0,1-.18-2q1.7-2.59,3.38-5.2c.22-.34.43-.68.65-1-.21-.13-.37,0-.52,0l-6.47,1.78c-1.09.3-2.18.59-3.26.9-.59.17-.56.09-.56.72q0,7.52,0,15v.57h7.71a4.1,4.1,0,0,1,.61,0,.72.72,0,0,1,.69.75c0,.78,0,1.57,0,2.35a.74.74,0,0,1-.7.74,2.79,2.79,0,0,1-.33,0H15.09a.79.79,0,0,1-.77-.79q0-1.13,0-2.26a.77.77,0,0,1,.75-.81,4,4,0,0,1,.56,0h7.05ZM41.49,20a.84.84,0,0,0,0-.19L37.7,14.06a2,2,0,0,0-.18-.21l0,0h0c-.47.55-3.85,5.85-3.95,6.2ZM10.77,21.15c-.38.37-3.93,5.9-4,6.27a1.64,1.64,0,0,0,.23,0l7.7,0,0,0a.53.53,0,0,0,0-.09ZM32.34,34.3H15.86v.75c.5.1,16.09.09,16.47,0ZM14.42,29.09l0-.14H10.68c-1.22,0-2.44,0-3.68.08a10.58,10.58,0,0,0,1.57,1.57,3.53,3.53,0,0,0,3.12.58C12.91,30.89,13.61,29.91,14.42,29.09Zm19.28-7.47c.14.17.2.26.28.33a16.57,16.57,0,0,0,1.37,1.29,3.57,3.57,0,0,0,4.36-.09c.51-.42.95-.91,1.42-1.37,0,0,0-.08,0-.16Z"/><path class="cls-2" d="M41.44,20h-8c.09-.35,3.47-5.65,3.95-6.2h0l0,0a2,2,0,0,1,.18.21l3.74,5.79A.84.84,0,0,1,41.44,20Z"/></g></g></g></svg>