<svg xmlns="http://www.w3.org/2000/svg" width="320.91" height="315.57" viewBox="0 0 320.91 315.57"><defs><style>.cls-1{fill:#a5b1c0;}.cls-2,.cls-3,.cls-4{fill:#fff;}.cls-3{font-size:38.32px;}.cls-3,.cls-4{font-family:MyriadPro-Regular, Myriad Pro;}.cls-4{font-size:31.9px;}</style></defs><title>socio</title><g id="Layer_2" data-name="Layer 2"><g id="Layer_4_szines" data-name="Layer 4 szines"><g id="socio"><path class="cls-1" d="M315.23.07C141.54.07.73,140.88.73,314.57h314.5Z"/><path class="cls-2" d="M315.16.14,299.8.58c-5.12.32-10.26.77-15.38,1.15-1.28.07-2.56.27-3.83.42l-3.83.49-7.65,1c-.64.09-1.28.16-1.91.25l-1.9.34-3.8.68L253.9,6.28A314,314,0,0,0,1.46,314.57l-.73-.73,314.5-.27-1,1q0-39.22.13-78.46l.24-78.53ZM315.3,0l.56,157.06.24,78.72q.13,39.38.13,78.79v1h-1L.73,315.3H0v-.73A314.67,314.67,0,0,1,253.83,5.92l7.61-1.35,3.8-.67,1.9-.34c.64-.1,1.28-.17,1.91-.25l7.66-1,3.83-.48c1.28-.16,2.55-.35,3.84-.41,5.14-.37,10.26-.8,15.41-1.11Z"/><text class="cls-3" transform="matrix(0.17, -0.99, 0.99, 0.17, 66.96, 278.07)">S</text><text class="cls-3" transform="matrix(0.27, -0.96, 0.96, 0.27, 70.57, 257.03)">O</text><text class="cls-3" transform="translate(78.52 229.33) rotate(-68.42)">C</text><text class="cls-3" transform="translate(87.95 206.38) rotate(-64.31)">I</text><text class="cls-3" transform="matrix(0.5, -0.86, 0.86, 0.5, 92.83, 195.69)">O</text><text class="cls-3" transform="matrix(0.58, -0.82, 0.82, 0.58, 108.04, 170.5)">-</text><text class="cls-3" transform="translate(116.31 158.71) rotate(-50.81)">E</text><text class="cls-3" transform="translate(129.84 142.18) rotate(-45.69)">C</text><text class="cls-3" transform="translate(146.48 125.1) rotate(-39.93)">O</text><text class="cls-3" transform="translate(168.67 106.74) rotate(-33.64)">N</text><text class="cls-3" transform="translate(191.7 91.53) rotate(-27.34)">O</text><text class="cls-3" transform="matrix(0.94, -0.35, 0.35, 0.94, 217.2, 78.35)">M</text><text class="cls-3" transform="translate(248.62 67.29) rotate(-15.33)">I</text><text class="cls-3" transform="translate(259.95 64.05) rotate(-11.21)">C</text><text class="cls-4" transform="translate(118.25 246.11) rotate(-69.6)">F</text><text class="cls-4" transform="translate(124.45 229.6) rotate(-64.62)">R</text><text class="cls-4" transform="translate(132.81 212.12) rotate(-59.08)">A</text><text class="cls-4" transform="translate(143.72 193.76) rotate(-52.54)">M</text><text class="cls-4" transform="translate(160.81 172.06) rotate(-46.49)">E</text><text class="cls-4" transform="translate(173.05 158.89) rotate(-40.19)">W</text><text class="cls-4" transform="matrix(0.84, -0.55, 0.55, 0.84, 195.28, 140.46)">O</text><text class="cls-4" transform="translate(215.5 127.53) rotate(-27.33)">R</text><text class="cls-4" transform="translate(232.63 118.78) rotate(-22.13)">K</text></g></g></g></svg>