<svg xmlns="http://www.w3.org/2000/svg" width="320.18" height="314.5" viewBox="0 0 320.18 314.5"><defs><style>.cls-1{fill:#83a8c0;}.cls-2{font-size:38.32px;}.cls-2,.cls-3{fill:#fff;font-family:MyriadPro-Regular, Myriad Pro;}.cls-3{font-size:31.9px;}</style></defs><title>socio2</title><g id="Layer_2" data-name="Layer 2"><g id="Layer_4_szinesebb" data-name="Layer 4 szinesebb"><g id="socio"><path class="cls-1" d="M314.5,0C140.81,0,0,140.81,0,314.5H314.5Z"/><text class="cls-2" transform="matrix(0.17, -0.99, 0.99, 0.17, 66.23, 278)">S</text><text class="cls-2" transform="matrix(0.27, -0.96, 0.96, 0.27, 69.84, 256.96)">O</text><text class="cls-2" transform="translate(77.79 229.26) rotate(-68.42)">C</text><text class="cls-2" transform="translate(87.22 206.31) rotate(-64.31)">I</text><text class="cls-2" transform="matrix(0.5, -0.86, 0.86, 0.5, 92.1, 195.62)">O</text><text class="cls-2" transform="matrix(0.58, -0.82, 0.82, 0.58, 107.31, 170.43)">-</text><text class="cls-2" transform="translate(115.58 158.64) rotate(-50.81)">E</text><text class="cls-2" transform="translate(129.11 142.11) rotate(-45.69)">C</text><text class="cls-2" transform="translate(145.75 125.03) rotate(-39.93)">O</text><text class="cls-2" transform="translate(167.95 106.66) rotate(-33.64)">N</text><text class="cls-2" transform="translate(190.97 91.46) rotate(-27.34)">O</text><text class="cls-2" transform="matrix(0.94, -0.35, 0.35, 0.94, 216.47, 78.28)">M</text><text class="cls-2" transform="translate(247.9 67.22) rotate(-15.33)">I</text><text class="cls-2" transform="translate(259.22 63.97) rotate(-11.21)">C</text><text class="cls-3" transform="translate(117.52 246.04) rotate(-69.6)">F</text><text class="cls-3" transform="translate(123.73 229.53) rotate(-64.62)">R</text><text class="cls-3" transform="translate(132.08 212.05) rotate(-59.08)">A</text><text class="cls-3" transform="translate(142.99 193.69) rotate(-52.54)">M</text><text class="cls-3" transform="translate(160.08 171.99) rotate(-46.49)">E</text><text class="cls-3" transform="translate(172.32 158.82) rotate(-40.19)">W</text><text class="cls-3" transform="matrix(0.84, -0.55, 0.55, 0.84, 194.55, 140.39)">O</text><text class="cls-3" transform="translate(214.77 127.46) rotate(-27.33)">R</text><text class="cls-3" transform="translate(231.9 118.71) rotate(-22.13)">K</text></g></g></g></svg>