<svg xmlns="http://www.w3.org/2000/svg" width="314.5" height="314.5" viewBox="0 0 314.5 314.5"><defs><style>.cls-1{fill:#e9c77c;}.cls-2{font-size:31.9px;}.cls-2,.cls-3{fill:#fff;font-family:MyriadPro-Regular, Myriad Pro;}.cls-3{font-size:38px;}</style></defs><title>technological2</title><g id="Layer_2" data-name="Layer 2"><g id="Layer_4_szinesebb" data-name="Layer 4 szinesebb"><g id="technological"><path class="cls-1" d="M0,252.61V314.5C173.69,314.5,314.5,173.69,314.5,0H0V252.61"/><text class="cls-2" transform="translate(115.99 259.93) rotate(-25.21)">F</text><text class="cls-2" transform="translate(133.6 251.52) rotate(-29.34)">R</text><text class="cls-2" transform="translate(152.23 240.9) rotate(-33.92)">A</text><text class="cls-2" transform="matrix(0.77, -0.63, 0.63, 0.77, 171.98, 227.56)">M</text><text class="cls-2" transform="matrix(0.71, -0.7, 0.7, 0.71, 194.85, 208.28)">E</text><text class="cls-2" transform="translate(209.45 194.06) rotate(-49.61)">W</text><text class="cls-2" transform="matrix(0.57, -0.82, 0.82, 0.57, 229.62, 169.8)">O</text><text class="cls-2" transform="translate(244.24 148.06) rotate(-60.28)">R</text><text class="cls-2" transform="translate(254.61 129.58) rotate(-64.6)">K</text><text class="cls-3" transform="matrix(0.99, -0.12, 0.12, 0.99, 21.87, 242.97)">T</text><text class="cls-3" transform="translate(45.95 239.87) rotate(-12.41)">E</text><text class="cls-3" transform="matrix(0.95, -0.32, 0.32, 0.95, 69.62, 234.45)">C</text><text class="cls-3" transform="translate(96.06 225.28) rotate(-25.52)">H</text><text class="cls-3" transform="matrix(0.84, -0.54, 0.54, 0.84, 123.72, 211.65)">N</text><text class="cls-3" transform="translate(149.69 194.46) rotate(-40.28)">O</text><text class="cls-3" transform="matrix(0.68, -0.73, 0.73, 0.68, 173.65, 173.42)">L</text><text class="cls-3" transform="matrix(0.6, -0.8, 0.8, 0.6, 188.76, 157.34)">O</text><text class="cls-3" transform="translate(207.86 131.31) rotate(-60.34)">G</text><text class="cls-3" transform="translate(222.06 105.17) rotate(-65.55)">I</text><text class="cls-3" transform="translate(227.98 92.31) rotate(-70.44)">C</text><text class="cls-3" transform="translate(237.06 65.79) rotate(-77.24)">A</text><text class="cls-3" transform="matrix(0.11, -0.99, 0.99, 0.11, 243, 37.56)">L</text></g></g></g></svg>