<svg xmlns="http://www.w3.org/2000/svg" width="315.93" height="315.47" viewBox="0 0 315.93 315.47"><defs><style>.cls-1{fill:#e79c92;}.cls-2,.cls-3{fill:#fff;}.cls-3{font-size:38.32px;font-family:MyriadPro-Regular, Myriad Pro;}</style></defs><title>enablers</title><g id="Layer_2" data-name="Layer 2"><g id="Layer_4_szines" data-name="Layer 4 szines"><g id="enablers"><path class="cls-1" d="M.54.08v314.5H315C315,140.88,174.23.08.54.08Z"/><path class="cls-2" d="M.61.15l.47,314.43L.54,314l314.5-.36-.89.89a315.43,315.43,0,0,0-23.93-120,313.07,313.07,0,0,0-29-54.18,322.19,322.19,0,0,0-38.94-47.57,314.59,314.59,0,0,0-101.6-68.3,315.34,315.34,0,0,0-58.85-18A321.41,321.41,0,0,0,.61.15ZM.47,0A314.5,314.5,0,0,1,62,5.7a310.27,310.27,0,0,1,59.15,17.73A316.1,316.1,0,0,1,223.57,91.55,313.8,313.8,0,0,1,292,193.83,312.06,312.06,0,0,1,310,253a318.8,318.8,0,0,1,6,61.55v.89H315L.54,315.11H0v-.54Z"/><text class="cls-3" transform="translate(111.2 79.24) rotate(26.32)">E</text><text class="cls-3" transform="translate(130.34 88.68) rotate(31.81)">N</text><text class="cls-3" transform="matrix(0.79, 0.61, -0.61, 0.79, 153.73, 103.39)">A</text><text class="cls-3" transform="translate(174.09 119.4) rotate(43.24)">B</text><text class="cls-3" transform="matrix(0.67, 0.74, -0.74, 0.67, 190.94, 135.48)">L</text><text class="cls-3" transform="matrix(0.6, 0.8, -0.8, 0.6, 204.65, 150.89)">E</text><text class="cls-3" transform="translate(217.52 167.96) rotate(57.76)">R</text><text class="cls-3" transform="matrix(0.46, 0.89, -0.89, 0.46, 229.74, 187.61)">S</text></g></g></g></svg>