<svg xmlns="http://www.w3.org/2000/svg" viewBox="0 0 314.5 314.92"><defs><style>.cls-1{fill:#80c3b9;}.cls-2{font-size:31.8px;}.cls-2,.cls-3{fill:#fff;font-family:MyriadPro-Regular, Myriad Pro;}.cls-3{font-size:38px;}</style></defs><title>legal2</title><g id="Layer_2" data-name="Layer 2"><g id="Layer_4_szinesebb" data-name="Layer 4 szinesebb"><g id="legal"><path class="cls-1" d="M0,.42c0,173.69,140.81,314.5,314.5,314.5V.42Z"/><text class="cls-2" transform="matrix(0.39, 0.92, -0.92, 0.39, 57.01, 105.84)">F</text><text class="cls-2" transform="translate(64.89 124.24) rotate(63.01)">R</text><text class="cls-2" transform="matrix(0.53, 0.85, -0.85, 0.53, 74.99, 143.75)">A</text><text class="cls-2" transform="matrix(0.61, 0.8, -0.8, 0.61, 87.96, 164.57)">M</text><text class="cls-2" transform="matrix(0.68, 0.74, -0.74, 0.68, 106.85, 188.58)">E</text><text class="cls-2" transform="translate(121.1 204.09) rotate(41.86)">W</text><text class="cls-2" transform="matrix(0.81, 0.58, -0.58, 0.81, 145.5, 225.38)">O</text><text class="cls-2" transform="translate(167.52 240.74) rotate(30.46)">R</text><text class="cls-2" transform="translate(186.4 251.63) rotate(25.85)">K</text><text class="cls-3" transform="translate(106.19 115.23) rotate(60.38)">L</text><text class="cls-3" transform="matrix(0.58, 0.81, -0.81, 0.58, 118.43, 136.15)">E</text><text class="cls-3" transform="matrix(0.67, 0.74, -0.74, 0.67, 133.49, 156.85)">G</text><text class="cls-3" transform="matrix(0.77, 0.64, -0.64, 0.77, 155.35, 180.01)">A</text><text class="cls-3" transform="matrix(0.84, 0.55, -0.55, 0.84, 178.72, 198.88)">L</text></g></g></g></svg>