<svg xmlns="http://www.w3.org/2000/svg" width="321.18" height="316.92" viewBox="0 0 321.18 316.92"><defs><style>.cls-1{fill:#b0d1b9;stroke:#fff;stroke-miterlimit:10;stroke-width:2px;}.cls-2{font-size:31.8px;}.cls-2,.cls-3{fill:#fff;font-family:MyriadPro-Regular, Myriad Pro;}.cls-3{font-size:38px;}</style></defs><title>legal</title><g id="Layer_2" data-name="Layer 2"><g id="Layer_4_szines" data-name="Layer 4 szines"><g id="legal"><path class="cls-1" d="M1,1.42c0,173.69,140.81,314.5,314.5,314.5V1.42Z"/><text class="cls-2" transform="translate(59.65 107.99) rotate(65.97)">F</text><text class="cls-2" transform="translate(67.91 126.19) rotate(61.74)">R</text><text class="cls-2" transform="matrix(0.54, 0.84, -0.84, 0.54, 78.47, 145.5)">A</text><text class="cls-2" transform="matrix(0.62, 0.78, -0.78, 0.62, 91.85, 165.96)">M</text><text class="cls-2" transform="matrix(0.69, 0.72, -0.72, 0.69, 111.2, 189.55)">E</text><text class="cls-2" transform="translate(125.68 204.74) rotate(40.97)">W</text><text class="cls-2" transform="translate(150.29 225.58) rotate(34.97)">O</text><text class="cls-2" transform="matrix(0.87, 0.5, -0.5, 0.87, 172.4, 240.66)">R</text><text class="cls-2" transform="matrix(0.9, 0.43, -0.43, 0.9, 191.28, 251.38)">K</text><text class="cls-3" transform="translate(109.59 117.3) rotate(58.82)">L</text><text class="cls-3" transform="translate(122.38 137.87) rotate(53.01)">E</text><text class="cls-3" transform="translate(137.9 158.08) rotate(46.31)">G</text><text class="cls-3" transform="matrix(0.78, 0.63, -0.63, 0.78, 160.12, 180.63)">A</text><text class="cls-3" transform="translate(183.65 199.02) rotate(32.57)">L</text></g></g></g></svg>