<svg xmlns="http://www.w3.org/2000/svg" width="320.25" height="314.92" viewBox="0 0 320.25 314.92"><defs><style>.cls-1{fill:#80c3b9;}.cls-2{font-size:31.8px;}.cls-2,.cls-3{fill:#fff;font-family:MyriadPro-Regular, Myriad Pro;}.cls-3{font-size:38px;}</style></defs><title>legal_1</title><g id="Layer_2" data-name="Layer 2"><g id="Layer_4_szinesebb" data-name="Layer 4 szinesebb"><g id="legal"><path class="cls-1" d="M0,.42c0,173.69,140.81,314.5,314.5,314.5V.42Z"/><text class="cls-2" transform="translate(58.72 107.99) rotate(65.97)">F</text><text class="cls-2" transform="translate(66.98 126.19) rotate(61.74)">R</text><text class="cls-2" transform="matrix(0.54, 0.84, -0.84, 0.54, 77.54, 145.5)">A</text><text class="cls-2" transform="matrix(0.62, 0.78, -0.78, 0.62, 90.92, 165.96)">M</text><text class="cls-2" transform="matrix(0.69, 0.72, -0.72, 0.69, 110.27, 189.55)">E</text><text class="cls-2" transform="translate(124.75 204.74) rotate(40.97)">W</text><text class="cls-2" transform="translate(149.36 225.58) rotate(34.97)">O</text><text class="cls-2" transform="matrix(0.87, 0.5, -0.5, 0.87, 171.47, 240.66)">R</text><text class="cls-2" transform="matrix(0.9, 0.43, -0.43, 0.9, 190.35, 251.38)">K</text><text class="cls-3" transform="translate(108.66 117.3) rotate(58.82)">L</text><text class="cls-3" transform="translate(121.45 137.87) rotate(53.01)">E</text><text class="cls-3" transform="translate(136.97 158.08) rotate(46.31)">G</text><text class="cls-3" transform="matrix(0.78, 0.63, -0.63, 0.78, 159.19, 180.63)">A</text><text class="cls-3" transform="translate(182.72 199.02) rotate(32.57)">L</text></g></g></g></svg>