<svg xmlns="http://www.w3.org/2000/svg" viewBox="0 0 316.5 316.5"><defs><style>.cls-1{fill:#b0d1b9;stroke:#fff;stroke-miterlimit:10;stroke-width:2px;}.cls-2{font-size:31.62px;}.cls-2,.cls-3{fill:#fff;font-family:MyriadPro-Regular, Myriad Pro;}.cls-3{font-size:37.74px;}</style></defs><title>legal</title><g id="Layer_2" data-name="Layer 2"><g id="Layer_4_szines" data-name="Layer 4 szines"><g id="legal"><path class="cls-1" d="M1,1C1,174.69,141.81,315.5,315.5,315.5V1Z"/><text class="cls-2" transform="translate(54.12 108.41) rotate(65.85) scale(1.01 1)">F</text><text class="cls-2" transform="matrix(0.48, 0.88, -0.88, 0.48, 62.43, 126.61)">R</text><text class="cls-2" transform="translate(73.03 145.87) rotate(56.86) scale(1.01 1)">A</text><text class="cls-2" transform="translate(86.5 166.32) rotate(51.27) scale(1.01 1)">M</text><text class="cls-2" transform="matrix(0.7, 0.72, -0.72, 0.69, 105.91, 189.82)">E</text><text class="cls-2" transform="translate(120.46 204.95) rotate(40.73) scale(1.01 1)">W</text><text class="cls-2" transform="translate(145.14 225.66) rotate(34.72) scale(1.01 1)">O</text><text class="cls-2" transform="matrix(0.87, 0.5, -0.5, 0.87, 167.3, 240.63)">R</text><text class="cls-2" transform="translate(186.21 251.27) rotate(25.38) scale(1.01 1)">K</text><text class="cls-3" transform="matrix(0.52, 0.86, -0.85, 0.52, 104.21, 117.71)">L</text><text class="cls-3" transform="translate(117.07 138.21) rotate(52.75) scale(1.01 1)">E</text><text class="cls-3" transform="matrix(0.7, 0.72, -0.72, 0.69, 132.67, 158.35)">G</text><text class="cls-3" transform="translate(155.01 180.79) rotate(38.69) scale(1.01 1)">A</text><text class="cls-3" transform="matrix(0.85, 0.54, -0.53, 0.85, 178.61, 199.02)">L</text></g></g></g></svg>