<svg xmlns="http://www.w3.org/2000/svg" viewBox="0 0 629.79 629.4"><defs><style>.cls-1{fill:#fff;}.cls-2{font-size:38.32px;}.cls-2,.cls-3,.cls-4,.cls-5{font-family:MyriadPro-Regular, Myriad Pro;}.cls-3{font-size:31.9px;}.cls-4{font-size:31.58px;}.cls-5{font-size:31.9px;}</style></defs><title>menu_ff</title><g id="Layer_2" data-name="Layer 2"><g id="Layer_4" data-name="Layer 4"><g id="enablers"><path class="cls-1" d="M314.86,0v314.5h314.5C629.36,140.84,488.56,0,314.86,0Z"/><path d="M314.9.07l.23,314.46-.27-.27,314.5-.16-.42.42a313.21,313.21,0,0,0-53-174.45,320,320,0,0,0-39-47.61A314.46,314.46,0,0,0,314.9.07ZM314.83,0a316.16,316.16,0,0,1,61.44,5.86,311.51,311.51,0,0,1,59.08,17.8A314.27,314.27,0,0,1,629.79,314.54V315h-.42l-314.5-.16h-.27v-.27Z"/><text class="cls-2" transform="translate(432.64 82.54) rotate(28.08)">E</text><text class="cls-2" transform="translate(449.54 91.41) rotate(33.06)">N</text><text class="cls-2" transform="matrix(0.78, 0.62, -0.62, 0.78, 470.78, 105.29)">A</text><text class="cls-2" transform="translate(489.25 120.09) rotate(43.48)">B</text><text class="cls-2" transform="translate(504.49 134.62) rotate(47.87)">L</text><text class="cls-2" transform="translate(516.83 148.26) rotate(52.04)">E</text><text class="cls-2" transform="matrix(0.55, 0.83, -0.83, 0.55, 528.63, 163.35)">R</text><text class="cls-2" transform="translate(540.12 180.79) rotate(60.98)">S</text></g><g id="socio"><path class="cls-1" d="M314.86,0C141.17,0,.36,140.84.36,314.54h314.5Z"/><path d="M314.83.07a319.67,319.67,0,0,0-61.31,6.09A314.18,314.18,0,0,0,.73,314.54l-.36-.36,314.5-.12-.49.49.17-157.12ZM314.9,0l.28,157.15.17,157.38V315h-.49L.36,314.9H0v-.36A314.49,314.49,0,0,1,314.9,0Z"/><text class="cls-2" transform="translate(68.98 263.64) rotate(-76.81)">S</text><text class="cls-2" transform="matrix(0.31, -0.95, 0.95, 0.31, 73.19, 245)">O</text><text class="cls-2" transform="translate(81.65 219.82) rotate(-66.15)">C</text><text class="cls-2" transform="translate(90.98 199.25) rotate(-62.55)">I</text><text class="cls-2" transform="matrix(0.52, -0.85, 0.85, 0.52, 95.09, 190.7)">O</text><text class="cls-2" transform="matrix(0.59, -0.81, 0.81, 0.59, 109.57, 167.68)">-</text><text class="cls-2" transform="translate(116.62 157.79) rotate(-50.56)">E</text><text class="cls-2" transform="translate(128.72 142.99) rotate(-45.94)">C</text><text class="cls-2" transform="matrix(0.76, -0.65, 0.65, 0.76, 143.66, 127.37)">O</text><text class="cls-2" transform="translate(163.83 110.09) rotate(-34.9)">N</text><text class="cls-2" transform="translate(184.6 95.57) rotate(-29.1)">O</text><text class="cls-2" transform="translate(207.68 82.58) rotate(-22.67)">M</text><text class="cls-2" transform="matrix(0.95, -0.31, 0.31, 0.95, 236.5, 71.02)">I</text><text class="cls-2" transform="translate(245.5 67.88) rotate(-14.49)">C</text></g><g id="technological"><path class="cls-1" d="M314.86,567.14V629c173.69,0,314.5-140.81,314.5-314.5H314.86V567.14"/><path d="M314.91,567.14,315,629l-.09-.09A314.15,314.15,0,0,0,629,314.54l.4.4-314.5.07.46-.46-.41,252.61h-.1l-.41-252.61v-.46h.46l314.5.07h.4v.4a314.57,314.57,0,0,1-314.9,314.59h-.09V629l0-61.89Z"/><text class="cls-3" transform="translate(438.35 571.06) rotate(-26.88)">F</text><text class="cls-3" transform="matrix(0.86, -0.51, 0.51, 0.86, 453.89, 563.14)">R</text><text class="cls-3" transform="translate(470.58 553.23) rotate(-34.75)">A</text><text class="cls-3" transform="matrix(0.77, -0.64, 0.64, 0.77, 488.47, 540.86)">M</text><text class="cls-3" transform="matrix(0.71, -0.7, 0.7, 0.71, 509.72, 522.81)">E</text><text class="cls-3" transform="translate(522.89 510.11) rotate(-49.19)">W</text><text class="cls-3" transform="matrix(0.58, -0.82, 0.82, 0.58, 541.99, 487.62)">O</text><text class="cls-3" transform="translate(555.81 467.84) rotate(-59.03)">R</text><text class="cls-3" transform="matrix(0.46, -0.89, 0.89, 0.46, 565.61, 451.39)">K</text><text class="cls-4" transform="translate(375.51 545.71) rotate(-15.98)">T</text><text class="cls-4" transform="translate(392.58 540.73) rotate(-20.28)">E</text><text class="cls-4" transform="matrix(0.91, -0.42, 0.42, 0.91, 409.26, 534.54)">C</text><text class="cls-4" transform="matrix(0.86, -0.5, 0.5, 0.86, 428.07, 525.73)">H</text><text class="cls-4" transform="translate(448.01 513.97) rotate(-35.81)">N</text><text class="cls-4" transform="matrix(0.75, -0.66, 0.66, 0.75, 466.93, 500.18)">O</text><text class="cls-4" transform="matrix(0.69, -0.73, 0.73, 0.69, 484.79, 484.03)">L</text><text class="cls-4" transform="matrix(0.63, -0.78, 0.78, 0.63, 495.81, 472.55)">O</text><text class="cls-4" transform="translate(510.95 453.5) rotate(-56.83)">G</text><text class="cls-4" transform="translate(522.96 434.62) rotate(-60.67)">I</text><text class="cls-4" transform="translate(527.66 426.47) rotate(-64.25)">C</text><text class="cls-4" transform="translate(536.64 407.64) rotate(-69.43)">A</text><text class="cls-4" transform="translate(544.06 387.36) rotate(-74.13)">L</text></g><g id="legal"><path class="cls-1" d="M.36,314.54C.36,488.23,141.17,629,314.86,629V314.54Z"/><path d="M.4,314.57a319.67,319.67,0,0,0,6.09,61.31A314.18,314.18,0,0,0,314.86,628.67l-.36.36-.12-314.5.49.49-157.12-.17Zm-.07-.07,157.15-.28L314.86,314h.49v.49L315.23,629v.36h-.36A314.49,314.49,0,0,1,.33,314.5Z"/><text class="cls-2" transform="matrix(0.57, 0.82, -0.82, 0.57, 77.72, 468.72)">L</text><text class="cls-2" transform="matrix(0.63, 0.78, -0.78, 0.63, 89.85, 486.19)">E</text><text class="cls-2" transform="translate(103.92 503.65) rotate(46.2)">G</text><text class="cls-2" transform="translate(123.89 524.17) rotate(40.67)">A</text><text class="cls-2" transform="translate(144.45 541.49) rotate(35.88)">L</text><text class="cls-5" transform="matrix(0.38, -0.92, 0.92, 0.38, 120.37, 239.01)">F</text><text class="cls-5" transform="translate(126.35 224.44) rotate(-63.11)">R</text><text class="cls-5" transform="translate(134.24 208.81) rotate(-58.08)">A</text><text class="cls-5" transform="translate(144.41 192.18) rotate(-52.05)">M</text><text class="cls-5" transform="translate(160.44 172.03) rotate(-46.49)">E</text><text class="cls-5" transform="matrix(0.76, -0.65, 0.65, 0.76, 171.34, 160.16)">W</text><text class="cls-5" transform="matrix(0.83, -0.56, 0.56, 0.83, 191.92, 142.66)">O</text><text class="cls-5" transform="translate(210.32 130.32) rotate(-28.84)">R</text><text class="cls-5" transform="translate(225.52 121.96) rotate(-24.14)">K</text></g><rect class="cls-1" x="163.73" y="153.37" width="303.63" height="322.5" rx="51.44" ry="51.44"/><path d="M415.91,475.92,270.43,476l-36.37,0-18.19,0a54.09,54.09,0,0,1-17.9-3,51.55,51.55,0,0,1-33.69-39.88l-.35-2.26-.17-1.13c0-.38,0-.76-.07-1.14-.07-1.52-.17-3-.22-4.56V415l-.08-145.48,0-36.37V205.86c0-1.51.12-3,.17-4.57a22,22,0,0,1,.17-2.28l.34-2.26a51.4,51.4,0,0,1,17.47-31.31,52.12,52.12,0,0,1,15.71-9.21A53,53,0,0,1,215.17,153l145.48,0h54.56a54.4,54.4,0,0,1,18,3A51.83,51.83,0,0,1,467.05,196l.35,2.27.17,1.13c0,.38,0,.76.07,1.15.07,1.53.17,3.06.22,4.58v9.09l-.23,145.48-.05,36.37,0,18.19c-.08,6,.28,12.15-.71,18.17a51.16,51.16,0,0,1-17.45,31.13,51.82,51.82,0,0,1-15.64,9.13A52.63,52.63,0,0,1,415.91,475.92Zm0-.1a52.51,52.51,0,0,0,17.77-3.25,51.64,51.64,0,0,0,15.56-9.14,50.89,50.89,0,0,0,17.27-31c1-6,.6-12.07.66-18.12l0-18.19-.05-36.37-.23-145.48v-9.09c0-1.51-.14-3-.21-4.5,0-.37,0-.75-.06-1.12l-.17-1.11-.34-2.23a50.64,50.64,0,0,0-33.19-39.39c-11.38-4.3-23.81-2.62-35.87-3H360.65l-145.48,0A52.18,52.18,0,0,0,197.51,157,51.35,51.35,0,0,0,182,166a50.65,50.65,0,0,0-17.25,30.84c-1,5.94-.62,12-.69,18.09v18.19l0,36.37L164,415c.06,6.06-.33,12.15.77,18.1a50.93,50.93,0,0,0,33.35,39.63,53.75,53.75,0,0,0,17.78,3l18.19,0,36.37,0Z"/><rect class="cls-1" x="202.44" y="216.52" width="96.5" height="39.03"/><path d="M202.4,216.49l96.54-.28h.31v.31l.09,39v.4h-.4c-8,0-16.08.11-24.13.09H250.69l-24.13,0-24.13-.13h-.35v-.35l.12-19.61Zm.07.07.19,19.57.12,19.42-.35-.35,24.13-.13,24.13,0h24.13c8,0,16.08.06,24.13.09l-.4.4.09-39,.31.31Z"/><rect class="cls-1" x="250.23" y="298.82" width="124.89" height="39.03"/><path d="M375.15,337.88l-124.92.29h-.33v-.33l-.07-39v-.4h.4l31.22-.09h31.22l31.22,0,31.22.14h.31v.31l-.11,19.6Zm-.07-.07-.17-19.56-.11-19.43.31.31-31.22.14-31.22,0H281.45l-31.22-.09.4-.4-.07,39-.33-.33Z"/><rect class="cls-1" x="203.73" y="380.32" width="217.89" height="39.03"/><path d="M421.65,419.38l-217.92.32h-.35v-.36l0-39v-.4h.4l54.47-.09h54.47l108.94.25h.25v.25Zm-.07-.07-.21-39,.25.25-108.94.25H258.2l-54.47-.09.4-.4,0,39-.35-.35Z"/><rect class="cls-1" x="338.12" y="216.42" width="96.5" height="39.03"/><path d="M434.66,255.48l-96.54.28h-.31v-.31l-.09-39V216h.4c8,0,16.08-.11,24.13-.09h24.13l24.13,0,24.13.13H435v.35L434.85,236Zm-.07-.07-.19-19.57-.12-19.42.35.35-24.13.13-24.13,0H362.25c-8,0-16.08-.06-24.13-.09l.4-.4-.09,39-.31-.31Z"/></g></g></svg>