<svg xmlns="http://www.w3.org/2000/svg" viewBox="0 0 316.5 316.5"><defs><style>.cls-1{fill:#a5b1c0;stroke:#fff;stroke-miterlimit:10;stroke-width:2px;}.cls-2{font-size:38.32px;}.cls-2,.cls-3{fill:#fff;font-family:MyriadPro-Regular, Myriad Pro;}.cls-3{font-size:31.9px;}</style></defs><title>socio</title><g id="Layer_2" data-name="Layer 2"><g id="Layer_4_szines" data-name="Layer 4 szines"><g id="socio"><path class="cls-1" d="M315.5,1C141.81,1,1,141.81,1,315.5H315.5Z"/><text class="cls-2" transform="translate(61.55 279.84) rotate(-80.09)">S</text><text class="cls-2" transform="translate(65.16 258.79) rotate(-74.45)">O</text><text class="cls-2" transform="translate(73.12 231.1) rotate(-68.42)">C</text><text class="cls-2" transform="translate(82.55 208.14) rotate(-64.31)">I</text><text class="cls-2" transform="matrix(0.5, -0.86, 0.86, 0.5, 87.41, 197.48)">O</text><text class="cls-2" transform="translate(102.63 172.27) rotate(-54.81)">-</text><text class="cls-2" transform="matrix(0.63, -0.78, 0.78, 0.63, 110.91, 160.48)">E</text><text class="cls-2" transform="translate(124.43 143.94) rotate(-45.69)">C</text><text class="cls-2" transform="translate(141.07 126.87) rotate(-39.93)">O</text><text class="cls-2" transform="translate(163.27 108.5) rotate(-33.64)">N</text><text class="cls-2" transform="matrix(0.89, -0.46, 0.46, 0.89, 186.3, 93.29)">O</text><text class="cls-2" transform="matrix(0.94, -0.35, 0.35, 0.94, 211.79, 80.12)">M</text><text class="cls-2" transform="translate(243.22 69.06) rotate(-15.33)">I</text><text class="cls-2" transform="translate(254.54 65.81) rotate(-11.21)">C</text><text class="cls-3" transform="translate(112.85 247.04) rotate(-69.6)">F</text><text class="cls-3" transform="matrix(0.43, -0.9, 0.9, 0.43, 119.05, 230.53)">R</text><text class="cls-3" transform="translate(127.4 213.05) rotate(-59.08)">A</text><text class="cls-3" transform="matrix(0.61, -0.79, 0.79, 0.61, 138.31, 194.69)">M</text><text class="cls-3" transform="matrix(0.69, -0.73, 0.73, 0.69, 155.4, 172.99)">E</text><text class="cls-3" transform="matrix(0.76, -0.65, 0.65, 0.76, 167.64, 159.82)">W</text><text class="cls-3" transform="matrix(0.84, -0.55, 0.55, 0.84, 189.87, 141.39)">O</text><text class="cls-3" transform="translate(210.11 128.45) rotate(-27.33)">R</text><text class="cls-3" transform="matrix(0.93, -0.38, 0.38, 0.93, 227.22, 119.71)">K</text></g></g></g></svg>