<svg xmlns="http://www.w3.org/2000/svg" viewBox="0 0 314.5 314.5"><defs><style>.cls-1{fill:#83a8c0;}.cls-2{font-size:38.32px;}.cls-2,.cls-3{fill:#fff;font-family:MyriadPro-Regular, Myriad Pro;}.cls-3{font-size:31.9px;}</style></defs><title>socio2</title><g id="Layer_2" data-name="Layer 2"><g id="Layer_4_szinesebb" data-name="Layer 4 szinesebb"><g id="socio"><path class="cls-1" d="M314.5,0C140.81,0,0,140.81,0,314.5H314.5Z"/><text class="cls-2" transform="translate(65.9 279.78) rotate(-80.92)">S</text><text class="cls-2" transform="matrix(0.25, -0.97, 0.97, 0.25, 69.2, 258.69)">O</text><text class="cls-2" transform="translate(76.66 230.83) rotate(-69.59)">C</text><text class="cls-2" transform="translate(85.62 207.67) rotate(-65.53)">I</text><text class="cls-2" transform="translate(90.26 196.89) rotate(-60.98)">O</text><text class="cls-2" transform="matrix(0.56, -0.83, 0.83, 0.56, 104.93, 171.37)">-</text><text class="cls-2" transform="matrix(0.62, -0.79, 0.79, 0.62, 112.96, 159.41)">E</text><text class="cls-2" transform="matrix(0.69, -0.73, 0.73, 0.69, 126.14, 142.63)">C</text><text class="cls-2" transform="matrix(0.76, -0.65, 0.65, 0.76, 142.47, 125.27)">O</text><text class="cls-2" transform="translate(164.37 106.62) rotate(-34.21)">N</text><text class="cls-2" transform="translate(187.22 91.21) rotate(-27.63)">O</text><text class="cls-2" transform="translate(212.64 77.91) rotate(-20.4)">M</text><text class="cls-2" transform="translate(244.05 66.88) rotate(-15.16)">I</text><text class="cls-2" transform="matrix(0.98, -0.19, 0.19, 0.98, 255.36, 63.67)">C</text><text class="cls-3" transform="translate(116.46 247.61) rotate(-70.97)">F</text><text class="cls-3" transform="translate(122.26 230.97) rotate(-66.08)">R</text><text class="cls-3" transform="translate(130.16 213.28) rotate(-60.57)">A</text><text class="cls-3" transform="translate(140.59 194.64) rotate(-53.94)">M</text><text class="cls-3" transform="matrix(0.67, -0.74, 0.74, 0.67, 157.14, 172.55)">E</text><text class="cls-3" transform="matrix(0.75, -0.66, 0.66, 0.75, 169.08, 159.12)">W</text><text class="cls-3" transform="translate(190.98 140.33) rotate(-33.78)">O</text><text class="cls-3" transform="translate(211.02 127.2) rotate(-27.68)">R</text><text class="cls-3" transform="translate(228.09 118.36) rotate(-22.21)">K</text></g></g></g></svg>