<svg xmlns="http://www.w3.org/2000/svg" viewBox="0 0 316.5 316.5"><defs><style>.cls-1{fill:#e7c792;stroke:#fff;stroke-miterlimit:10;stroke-width:2px;}.cls-2{font-size:31.9px;}.cls-2,.cls-3{fill:#fff;font-family:MyriadPro-Regular, Myriad Pro;}.cls-3{font-size:38px;}</style></defs><title>technological</title><g id="Layer_2" data-name="Layer 2"><g id="Layer_4_szines" data-name="Layer 4 szines"><g id="technological"><path class="cls-1" d="M1,253.61V315.5C174.69,315.5,315.5,174.69,315.5,1H1V253.61"/><text class="cls-2" transform="translate(116.99 260.93) rotate(-25.21)">F</text><text class="cls-2" transform="translate(134.6 252.52) rotate(-29.34)">R</text><text class="cls-2" transform="translate(153.23 241.9) rotate(-33.92)">A</text><text class="cls-2" transform="matrix(0.77, -0.63, 0.63, 0.77, 172.98, 228.56)">M</text><text class="cls-2" transform="matrix(0.71, -0.7, 0.7, 0.71, 195.85, 209.28)">E</text><text class="cls-2" transform="translate(210.45 195.06) rotate(-49.61)">W</text><text class="cls-2" transform="matrix(0.57, -0.82, 0.82, 0.57, 230.62, 170.8)">O</text><text class="cls-2" transform="translate(245.24 149.06) rotate(-60.28)">R</text><text class="cls-2" transform="translate(255.61 130.58) rotate(-64.6)">K</text><text class="cls-3" transform="matrix(0.99, -0.12, 0.12, 0.99, 22.87, 243.97)">T</text><text class="cls-3" transform="translate(46.95 240.87) rotate(-12.41)">E</text><text class="cls-3" transform="matrix(0.95, -0.32, 0.32, 0.95, 70.62, 235.45)">C</text><text class="cls-3" transform="translate(97.06 226.28) rotate(-25.52)">H</text><text class="cls-3" transform="matrix(0.84, -0.54, 0.54, 0.84, 124.72, 212.65)">N</text><text class="cls-3" transform="translate(150.69 195.46) rotate(-40.28)">O</text><text class="cls-3" transform="matrix(0.68, -0.73, 0.73, 0.68, 174.65, 174.42)">L</text><text class="cls-3" transform="matrix(0.6, -0.8, 0.8, 0.6, 189.76, 158.34)">O</text><text class="cls-3" transform="translate(208.86 132.31) rotate(-60.34)">G</text><text class="cls-3" transform="translate(223.06 106.17) rotate(-65.55)">I</text><text class="cls-3" transform="translate(228.98 93.31) rotate(-70.44)">C</text><text class="cls-3" transform="translate(238.06 66.79) rotate(-77.24)">A</text><text class="cls-3" transform="matrix(0.11, -0.99, 0.99, 0.11, 244, 38.56)">L</text></g></g></g></svg>