<svg xmlns="http://www.w3.org/2000/svg" width="629.79" height="629.4" viewBox="0 0 629.79 629.4"><defs><style>.cls-1{fill:#fff;}.cls-2{fill:none;stroke:#000;stroke-miterlimit:10;stroke-width:0.94px;}</style></defs><title>menuff</title><g id="Layer_2" data-name="Layer 2"><g id="Layer_4" data-name="Layer 4"><g id="enablers"><path class="cls-1" d="M314.86,0v314.5h314.5C629.36,140.84,488.56,0,314.86,0Z"/><path d="M314.9.07l.23,314.46-.27-.27,314.5-.16-.42.42a313.21,313.21,0,0,0-53-174.45,320,320,0,0,0-39-47.61A314.46,314.46,0,0,0,314.9.07ZM314.83,0a316.16,316.16,0,0,1,61.44,5.86,311.51,311.51,0,0,1,59.08,17.8A314.27,314.27,0,0,1,629.79,314.54V315h-.42l-314.5-.16h-.27v-.27Z"/></g><g id="socio"><path class="cls-1" d="M314.86,0C141.17,0,.36,140.84.36,314.54h314.5Z"/><path d="M314.83.07a319.67,319.67,0,0,0-61.31,6.09A314.18,314.18,0,0,0,.73,314.54l-.36-.36,314.5-.12-.49.49.17-157.12ZM314.9,0l.28,157.15.17,157.38V315h-.49L.36,314.9H0v-.36A314.49,314.49,0,0,1,314.9,0Z"/></g><g id="technological"><path class="cls-1" d="M314.86,567.14V629c173.69,0,314.5-140.81,314.5-314.5H314.86V567.14"/><path d="M314.91,567.14,315,629l-.09-.09A314.15,314.15,0,0,0,629,314.54l.4.4-314.5.07.46-.46-.41,252.61h-.1l-.41-252.61v-.46h.46l314.5.07h.4v.4a314.57,314.57,0,0,1-314.9,314.59h-.09V629l0-61.89Z"/></g><g id="legal"><path class="cls-1" d="M.36,314.54C.36,488.23,141.17,629,314.86,629V314.54Z"/><path d="M.4,314.57a319.67,319.67,0,0,0,6.09,61.31A314.18,314.18,0,0,0,314.86,628.67l-.36.36-.12-314.5.49.49-157.12-.17Zm-.07-.07,157.15-.28L314.86,314h.49v.49L315.23,629v.36h-.36A314.49,314.49,0,0,1,.33,314.5Z"/><path d="M128.37,421.64l1.71,2.83-19.54,11.82,5.66,9.36-2.37,1.44-7.37-12.19Z"/><path d="M137.06,458.66l-6-8-7.38,5.56,6.68,8.86-2.22,1.67-8.67-11.5,20.46-15.42,8.33,11-2.21,1.67-6.34-8.41-6.46,4.87,6,8Z"/><path d="M149.54,488.6a23.87,23.87,0,0,1-6.45-4.72c-2.68-2.8-4.17-5.79-4.17-9.26a13.18,13.18,0,0,1,4.43-9.17c5.55-5.25,13.21-5.31,19.14.9a15.82,15.82,0,0,1,3.56,5.43l-2.5,1.29a13.27,13.27,0,0,0-3.11-4.86c-4.3-4.51-9.92-4.77-14.56-.34s-4.77,10-.65,14.28a10.78,10.78,0,0,0,3.54,2.72l5.52-5.28-3.6-3.77,1.92-1.84,5.83,6.1Z"/><path d="M166,493.91l-7.14,4.58-2.66-2.15,22.88-14.43,3.1,2.51-9.33,25.4-2.75-2.22,2.94-8Zm8.15,3.28,2.69-7.31c.61-1.66,1.27-3.08,1.91-4.47l-.06,0c-1.25.94-2.56,1.89-3.92,2.79l-6.61,4.18Z"/><path d="M195.24,494.1l2.79,1.78-12.3,19.25L195,521l-1.49,2.34-12-7.67Z"/></g><rect class="cls-1" x="175.39" y="178.04" width="280.29" height="276" rx="16.65" ry="16.65"/><path d="M439,454.08l-135.5.05-67.75.07-33.87,0h-8.47a18.32,18.32,0,0,1-8.35-1.5,16.9,16.9,0,0,1-9.8-13.2c-.13-.71-.1-1.43-.15-2.14V405.66l0-33.87,0-67.75,0-67.75,0-33.87c0-2.83,0-5.63,0-8.48a16.41,16.41,0,0,1,2.51-8.18,17.08,17.08,0,0,1,6.18-5.93,17.41,17.41,0,0,1,8.29-2.17l135.5,0,67.75,0h42.34a18.58,18.58,0,0,1,8.45,1.52A17.15,17.15,0,0,1,456,192.48c.13.72.1,1.45.15,2.17v14.82l0,16.94-.06,33.87L455.95,328l-.1,67.75-.05,33.87c0,2.82,0,5.64-.05,8.47a16.11,16.11,0,0,1-2.48,8,16.77,16.77,0,0,1-6.08,5.81A17.09,17.09,0,0,1,439,454.08Zm0-.1a17,17,0,0,0,8.08-2.12,16.64,16.64,0,0,0,6-5.78,16,16,0,0,0,2.43-8c.07-2.81,0-5.64,0-8.46l-.05-33.87-.1-67.75-.11-67.75-.06-33.87,0-16.94V194.65c-.06-.68,0-1.37-.15-2A16.19,16.19,0,0,0,445.69,180a19.61,19.61,0,0,0-1.92-.74,17.32,17.32,0,0,0-2-.46l-1-.16-1-.06c-.68-.05-1.39,0-2.1,0H395.29l-67.75,0-135.5,0a16.65,16.65,0,0,0-7.92,2.06,16.32,16.32,0,0,0-5.91,5.66A15.66,15.66,0,0,0,175.8,194c-.08,2.79,0,5.64,0,8.45l0,33.87,0,67.75,0,67.75,0,33.87v31.76c.06.69,0,1.39.15,2.08a16.43,16.43,0,0,0,9.5,12.85,17.87,17.87,0,0,0,8.16,1.47h8.47l33.87,0,67.75.07Z"/><path d="M441.42,76.57l-9-4.45-4.13,8.35,10,5-1.24,2.51-13-6.44,11.45-23.15L448,64.53,446.77,67l-9.51-4.7-3.62,7.32,9,4.45Z"/><path d="M443.08,91.18l13.62-21.95,3.09,1.92.14,15.47a73.16,73.16,0,0,1-.48,9.58h.08c1.56-3.09,3.15-5.8,5.27-9.22l5.7-9.18,2.67,1.66L459.55,101.4l-2.87-1.78-.06-15.46a82,82,0,0,1,.44-9.87l-.12,0c-1.55,2.87-3.13,5.55-5.39,9.19l-5.82,9.38Z"/><path d="M474.57,102.27l-7.1,4.78-2.73-2.11,22.75-15,3.18,2.46-8.85,25.81L479,116l2.79-8.11Zm8.29,3.13L485.41,98c.58-1.68,1.21-3.13,1.83-4.55l-.06,0c-1.24,1-2.54,2-3.89,2.9l-6.58,4.36Z"/><path d="M503.92,103.8a32.27,32.27,0,0,1,4.8,3.78c2.43,2.28,3.6,4.17,3.88,6.22a5.41,5.41,0,0,1-1.56,4.79,6.13,6.13,0,0,1-7.07,1.14l-.05.06a6.66,6.66,0,0,1-.56,8.36,7,7,0,0,1-5.13,2.27c-2.44,0-5.09-1.47-8.16-4.36a38.92,38.92,0,0,1-3.56-3.77Zm-13.29,19a17.79,17.79,0,0,0,1.93,2c2.51,2.36,5.69,3.62,8.27.88,2.42-2.57,1.21-5.7-1.44-8.19l-2-1.89Zm8.48-9,2.2,2.07c2.57,2.41,5.33,2.49,7,.68,2.07-2.21,1.21-4.65-1.24-7a14.27,14.27,0,0,0-2.31-1.85Z"/><path d="M522.38,121.37l2.22,2.48-17.15,15.37,7.37,8.22-2.08,1.87-9.59-10.7Z"/><path d="M534.4,157.5l-6.07-8-7.42,5.63,6.77,8.91-2.23,1.69-8.78-11.57,20.57-15.62,8.44,11.11-2.23,1.69L537,142.9l-6.5,4.94,6.07,8Z"/><path d="M550.89,157.79a34.7,34.7,0,0,1,3.87,5.13c1.9,3,2.58,5.31,2.21,7.44a6.43,6.43,0,0,1-3.07,4.33,6.78,6.78,0,0,1-8.17-.6l-.1.06c.48,2.05-.44,4-2.38,6a41.11,41.11,0,0,0-4.93,5.47l-1.84-2.92a33.51,33.51,0,0,1,4.3-4.75c2.61-2.55,3-4.43,1.49-7.05l-1.68-2.66-9.46,6-1.78-2.82Zm-8.17,9.1,1.82,2.88c1.9,3,4.76,3.88,7.26,2.31,2.82-1.78,2.76-4.6.91-7.6a13.68,13.68,0,0,0-2-2.62Z"/><path d="M544.73,188.89A11.81,11.81,0,0,0,546,195c1.56,3,4.08,4,6.39,2.78,2.15-1.11,2.74-3,2.33-6.68-.6-4.43.15-7.75,3.38-9.41,3.58-1.84,7.76-.25,10.06,4.21a11.73,11.73,0,0,1,1.49,5.65l-2.84.43a10.29,10.29,0,0,0-1.16-4.92c-1.61-3.13-4.1-3.36-5.67-2.55-2.15,1.11-2.48,3-2.08,6.84.5,4.65-.35,7.6-3.73,9.33-3.54,1.83-8,.78-10.75-4.63a13.34,13.34,0,0,1-1.55-6.61Z"/><path d="M58.94,275.93a11.81,11.81,0,0,0,2.69-5.6c.59-3.36-.85-5.63-3.41-6.08-2.38-.42-4,.71-5.9,3.91-2.2,3.9-4.8,6.09-8.38,5.46-4-.69-6.33-4.49-5.47-9.44a11.73,11.73,0,0,1,2.23-5.41l2.52,1.37a10.28,10.28,0,0,0-2.05,4.62c-.61,3.47,1.24,5.16,3,5.46,2.38.42,3.82-.93,5.79-4.2,2.41-4,4.87-5.84,8.61-5.19,3.93.69,6.82,4.19,5.77,10.19a13.35,13.35,0,0,1-2.76,6.21Z"/><path d="M60.13,230.39c8.56,2.38,11.66,8.85,9.89,15.2-1.83,6.57-8.21,9.77-15.73,7.67-7.9-2.2-11.7-8.54-9.85-15.19S52.75,228.34,60.13,230.39Zm-5,19.42c5.32,1.48,10.88-.08,12.28-5.13S65,235.4,59.33,233.83C54.39,232.46,48.5,233.6,47,239S49.7,248.29,55.17,249.81Z"/><path d="M81,210.5a16.54,16.54,0,0,1-1.37,6.79c-2.68,6.77-9,10.17-16.84,7.06-7.52-3-10.6-10.08-7.66-17.53a13.85,13.85,0,0,1,3.32-5.28l2.23,1.75a12.14,12.14,0,0,0-2.91,4.45c-2.23,5.63-.11,10.79,6.2,13.29,5.88,2.32,11,.43,13.3-5.41a13.34,13.34,0,0,0,1-5.45Z"/><path d="M63,190.52l23.27,11.2-1.45,3-23.27-11.2Z"/><path d="M89.59,168.44c7.68,4.48,9,11.52,5.71,17.21-3.44,5.89-10.42,7.36-17.17,3.43C71,184.95,69,177.84,72.46,171.89S83,164.58,89.59,168.44ZM79.86,186c4.77,2.78,10.54,2.69,13.19-1.85s0-9.6-5.1-12.55c-4.44-2.59-10.42-3-13.22,1.83S75,183.1,79.86,186Z"/><path d="M100.23,156.1l2,1.44-5.45,7.73-2-1.44Z"/><path d="M112.79,139.4l-6.34,7.78,7.22,5.88,7.07-8.67,2.17,1.77-9.18,11.25-20-16.32,8.81-10.81,2.17,1.77L98,140.28l6.33,5.16,6.34-7.78Z"/><path d="M139.44,127.56a16.55,16.55,0,0,1-3.89,5.74c-5.08,5.21-12.2,5.92-18.26,0-5.79-5.65-5.88-13.4-.29-19.13a13.84,13.84,0,0,1,5.1-3.58l1.38,2.48a12.14,12.14,0,0,0-4.41,3c-4.23,4.33-4.27,9.91.58,14.65,4.52,4.42,10,4.65,14.36.15a13.34,13.34,0,0,0,3-4.64Z"/><path d="M152.74,99.92c5.71,6.82,4.59,13.9-.47,18.13-5.23,4.38-12.3,3.4-17.32-2.6-5.26-6.29-4.8-13.67.49-18.1S147.82,94,152.74,99.92Zm-15.1,13.19c3.54,4.23,9,6.1,13,2.73s3.22-9-.54-13.54c-3.3-3.94-8.8-6.33-13.06-2.76S134,108.76,137.64,113.11Z"/><path d="M166.66,106.09,152.36,84.59l3-2,14.13,6.29A73.12,73.12,0,0,1,178,93.28l0-.07c-2.17-2.7-4-5.27-6.2-8.62l-6-9,2.62-1.74L182.8,95.35,180,97.22l-14.08-6.36a82.09,82.09,0,0,1-8.79-4.5l-.07.1c2,2.6,3.75,5.15,6.12,8.72l6.11,9.18Z"/><path d="M203.41,69.31c4.08,7.9,1.45,14.57-4.41,17.59-6.06,3.13-12.74.63-16.33-6.31C178.91,73.31,181,66.2,187.1,63S199.89,62.5,203.41,69.31ZM185.8,78.89c2.53,4.9,7.46,7.92,12.12,5.51s5.12-8.12,2.43-13.33c-2.36-4.56-7.2-8.1-12.14-5.54S183.2,73.85,185.8,78.89Z"/><path d="M231.95,60.09c-1.43-3.31-3.16-7.29-4.24-10.32l-.11,0c.23,3.14.34,6.54.36,10.33l.09,13.33-2.37.88-8.2-10.07c-2.42-3-4.55-5.75-6.3-8.37l-.07,0c1,3,2.38,7.17,3.51,10.88l3.21,10.62-3,1.11L207.54,53.7l4-1.48L220,62.4c2.11,2.61,3.93,5,5.47,7.25l.11,0c-.3-2.67-.42-5.65-.48-9.1l0-13.31,4-1.48,10.51,23.65-3.05,1.13Z"/><path d="M243.39,41.7l6.83,24.91-3.22.88-6.83-24.91Z"/><path d="M275.91,60.11a16.55,16.55,0,0,1-6.45,2.53c-7.14,1.42-13.41-2-15.05-10.34-1.57-7.93,2.74-14.37,10.59-15.93a13.85,13.85,0,0,1,6.24-.06L271,39.14a12.14,12.14,0,0,0-5.32,0c-5.94,1.18-9.13,5.75-7.81,12.41,1.23,6.2,5.59,9.48,11.75,8.26a13.35,13.35,0,0,0,5.13-2.11Z"/><path d="M94.52,237.31l4-10.85,2.18.81-3.07,8.25,6.7,2.49,2.84-7.62,2.15.8-2.84,7.62,9.12,3.39-1,2.6Z"/><path d="M101.89,219.28a28.92,28.92,0,0,1,1.88-5c1.27-2.68,2.58-4.18,4.25-4.87a5.36,5.36,0,0,1,4.41.22,5.65,5.65,0,0,1,3.22,6l.09,0c1.23-1.25,3-1.49,5.27-1a34.25,34.25,0,0,0,6,1l-1.23,2.59a27.85,27.85,0,0,1-5.26-.9c-3-.69-4.46-.14-5.62,2.1l-1.12,2.36,8.42,4-1.19,2.51Zm10,1.69,1.22-2.57c1.27-2.68.61-5.08-1.61-6.13-2.51-1.19-4.46.11-5.75,2.75a11.43,11.43,0,0,0-.95,2.59Z"/><path d="M125.6,204.55l4.66,5.39-1.48,2.46-14.7-17.31,1.72-2.87L138,197l-1.52,2.55-7-1.5Zm1.76-7.16L121,196c-1.45-.31-2.71-.69-3.94-1.06l0,.05c.93.93,1.87,1.9,2.78,2.93l4.26,5Z"/><path d="M144.28,172.67c-2.48-1.7-5.46-3.74-7.56-5.39l-.06.08c1.55,2.11,3.14,4.45,4.84,7.12l6,9.36-1.28,1.67L135.94,182c-3-1-5.75-2-8.15-3.11l0,.05c2.09,1.68,4.85,4,7.3,6.11l7,6.06-1.61,2.1L124.25,179l2.15-2.81,10.49,3.41c2.65.9,5,1.75,7.07,2.68l.06-.08c-1.39-1.75-2.8-3.79-4.37-6.2l-5.93-9.36,2.15-2.81,17.89,12L152.1,178Z"/><path d="M158.39,156.26l-5.75,6.06,5.62,5.34,6.41-6.75,1.69,1.6L158,171.27l-15.59-14.8,8-8.42,1.69,1.6L146,156.06l4.93,4.68,5.75-6.06Z"/><path d="M173.15,156l-18-12.9,2.24-1.89,9,6.66c2.22,1.64,4.38,3.31,6,4.65l0,0c-1.11-1.86-2.25-4.24-3.48-6.83l-4.81-10.14,2.22-1.87,9,6.65c2.11,1.56,4.19,3.14,5.9,4.66l0,0c-1.18-2.09-2.26-4.31-3.48-6.79L173,128l2.17-1.83,9.22,20.36-2.22,1.87-9.3-6.8a64.75,64.75,0,0,1-5.6-4.46l0,0a67.15,67.15,0,0,1,3.26,6.43l4.89,10.53Z"/><path d="M202.27,120.87c4,6.2,2.42,11.94-2.17,14.94-4.76,3.1-10.5,1.6-14.06-3.85-3.73-5.72-2.62-11.78,2.19-14.92S198.78,115.52,202.27,120.87Zm-13.78,9.42c2.51,3.85,6.85,5.93,10.51,3.54s3.56-7.16.89-11.25c-2.34-3.58-6.65-6.1-10.52-3.57S185.9,126.33,188.48,130.28Z"/><path d="M203.48,108.54A28.93,28.93,0,0,1,208,105.7c2.63-1.36,4.58-1.76,6.33-1.3a5.35,5.35,0,0,1,3.38,2.85,5.64,5.64,0,0,1-1.08,6.73l0,.08c1.74-.25,3.32.65,4.8,2.4a34.25,34.25,0,0,0,4.18,4.48l-2.55,1.32a27.85,27.85,0,0,1-3.63-3.9c-1.93-2.34-3.46-2.81-5.74-1.73l-2.32,1.2,4.28,8.27-2.47,1.27Zm7,7.42,2.52-1.3c2.64-1.36,3.56-3.67,2.43-5.85-1.27-2.47-3.62-2.62-6.24-1.3a11.42,11.42,0,0,0-2.32,1.49Z"/><path d="M222.35,98.91l2.57-1,3.9,9.61.09,0c.22-1,.46-1.91.7-2.76l3.05-10,3.19-1.3-3.78,11.38,12.43,8.31-3,1.24-10.54-7.12-1,3,3.09,7.6-2.57,1Z"/><path d="M419.83,555l10.47-4.93,1,2.11-8,3.75,3,6.46,7.36-3.46,1,2.08-7.36,3.46,4.14,8.8L429,574.44Z"/><path d="M436.11,547.38a28.89,28.89,0,0,1,4.42-3c2.59-1.45,4.52-1.92,6.28-1.52a5.35,5.35,0,0,1,3.47,2.73,5.64,5.64,0,0,1-.84,6.77l0,.08c1.73-.31,3.34.54,4.88,2.23a34.23,34.23,0,0,0,4.34,4.33l-2.5,1.41a27.88,27.88,0,0,1-3.77-3.77c-2-2.27-3.56-2.68-5.8-1.53l-2.28,1.28,4.56,8.12-2.42,1.36Zm7.21,7.18,2.47-1.39c2.59-1.45,3.43-3.79,2.23-5.93-1.36-2.42-3.7-2.49-6.28-1.08a11.42,11.42,0,0,0-2.27,1.57Z"/><path d="M464.15,547.53l1.92,6.86-2.38,1.6-5.94-21.92,2.78-1.87L478.62,546l-2.46,1.66-5.68-4.33Zm4.64-5.74-5.2-4c-1.18-.9-2.16-1.78-3.12-2.63l-.05,0c.45,1.24.89,2.52,1.27,3.83l1.73,6.34Z"/><path d="M492.68,522.77c-2-2.22-4.46-4.89-6.13-7l-.07.06c1,2.42,2,5.05,3.08,8l3.68,10.47-1.63,1.33L482.42,530c-2.71-1.7-5.13-3.3-7.22-4.89l0,0c1.65,2.11,3.81,5,5.7,7.62l5.4,7.5-2,1.68-12.47-17.58,2.74-2.24,9.43,5.72c2.37,1.48,4.43,2.84,6.27,4.23l.07-.06c-1-2-1.86-4.33-2.84-7l-3.63-10.47,2.74-2.24L501.18,528l-2.1,1.72Z"/><path d="M508.29,507.13l-6,5.84,5.42,5.54,6.66-6.51,1.63,1.66-8.64,8.46-15-15.37,8.3-8.12,1.63,1.66L496,506.48l4.75,4.86,6-5.84Z"/><path d="M524.09,505.08l-19.91-9.78,1.9-2.23,9.94,5.11c2.45,1.25,4.87,2.55,6.69,3.6l0,0c-1.4-1.65-2.91-3.82-4.55-6.17l-6.4-9.22,1.88-2.21,10,5.08c2.34,1.19,4.65,2.41,6.58,3.63l0,0c-1.51-1.87-2.94-3.88-4.54-6.13l-6.42-9.19,1.84-2.16,12.42,18.58-1.88,2.21-10.28-5.19a64.79,64.79,0,0,1-6.25-3.48l0,0a67.07,67.07,0,0,1,4.27,5.81l6.54,9.59Z"/><path d="M543.16,462c6.1,4.19,6.78,10.12,3.67,14.64-3.22,4.68-9.11,5.47-14.46,1.78-5.62-3.87-6.9-9.9-3.64-14.62S537.91,458.37,543.16,462ZM534,475.93c3.78,2.6,8.58,2.89,11.06-.71s.57-8-3.45-10.74c-3.52-2.42-8.47-3.12-11.09.7S530.11,473.25,534,475.93Z"/><path d="M537.81,451a28.93,28.93,0,0,1,2.25-4.85c1.47-2.58,2.89-4,4.61-4.53a5.35,5.35,0,0,1,4.38.55,5.65,5.65,0,0,1,2.76,6.24l.08,0c1.32-1.16,3.14-1.26,5.33-.59a34.29,34.29,0,0,0,5.95,1.48l-1.42,2.49a27.9,27.9,0,0,1-5.17-1.3c-2.89-.92-4.43-.47-5.76,1.67l-1.3,2.27,8.09,4.62-1.38,2.41Zm9.88,2.44L549.1,451c1.47-2.58,1-5-1.14-6.24-2.41-1.37-4.46-.23-5.94,2.3a11.41,11.41,0,0,0-1.14,2.51Z"/><path d="M547,433.7l1.19-2.51,9.37,4.45,0-.09c-.5-.87-.95-1.72-1.35-2.51l-4.47-9.4,1.48-3.11,4.9,10.95L573,429.21l-1.41,3L559,434l1.26,2.86,7.41,3.52-1.19,2.51Z"/><path d="M337.71,535l-7.74.91-.33-2.79,18.83-2.21.33,2.79-7.77.91,2.66,22.64-3.32.39Z"/><path d="M369.93,540.21l-9.72,2.14,2,9L373,549l.6,2.71-14.06,3.09-5.5-25,13.51-3,.6,2.71-10.28,2.26,1.74,7.9,9.72-2.14Z"/><path d="M399.85,542.57a16.43,16.43,0,0,1-6,3.31c-6.85,2.3-13.45-.29-16.12-8.26-2.55-7.6.87-14.48,8.4-17a13.73,13.73,0,0,1,6.13-.85l.1,2.81a12,12,0,0,0-5.24.64c-5.69,1.91-8.25,6.82-6.11,13.2,2,5.94,6.7,8.61,12.61,6.63a13.24,13.24,0,0,0,4.78-2.73Z"/><path d="M401.4,515,406,524.7l11.18-5.34-4.62-9.67,3-1.44,11,23.11-3,1.44L418.44,522l-11.18,5.34,5.17,10.83-3,1.42-11-23.11Z"/><path d="M436.94,525.62l-13.88-21.53,3-2L440,508.58a72.51,72.51,0,0,1,8.38,4.5l0-.07c-2.11-2.71-3.86-5.29-6-8.64l-5.81-9,2.62-1.69,13.88,21.52L450.29,517l-13.88-6.51a81.3,81.3,0,0,1-8.66-4.59l-.08.09c1.91,2.61,3.64,5.16,6,8.73l5.93,9.2Z"/><path d="M470.93,484c5.7,6.73,4.63,13.76-.35,18-5.16,4.37-12.17,3.44-17.19-2.47-5.26-6.2-4.84-13.53.38-18S466,478.21,470.93,484ZM456,497.18c3.54,4.17,9,6,12.94,2.63s3.14-9-.62-13.42c-3.29-3.88-8.76-6.22-13-2.66S452.41,492.88,456,497.18Z"/><path d="M467.76,469.32l2.26-2.41,16.64,15.64,7.49-8,2,1.9-9.76,10.39Z"/><path d="M504.06,445.23c7,5.31,7.53,12.41,3.59,17.62-4.08,5.4-11.12,6-17.31,1.35-6.49-4.9-7.69-12.14-3.56-17.6S498,440.65,504.06,445.23Zm-11.64,16.11c4.37,3.3,10.06,3.89,13.2-.27s1.1-9.46-3.54-13c-4.06-3.07-9.91-4.15-13.23.24S487.93,457.95,492.41,461.34Z"/><path d="M528.74,426.83a23.85,23.85,0,0,1-2.67,7.53c-1.92,3.37-4.35,5.65-7.68,6.65a13.18,13.18,0,0,1-10.06-1.61c-6.62-3.81-8.88-11.13-4.63-18.59a15.83,15.83,0,0,1,4.18-5l2,2a13.28,13.28,0,0,0-3.76,4.38c-3.08,5.42-1.73,10.87,3.85,14s10.92,1.71,13.87-3.47a10.79,10.79,0,0,0,1.59-4.17l-6.64-3.78-2.58,4.52-2.31-1.32,4.17-7.33Z"/><path d="M512.11,404.47l23.32,10.6-1.37,3-23.31-10.6Z"/><path d="M544.95,388a16.4,16.4,0,0,1-1.12,6.78c-2.42,6.8-8.54,10.4-16.45,7.59-7.56-2.68-10.86-9.63-8.2-17.11a13.73,13.73,0,0,1,3.11-5.35l2.28,1.66a12,12,0,0,0-2.73,4.51c-2,5.66.27,10.7,6.61,13,5.91,2.1,10.91,0,13-5.83a13.23,13.23,0,0,0,.8-5.44Z"/><path d="M541.55,372.7l7.27,4.37-.75,3.34L525,366.26l.88-3.89,26.91-2.87-.78,3.45-8.46.89Zm-.67-8.76-7.74.82c-1.76.19-3.32.22-4.85.27l0,.07c1.4.71,2.83,1.46,4.24,2.28l6.67,4.08Z"/><path d="M528.68,347.3l.38-3.28,22.69,2.61L553,335.76l2.76.32-1.63,14.16Z"/><path d="M75.57,416.58l4.7,10.54-2.12.95-3.58-8-6.5,2.9,3.3,7.4-2.09.93-3.3-7.4-8.86,4L56,425.31Z"/><path d="M83.05,433.42A28.76,28.76,0,0,1,86,437.89c1.4,2.61,1.83,4.54,1.4,6.29a5.34,5.34,0,0,1-2.79,3.41,5.63,5.63,0,0,1-6.73-1l-.08,0c.28,1.73-.6,3.32-2.32,4.82a34.05,34.05,0,0,0-4.4,4.24l-1.36-2.52a27.82,27.82,0,0,1,3.83-3.69c2.3-2,2.74-3.5,1.64-5.75l-1.23-2.3-8.18,4.4-1.31-2.44Zm-7.29,7.06L77.1,443c1.4,2.61,3.72,3.49,5.88,2.33,2.44-1.31,2.55-3.65,1.2-6.24a11.4,11.4,0,0,0-1.52-2.29Z"/><path d="M82.69,461.88l-6.87,1.8-1.56-2.4,21.95-5.55,1.82,2.8-14,17.8-1.61-2.48,4.41-5.59Zm5.64,4.72,4-5.12c.91-1.16,1.81-2.12,2.68-3.06l0-.05c-1.24.43-2.52.84-3.84,1.2l-6.35,1.61Z"/><path d="M107.34,491.25c2.24-2,4.93-4.37,7-6l-.06-.07c-2.42,1-5.07,2-8.05,3l-10.5,3.52L94.47,490l5.83-9.07c1.73-2.68,3.36-5.07,5-7.13l0,0c-2.13,1.61-5,3.73-7.67,5.58L90,484.59l-1.64-2.07,17.7-12.18,2.2,2.76-5.84,9.32c-1.51,2.34-2.9,4.38-4.3,6.19l.06.08c2-.92,4.35-1.79,7.06-2.73l10.49-3.47,2.2,2.76L102,499.65l-1.68-2.12Z"/><path d="M123.17,507.51l-5.75-6-5.59,5.33,6.41,6.72-1.68,1.6-8.32-8.72,15.51-14.8,8,8.38-1.68,1.6L124,495.23l-4.9,4.68,5.75,6Z"/><path d="M125.51,523.74l10-19.74,2.21,1.92-5.19,9.85c-1.27,2.43-2.59,4.82-3.66,6.63l0,0c1.66-1.38,3.83-2.86,6.2-4.47l9.25-6.28,2.18,1.9-5.17,9.92c-1.21,2.32-2.45,4.61-3.69,6.53l0,0c1.88-1.48,3.9-2.89,6.16-4.47l9.23-6.3,2.14,1.86-18.64,12.19-2.18-1.9,5.28-10.2a64.62,64.62,0,0,1,3.53-6.2l0,0a67,67,0,0,1-5.84,4.2l-9.63,6.42Z"/><path d="M168.92,543.62c-4.23,6-10.15,6.68-14.63,3.54-4.64-3.25-5.38-9.12-1.66-14.44,3.9-5.58,9.92-6.8,14.61-3.52S172.57,538.41,168.92,543.62Zm-13.83-9.25c-2.63,3.75-2.95,8.54.63,11s7.94.63,10.73-3.36c2.44-3.49,3.17-8.42-.61-11.06S157.79,530.51,155.09,534.37Z"/><path d="M180.44,538.68a28.76,28.76,0,0,1,4.82,2.27c2.56,1.48,3.94,2.9,4.49,4.62a5.34,5.34,0,0,1-.58,4.37,5.63,5.63,0,0,1-6.23,2.71l0,.08c1.15,1.32,1.23,3.14.56,5.32a34.12,34.12,0,0,0-1.51,5.92l-2.48-1.43a27.78,27.78,0,0,1,1.32-5.15c.93-2.88.5-4.42-1.63-5.75l-2.26-1.3-4.65,8-2.4-1.38Zm-2.49,9.83,2.45,1.42c2.56,1.48,5,1,6.22-1.1,1.38-2.4.26-4.44-2.26-5.94a11.44,11.44,0,0,0-2.49-1.15Z"/><path d="M198.09,548.22l2.49,1.2-4.47,9.32.09,0c.87-.5,1.72-.94,2.51-1.34L208.1,553l3.1,1.48-10.93,4.85,2.21,14.74-3-1.42-1.81-12.54-2.85,1.24-3.53,7.37-2.49-1.2Z"/><ellipse class="cls-2" cx="315.6" cy="399.15" rx="39.9" ry="39.88"/><ellipse class="cls-2" cx="315.6" cy="227.92" rx="39.9" ry="39.88"/><ellipse class="cls-2" cx="408.55" cy="315.75" rx="39.9" ry="39.88"/><ellipse class="cls-2" cx="226.83" cy="316.75" rx="39.9" ry="39.88"/></g></g></svg>