<!-- Generator: Adobe Illustrator 21.1.0, SVG Export Plug-In  -->
<svg version="1.1"
	 xmlns="http://www.w3.org/2000/svg" xmlns:xlink="http://www.w3.org/1999/xlink" xmlns:a="http://ns.adobe.com/AdobeSVGViewerExtensions/3.0/"
	 x="0px" y="0px" width="203px" height="651.3px" viewBox="0 0 203 651.3" style="enable-background:new 0 0 203 651.3;"
	 xml:space="preserve">
<style type="text/css">
	.st0{fill:#FDE9CC;}
	.st1{fill:#540268;}
</style>
<defs>
</defs>
<g>
	<path class="st0" d="M203,446.7L0,651.3V0l203,202.7C161.9,284.4,161.4,365.8,203,446.7z"/>
	<g>
		<g>
			<path class="st1" d="M29.5,366.5c-0.2-1.5-0.3-2.2-0.4-3.7c5.8-0.6,8.7-1,14.5-1.6c-0.3-3.2-0.5-4.7-0.8-7.9
				c1-0.1,1.6-0.1,2.6-0.2c0.4,4.5,0.6,6.8,1.2,11.3C39.7,365.3,36.3,365.7,29.5,366.5z"/>
			<path class="st1" d="M36.9,340.2c0.1,3,0.2,4.4,0.4,7.4c2-0.1,3-0.2,5-0.3c-0.2-3.2-0.3-4.9-0.4-8.1c1,0,1.5-0.1,2.6-0.1
				c0.2,4.6,0.3,6.9,0.7,11.5c-6.9,0.5-10.3,0.8-17.1,1.3c-0.4-4.7-0.5-7-0.7-11.7c1,0,1.5-0.1,2.6-0.1c0.1,3.2,0.2,4.8,0.4,8
				c1.8-0.1,2.7-0.2,4.4-0.3c-0.2-3-0.3-4.5-0.4-7.4C35.4,340.2,35.9,340.2,36.9,340.2z"/>
			<path class="st1" d="M43.4,320.6c0.4,1.2,0.9,3.6,0.9,6.2c0,3.2-0.7,5.7-2.2,7.6c-1.4,1.7-3.6,2.8-6.2,2.9
				c-5.4,0.2-9.1-4.2-9.1-10.9c0-2.5,0.5-4.4,0.8-5.3c1,0.3,1.5,0.5,2.5,0.8c-0.4,1.1-0.8,2.4-0.8,4.5c0,4.3,2.3,7.2,6.3,7.1
				c3.9-0.1,6.1-2.8,6.1-6.8c0-1.3-0.2-2.2-0.4-2.7c-1.7,0-2.6,0-4.3,0c0,1.4,0,2.1,0,3.5c-1,0-1.5,0-2.5,0c0-2.8,0-4.2,0-7
				C38.2,320.5,40,320.5,43.4,320.6z"/>
			<path class="st1" d="M39.6,313c1.9,0.7,2.9,1.1,4.8,1.8c0,1.4-0.1,2.2-0.1,3.6c-6.8-2.6-10.2-4-17-6.8c0.1-1.9,0.1-2.8,0.2-4.7
				c7-2.2,10.5-3.3,17.6-5.3c-0.1,1.5-0.2,2.2-0.3,3.7c-2,0.6-3,0.9-5,1.5C39.7,309.3,39.7,310.5,39.6,313z M37.5,307.3
				c-1.7,0.5-2.6,0.8-4.3,1.3c-1.1,0.3-2.2,0.6-3.3,0.8c0,0,0,0,0,0.1c1,0.3,2.2,0.7,3.2,1.1c1.7,0.7,2.5,1,4.2,1.7
				C37.3,310.3,37.3,309.3,37.5,307.3z"/>
			<path class="st1" d="M28.2,297.6c0.1-1.5,0.2-2.2,0.3-3.7c5.8,0.5,8.7,0.8,14.5,1.4c0.3-3.2,0.5-4.7,0.8-7.9
				c1,0.1,1.6,0.2,2.6,0.3c-0.5,4.5-0.8,6.8-1.1,11.3C38.4,298.4,35,298.1,28.2,297.6z"/>
			<path class="st1" d="M67.4,402.9c-1.1-4.1-1.6-6.2-2.5-10.4c1-0.2,1.5-0.3,2.5-0.6c0.6,2.8,0.9,4.2,1.6,7
				c1.8-0.5,2.8-0.7,4.6-1.1c-0.6-2.6-0.9-3.9-1.5-6.5c1-0.2,1.5-0.3,2.5-0.6c0.6,2.6,0.9,3.8,1.5,6.4c2.8-0.7,4.2-1,7.1-1.7
				c0.3,1.2,0.5,1.9,0.8,3.1C77.3,400.4,74,401.2,67.4,402.9z"/>
			<path class="st1" d="M64.4,389.3c-0.5-1.2-1-3-1.4-4.9c-0.5-2.6-0.4-4.5,0.3-5.8c0.6-1.1,1.7-1.9,3.1-2.1
				c2.2-0.4,3.9,0.9,4.8,2.5c0,0,0,0,0.1,0c0.2-1.3,1.3-2.3,2.8-3c2-0.9,3.9-1.7,4.5-2.2c0.2,1.3,0.3,1.9,0.6,3.2
				c-0.5,0.3-1.8,1-3.8,1.9c-2.1,0.9-2.7,1.9-2.4,3.7c0.1,0.6,0.2,1,0.3,1.6c2.8-0.5,4.2-0.8,6.9-1.4c0.2,1.2,0.4,1.9,0.6,3.1
				C74.4,387.2,71.1,387.9,64.4,389.3z M71.2,384.6c-0.2-0.8-0.2-1.1-0.4-1.9c-0.4-2.2-1.8-3.3-3.4-3c-1.9,0.3-2.5,1.9-2.1,4
				c0.2,1,0.4,1.7,0.5,2C68,385.2,69.1,385,71.2,384.6z"/>
			<path class="st1" d="M73,368.5c2,0.3,3,0.5,5,0.8c0.2,1.3,0.3,1.9,0.5,3.2c-7.1-1.1-10.7-1.7-17.8-3.1c-0.2-1.7-0.4-2.5-0.6-4.2
				c6.5-3.2,9.8-4.8,16.4-7.8c0.1,1.4,0.2,2,0.4,3.4c-1.9,0.9-2.8,1.3-4.6,2.2C72.5,365.1,72.7,366.2,73,368.5z M70,363.7
				c-1.6,0.8-2.4,1.2-4,1.9c-1,0.5-2.1,0.9-3.1,1.3c0,0,0,0,0,0.1c1,0.1,2.2,0.2,3.3,0.4c1.8,0.3,2.6,0.5,4.4,0.8
				C70.3,366.5,70.2,365.6,70,363.7z"/>
			<path class="st1" d="M68.1,340.8c-2.2,0.2-4.9,0.5-7.2,0.6c0,0,0,0,0,0.1c2.1,0.5,4.5,1.1,6.7,1.8c3,0.9,4.5,1.3,7.6,2.1
				c0.1,1,0.1,1.5,0.2,2.4c-2.9,1.1-4.3,1.7-7.1,2.9c-2.1,0.9-4.4,1.7-6.5,2.4c0,0,0,0,0,0.1c2.2-0.1,5-0.3,7.3-0.3
				c2.8-0.1,4.1-0.1,6.9-0.2c0.1,1.2,0.2,1.8,0.3,2.9c-6.9,0.2-10.3,0.3-17.2,0.5c-0.2-1.8-0.3-2.6-0.4-4.4c2.7-1.2,4-1.8,6.7-2.9
				c2-0.8,4-1.5,5.8-2.1c0,0,0,0,0-0.1c-1.9-0.3-4-0.8-6.1-1.4c-2.8-0.8-4.2-1.2-7-2.1c-0.1-1.7-0.1-2.6-0.2-4.4
				c6.8-0.7,10.3-1.1,17.1-1.7c0,1.2,0.1,1.9,0.1,3.1C72.3,340.4,70.9,340.5,68.1,340.8z"/>
			<path class="st1" d="M67.2,324.1c0,2.7,0,4,0,6.7c2,0,3-0.1,5-0.1c0-2.9-0.1-4.4,0-7.4c1,0,1.5,0,2.6,0c0,4.2,0,6.3,0.1,10.5
				c-6.9,0.2-10.3,0.3-17.2,0.5c-0.1-4.3-0.1-6.4-0.1-10.7c1,0,1.5,0,2.6,0c0,2.9,0,4.4,0,7.3c1.8,0,2.7,0,4.4-0.1
				c0-2.7-0.1-4.1,0-6.8C65.6,324.1,66.1,324.1,67.2,324.1z"/>
			<path class="st1" d="M74.9,317.5c-6.9,1.5-10.4,2.3-17.3,4c0-1.4,0-2.1,0.1-3.6c3.1-0.6,4.7-0.9,7.8-1.5c2.1-0.4,4.3-0.7,6-1
				c0,0,0,0,0-0.1c-1.8-0.3-3.8-0.9-6-1.5c-3.1-0.9-4.6-1.4-7.7-2.3c0.1-1.4,0.1-2.1,0.2-3.5c3.2-0.6,4.8-0.8,8-1.3
				c2.1-0.3,4-0.6,5.9-0.7c0,0,0,0,0-0.1c-1.9-0.4-3.8-1-5.8-1.6c-3-1-4.6-1.4-7.6-2.4c0.1-1.4,0.2-2,0.3-3.4
				c6.7,2.6,10,3.8,16.7,6.1c-0.1,1.4-0.1,2-0.2,3.4c-3.3,0.5-4.9,0.8-8.2,1.4c-2,0.3-3.6,0.6-5.5,0.7c0,0,0,0,0,0.1
				c1.8,0.4,3.5,0.8,5.4,1.5c3.2,1,4.8,1.4,8,2.4C74.9,315.5,74.9,316.2,74.9,317.5z"/>
			<path class="st1" d="M69.2,281.6c5.7,0.8,8.4,4.8,7.9,9.6c-0.6,4.9-4.5,7.6-9.5,7.1c-5.3-0.5-8.7-4.3-8-9.5
				C60.1,283.5,64.4,280.9,69.2,281.6z M67.8,294.9c3.5,0.4,6.4-1.1,6.8-4.2c0.4-3.1-2.2-5.2-5.7-5.7c-3.2-0.4-6.5,0.8-6.9,4.1
				C61.6,292.5,64.3,294.5,67.8,294.9z"/>
			<path class="st1" d="M61.6,277.5c0-1.3,0.1-3.2,0.5-5.1c0.5-2.6,1.2-4.3,2.4-5.3c1-0.8,2.3-1.2,3.7-0.9c2.2,0.4,3.3,2.3,3.6,4
				c0,0,0,0,0.1,0c0.7-1.2,2-1.7,3.7-1.8c2.2-0.1,4.2-0.2,5-0.4c-0.3,1.3-0.4,1.9-0.6,3.2c-0.5,0.2-2,0.3-4.2,0.4
				c-2.3,0.1-3.2,0.8-3.5,2.6c-0.1,0.6-0.2,1-0.3,1.6c2.8,0.5,4.2,0.7,7,1.2c-0.2,1.2-0.3,1.9-0.5,3.1
				C71.6,279.1,68.3,278.6,61.6,277.5z M69.6,275.5c0.1-0.8,0.2-1.1,0.3-1.9c0.4-2.2-0.5-3.7-2.1-4.1c-1.9-0.3-3,0.9-3.3,3
				c-0.2,1-0.2,1.7-0.2,2.1C66.4,275,67.5,275.2,69.6,275.5z"/>
			<path class="st1" d="M64.1,262.2c0.3-1.3,0.4-2,0.7-3.3c3.1,0.7,4.6,1,7.7,1.7c0,0,0,0,0-0.1c-0.6-0.6-1.1-1.1-1.5-1.7
				c-1.9-2.4-2.9-3.6-4.8-6c0.4-1.6,0.6-2.4,1-4c2.2,3.2,3.3,4.8,5.6,7.8c4.4-1.7,6.7-2.5,11.1-4c-0.4,1.4-0.6,2.2-0.9,3.6
				c-3.5,1.2-5.3,1.8-8.8,3.1c0.6,0.8,0.9,1.2,1.4,1.9c2.4,0.5,3.5,0.8,5.9,1.3c-0.3,1.2-0.4,1.8-0.7,3.1
				C74.2,264.3,70.9,263.6,64.1,262.2z"/>
		</g>
	</g>
</g>
</svg>
